M48
; DRILL file {KiCad 8.0.4} date 2024-09-16T12:53:35-0700
; FORMAT={-:-/ absolute / inch / decimal}
; #@! TF.CreationDate,2024-09-16T12:53:35-07:00
; #@! TF.GenerationSoftware,Kicad,Pcbnew,8.0.4
; #@! TF.FileFunction,Plated,1,2,PTH
FMAT,2
INCH
; #@! TA.AperFunction,Plated,PTH,ViaDrill
T1C0.0118
; #@! TA.AperFunction,Plated,PTH,ComponentDrill
T2C0.0340
; #@! TA.AperFunction,Plated,PTH,ComponentDrill
T3C0.0380
; #@! TA.AperFunction,Plated,PTH,ComponentDrill
T4C0.0394
; #@! TA.AperFunction,Plated,PTH,ComponentDrill
T5C0.0650
; #@! TA.AperFunction,Plated,PTH,ComponentDrill
T6C0.0728
; #@! TA.AperFunction,Plated,PTH,ComponentDrill
T7C0.1063
%
G90
G05
T1
X5.06Y-3.52
X5.61Y-3.52
X6.16Y-3.52
X6.71Y-3.52
X7.26Y-3.52
X7.81Y-3.52
X8.36Y-3.52
X8.91Y-3.52
X9.35Y-3.7004
X9.35Y-3.7516
X9.35Y-3.8028
X9.35Y-3.854
X9.375Y-3.6748
X9.375Y-3.726
X9.375Y-3.7772
X9.375Y-3.8284
T2
X4.6874Y-3.04
X4.8251Y-3.04
T3
X5.379Y-2.83
X5.429Y-2.73
X5.479Y-2.83
X5.529Y-2.73
X5.579Y-2.83
X5.629Y-2.73
X5.679Y-2.83
X5.729Y-2.73
X5.929Y-2.83
X5.979Y-2.73
X6.029Y-2.83
X6.079Y-2.73
X6.129Y-2.83
X6.179Y-2.73
X6.229Y-2.83
X6.279Y-2.73
X6.479Y-2.83
X6.529Y-2.73
X6.579Y-2.83
X6.629Y-2.73
X6.679Y-2.83
X6.729Y-2.73
X6.779Y-2.83
X6.829Y-2.73
X7.029Y-2.83
X7.079Y-2.73
X7.129Y-2.83
X7.179Y-2.73
X7.229Y-2.83
X7.279Y-2.73
X7.329Y-2.83
X7.379Y-2.73
X7.579Y-2.83
X7.629Y-2.73
X7.679Y-2.83
X7.729Y-2.73
X7.779Y-2.83
X7.829Y-2.73
X7.879Y-2.83
X7.929Y-2.73
X8.129Y-2.83
X8.179Y-2.73
X8.229Y-2.83
X8.279Y-2.73
X8.329Y-2.83
X8.379Y-2.73
X8.429Y-2.83
X8.479Y-2.73
X8.679Y-2.83
X8.729Y-2.73
X8.779Y-2.83
X8.829Y-2.73
X8.879Y-2.83
X8.929Y-2.73
X8.979Y-2.83
X9.029Y-2.73
X9.229Y-2.83
X9.279Y-2.73
X9.329Y-2.83
X9.379Y-2.73
X9.429Y-2.83
X9.479Y-2.73
X9.529Y-2.83
X9.579Y-2.73
T4
X5.0356Y-4.3856
X5.1144Y-4.3856
X5.5856Y-4.3856
X5.6644Y-4.3856
X6.1356Y-4.3856
X6.2144Y-4.3856
X6.6856Y-4.3856
X6.7644Y-4.3856
X7.2356Y-4.3856
X7.3144Y-4.3856
X7.7856Y-4.3856
X7.8644Y-4.3856
X8.3356Y-4.3856
X8.4144Y-4.3856
X8.8856Y-4.3856
X8.9644Y-4.3856
X9.975Y-2.65
X9.975Y-2.75
X9.975Y-2.85
X9.975Y-2.95
X9.975Y-3.05
X9.975Y-3.15
X9.975Y-3.25
X9.975Y-3.35
X9.975Y-3.45
X9.975Y-3.55
X9.975Y-3.65
X9.975Y-3.75
X9.975Y-3.85
X9.975Y-3.95
X9.975Y-4.05
X9.975Y-4.15
X9.975Y-4.25
X9.975Y-4.35
X9.975Y-4.45
X9.975Y-4.55
X10.075Y-2.65
X10.075Y-2.75
X10.075Y-2.85
X10.075Y-2.95
X10.075Y-3.05
X10.075Y-3.15
X10.075Y-3.25
X10.075Y-3.35
X10.075Y-3.45
X10.075Y-3.55
X10.075Y-3.65
X10.075Y-3.75
X10.075Y-3.85
X10.075Y-3.95
X10.075Y-4.05
X10.075Y-4.15
X10.075Y-4.25
X10.075Y-4.35
X10.075Y-4.45
X10.075Y-4.55
T5
X5.219Y-2.3
X5.829Y-2.89
X6.379Y-2.89
X6.929Y-2.89
X7.479Y-2.89
X8.029Y-2.89
X8.579Y-2.89
X9.129Y-2.89
X9.739Y-2.3
T6
X3.5782Y-2.8438
X3.5782Y-2.9937
X3.6633Y-2.3438
X3.7633Y-2.8438
X3.7633Y-2.9937
X3.8633Y-2.3438
X3.9483Y-2.8438
X3.9483Y-2.9937
T7
X3.225Y-2.375
X3.225Y-4.525
X9.7Y-4.525
X10.05Y-2.375
T4
G00X4.4142Y-2.4632
M15
G01X4.4142Y-2.5671
M16
G05
G00X4.6591Y-2.3951
M15
G01X4.5551Y-2.3951
M16
G05
G00X4.6591Y-2.6313
M15
G01X4.5551Y-2.6313
M16
G05
M30
