%TF.GenerationSoftware,KiCad,Pcbnew,8.0.4*%
%TF.CreationDate,2024-09-16T12:53:31-07:00*%
%TF.ProjectId,PumpController8,50756d70-436f-46e7-9472-6f6c6c657238,rev?*%
%TF.SameCoordinates,Original*%
%TF.FileFunction,Legend,Top*%
%TF.FilePolarity,Positive*%
%FSLAX46Y46*%
G04 Gerber Fmt 4.6, Leading zero omitted, Abs format (unit mm)*
G04 Created by KiCad (PCBNEW 8.0.4) date 2024-09-16 12:53:31*
%MOMM*%
%LPD*%
G01*
G04 APERTURE LIST*
%ADD10C,0.152400*%
%ADD11C,0.300000*%
%ADD12C,0.150000*%
%ADD13C,0.100000*%
%ADD14C,0.200000*%
%ADD15C,0.508000*%
%ADD16C,0.120000*%
%ADD17C,0.250000*%
%ADD18C,0.000000*%
%ADD19C,0.634999*%
G04 APERTURE END LIST*
D10*
X128663095Y-117419601D02*
X127937380Y-117419601D01*
X128300237Y-117419601D02*
X128300237Y-116149601D01*
X128300237Y-116149601D02*
X128179285Y-116331029D01*
X128179285Y-116331029D02*
X128058333Y-116451982D01*
X128058333Y-116451982D02*
X127937380Y-116512458D01*
X129751666Y-116149601D02*
X129509761Y-116149601D01*
X129509761Y-116149601D02*
X129388809Y-116210077D01*
X129388809Y-116210077D02*
X129328333Y-116270553D01*
X129328333Y-116270553D02*
X129207380Y-116451982D01*
X129207380Y-116451982D02*
X129146904Y-116693886D01*
X129146904Y-116693886D02*
X129146904Y-117177696D01*
X129146904Y-117177696D02*
X129207380Y-117298648D01*
X129207380Y-117298648D02*
X129267857Y-117359125D01*
X129267857Y-117359125D02*
X129388809Y-117419601D01*
X129388809Y-117419601D02*
X129630714Y-117419601D01*
X129630714Y-117419601D02*
X129751666Y-117359125D01*
X129751666Y-117359125D02*
X129812142Y-117298648D01*
X129812142Y-117298648D02*
X129872619Y-117177696D01*
X129872619Y-117177696D02*
X129872619Y-116875315D01*
X129872619Y-116875315D02*
X129812142Y-116754363D01*
X129812142Y-116754363D02*
X129751666Y-116693886D01*
X129751666Y-116693886D02*
X129630714Y-116633410D01*
X129630714Y-116633410D02*
X129388809Y-116633410D01*
X129388809Y-116633410D02*
X129267857Y-116693886D01*
X129267857Y-116693886D02*
X129207380Y-116754363D01*
X129207380Y-116754363D02*
X129146904Y-116875315D01*
X142633095Y-117419601D02*
X141907380Y-117419601D01*
X142270237Y-117419601D02*
X142270237Y-116149601D01*
X142270237Y-116149601D02*
X142149285Y-116331029D01*
X142149285Y-116331029D02*
X142028333Y-116451982D01*
X142028333Y-116451982D02*
X141907380Y-116512458D01*
X143782142Y-116149601D02*
X143177380Y-116149601D01*
X143177380Y-116149601D02*
X143116904Y-116754363D01*
X143116904Y-116754363D02*
X143177380Y-116693886D01*
X143177380Y-116693886D02*
X143298333Y-116633410D01*
X143298333Y-116633410D02*
X143600714Y-116633410D01*
X143600714Y-116633410D02*
X143721666Y-116693886D01*
X143721666Y-116693886D02*
X143782142Y-116754363D01*
X143782142Y-116754363D02*
X143842619Y-116875315D01*
X143842619Y-116875315D02*
X143842619Y-117177696D01*
X143842619Y-117177696D02*
X143782142Y-117298648D01*
X143782142Y-117298648D02*
X143721666Y-117359125D01*
X143721666Y-117359125D02*
X143600714Y-117419601D01*
X143600714Y-117419601D02*
X143298333Y-117419601D01*
X143298333Y-117419601D02*
X143177380Y-117359125D01*
X143177380Y-117359125D02*
X143116904Y-117298648D01*
X156603095Y-117419601D02*
X155877380Y-117419601D01*
X156240237Y-117419601D02*
X156240237Y-116149601D01*
X156240237Y-116149601D02*
X156119285Y-116331029D01*
X156119285Y-116331029D02*
X155998333Y-116451982D01*
X155998333Y-116451982D02*
X155877380Y-116512458D01*
X157691666Y-116572934D02*
X157691666Y-117419601D01*
X157389285Y-116089125D02*
X157086904Y-116996267D01*
X157086904Y-116996267D02*
X157873095Y-116996267D01*
X170573095Y-117419601D02*
X169847380Y-117419601D01*
X170210237Y-117419601D02*
X170210237Y-116149601D01*
X170210237Y-116149601D02*
X170089285Y-116331029D01*
X170089285Y-116331029D02*
X169968333Y-116451982D01*
X169968333Y-116451982D02*
X169847380Y-116512458D01*
X170996428Y-116149601D02*
X171782619Y-116149601D01*
X171782619Y-116149601D02*
X171359285Y-116633410D01*
X171359285Y-116633410D02*
X171540714Y-116633410D01*
X171540714Y-116633410D02*
X171661666Y-116693886D01*
X171661666Y-116693886D02*
X171722142Y-116754363D01*
X171722142Y-116754363D02*
X171782619Y-116875315D01*
X171782619Y-116875315D02*
X171782619Y-117177696D01*
X171782619Y-117177696D02*
X171722142Y-117298648D01*
X171722142Y-117298648D02*
X171661666Y-117359125D01*
X171661666Y-117359125D02*
X171540714Y-117419601D01*
X171540714Y-117419601D02*
X171177857Y-117419601D01*
X171177857Y-117419601D02*
X171056904Y-117359125D01*
X171056904Y-117359125D02*
X170996428Y-117298648D01*
X184543095Y-117419601D02*
X183817380Y-117419601D01*
X184180237Y-117419601D02*
X184180237Y-116149601D01*
X184180237Y-116149601D02*
X184059285Y-116331029D01*
X184059285Y-116331029D02*
X183938333Y-116451982D01*
X183938333Y-116451982D02*
X183817380Y-116512458D01*
X185026904Y-116270553D02*
X185087380Y-116210077D01*
X185087380Y-116210077D02*
X185208333Y-116149601D01*
X185208333Y-116149601D02*
X185510714Y-116149601D01*
X185510714Y-116149601D02*
X185631666Y-116210077D01*
X185631666Y-116210077D02*
X185692142Y-116270553D01*
X185692142Y-116270553D02*
X185752619Y-116391505D01*
X185752619Y-116391505D02*
X185752619Y-116512458D01*
X185752619Y-116512458D02*
X185692142Y-116693886D01*
X185692142Y-116693886D02*
X184966428Y-117419601D01*
X184966428Y-117419601D02*
X185752619Y-117419601D01*
X198513095Y-117419601D02*
X197787380Y-117419601D01*
X198150237Y-117419601D02*
X198150237Y-116149601D01*
X198150237Y-116149601D02*
X198029285Y-116331029D01*
X198029285Y-116331029D02*
X197908333Y-116451982D01*
X197908333Y-116451982D02*
X197787380Y-116512458D01*
X199722619Y-117419601D02*
X198996904Y-117419601D01*
X199359761Y-117419601D02*
X199359761Y-116149601D01*
X199359761Y-116149601D02*
X199238809Y-116331029D01*
X199238809Y-116331029D02*
X199117857Y-116451982D01*
X199117857Y-116451982D02*
X198996904Y-116512458D01*
X212483095Y-117419601D02*
X211757380Y-117419601D01*
X212120237Y-117419601D02*
X212120237Y-116149601D01*
X212120237Y-116149601D02*
X211999285Y-116331029D01*
X211999285Y-116331029D02*
X211878333Y-116451982D01*
X211878333Y-116451982D02*
X211757380Y-116512458D01*
X213269285Y-116149601D02*
X213390238Y-116149601D01*
X213390238Y-116149601D02*
X213511190Y-116210077D01*
X213511190Y-116210077D02*
X213571666Y-116270553D01*
X213571666Y-116270553D02*
X213632142Y-116391505D01*
X213632142Y-116391505D02*
X213692619Y-116633410D01*
X213692619Y-116633410D02*
X213692619Y-116935791D01*
X213692619Y-116935791D02*
X213632142Y-117177696D01*
X213632142Y-117177696D02*
X213571666Y-117298648D01*
X213571666Y-117298648D02*
X213511190Y-117359125D01*
X213511190Y-117359125D02*
X213390238Y-117419601D01*
X213390238Y-117419601D02*
X213269285Y-117419601D01*
X213269285Y-117419601D02*
X213148333Y-117359125D01*
X213148333Y-117359125D02*
X213087857Y-117298648D01*
X213087857Y-117298648D02*
X213027380Y-117177696D01*
X213027380Y-117177696D02*
X212966904Y-116935791D01*
X212966904Y-116935791D02*
X212966904Y-116633410D01*
X212966904Y-116633410D02*
X213027380Y-116391505D01*
X213027380Y-116391505D02*
X213087857Y-116270553D01*
X213087857Y-116270553D02*
X213148333Y-116210077D01*
X213148333Y-116210077D02*
X213269285Y-116149601D01*
X226453095Y-117419601D02*
X226694999Y-117419601D01*
X226694999Y-117419601D02*
X226815952Y-117359125D01*
X226815952Y-117359125D02*
X226876428Y-117298648D01*
X226876428Y-117298648D02*
X226997380Y-117117220D01*
X226997380Y-117117220D02*
X227057857Y-116875315D01*
X227057857Y-116875315D02*
X227057857Y-116391505D01*
X227057857Y-116391505D02*
X226997380Y-116270553D01*
X226997380Y-116270553D02*
X226936904Y-116210077D01*
X226936904Y-116210077D02*
X226815952Y-116149601D01*
X226815952Y-116149601D02*
X226574047Y-116149601D01*
X226574047Y-116149601D02*
X226453095Y-116210077D01*
X226453095Y-116210077D02*
X226392618Y-116270553D01*
X226392618Y-116270553D02*
X226332142Y-116391505D01*
X226332142Y-116391505D02*
X226332142Y-116693886D01*
X226332142Y-116693886D02*
X226392618Y-116814839D01*
X226392618Y-116814839D02*
X226453095Y-116875315D01*
X226453095Y-116875315D02*
X226574047Y-116935791D01*
X226574047Y-116935791D02*
X226815952Y-116935791D01*
X226815952Y-116935791D02*
X226936904Y-116875315D01*
X226936904Y-116875315D02*
X226997380Y-116814839D01*
X226997380Y-116814839D02*
X227057857Y-116693886D01*
D11*
X88508929Y-117742828D02*
X88508929Y-116242828D01*
X88508929Y-116242828D02*
X89080358Y-116242828D01*
X89080358Y-116242828D02*
X89223215Y-116314257D01*
X89223215Y-116314257D02*
X89294644Y-116385685D01*
X89294644Y-116385685D02*
X89366072Y-116528542D01*
X89366072Y-116528542D02*
X89366072Y-116742828D01*
X89366072Y-116742828D02*
X89294644Y-116885685D01*
X89294644Y-116885685D02*
X89223215Y-116957114D01*
X89223215Y-116957114D02*
X89080358Y-117028542D01*
X89080358Y-117028542D02*
X88508929Y-117028542D01*
X90651787Y-116742828D02*
X90651787Y-117742828D01*
X90008929Y-116742828D02*
X90008929Y-117528542D01*
X90008929Y-117528542D02*
X90080358Y-117671400D01*
X90080358Y-117671400D02*
X90223215Y-117742828D01*
X90223215Y-117742828D02*
X90437501Y-117742828D01*
X90437501Y-117742828D02*
X90580358Y-117671400D01*
X90580358Y-117671400D02*
X90651787Y-117599971D01*
X91366072Y-117742828D02*
X91366072Y-116742828D01*
X91366072Y-116885685D02*
X91437501Y-116814257D01*
X91437501Y-116814257D02*
X91580358Y-116742828D01*
X91580358Y-116742828D02*
X91794644Y-116742828D01*
X91794644Y-116742828D02*
X91937501Y-116814257D01*
X91937501Y-116814257D02*
X92008930Y-116957114D01*
X92008930Y-116957114D02*
X92008930Y-117742828D01*
X92008930Y-116957114D02*
X92080358Y-116814257D01*
X92080358Y-116814257D02*
X92223215Y-116742828D01*
X92223215Y-116742828D02*
X92437501Y-116742828D01*
X92437501Y-116742828D02*
X92580358Y-116814257D01*
X92580358Y-116814257D02*
X92651787Y-116957114D01*
X92651787Y-116957114D02*
X92651787Y-117742828D01*
X93366072Y-116742828D02*
X93366072Y-118242828D01*
X93366072Y-116814257D02*
X93508930Y-116742828D01*
X93508930Y-116742828D02*
X93794644Y-116742828D01*
X93794644Y-116742828D02*
X93937501Y-116814257D01*
X93937501Y-116814257D02*
X94008930Y-116885685D01*
X94008930Y-116885685D02*
X94080358Y-117028542D01*
X94080358Y-117028542D02*
X94080358Y-117457114D01*
X94080358Y-117457114D02*
X94008930Y-117599971D01*
X94008930Y-117599971D02*
X93937501Y-117671400D01*
X93937501Y-117671400D02*
X93794644Y-117742828D01*
X93794644Y-117742828D02*
X93508930Y-117742828D01*
X93508930Y-117742828D02*
X93366072Y-117671400D01*
X96723215Y-117599971D02*
X96651787Y-117671400D01*
X96651787Y-117671400D02*
X96437501Y-117742828D01*
X96437501Y-117742828D02*
X96294644Y-117742828D01*
X96294644Y-117742828D02*
X96080358Y-117671400D01*
X96080358Y-117671400D02*
X95937501Y-117528542D01*
X95937501Y-117528542D02*
X95866072Y-117385685D01*
X95866072Y-117385685D02*
X95794644Y-117099971D01*
X95794644Y-117099971D02*
X95794644Y-116885685D01*
X95794644Y-116885685D02*
X95866072Y-116599971D01*
X95866072Y-116599971D02*
X95937501Y-116457114D01*
X95937501Y-116457114D02*
X96080358Y-116314257D01*
X96080358Y-116314257D02*
X96294644Y-116242828D01*
X96294644Y-116242828D02*
X96437501Y-116242828D01*
X96437501Y-116242828D02*
X96651787Y-116314257D01*
X96651787Y-116314257D02*
X96723215Y-116385685D01*
X97580358Y-117742828D02*
X97437501Y-117671400D01*
X97437501Y-117671400D02*
X97366072Y-117599971D01*
X97366072Y-117599971D02*
X97294644Y-117457114D01*
X97294644Y-117457114D02*
X97294644Y-117028542D01*
X97294644Y-117028542D02*
X97366072Y-116885685D01*
X97366072Y-116885685D02*
X97437501Y-116814257D01*
X97437501Y-116814257D02*
X97580358Y-116742828D01*
X97580358Y-116742828D02*
X97794644Y-116742828D01*
X97794644Y-116742828D02*
X97937501Y-116814257D01*
X97937501Y-116814257D02*
X98008930Y-116885685D01*
X98008930Y-116885685D02*
X98080358Y-117028542D01*
X98080358Y-117028542D02*
X98080358Y-117457114D01*
X98080358Y-117457114D02*
X98008930Y-117599971D01*
X98008930Y-117599971D02*
X97937501Y-117671400D01*
X97937501Y-117671400D02*
X97794644Y-117742828D01*
X97794644Y-117742828D02*
X97580358Y-117742828D01*
X98723215Y-116742828D02*
X98723215Y-117742828D01*
X98723215Y-116885685D02*
X98794644Y-116814257D01*
X98794644Y-116814257D02*
X98937501Y-116742828D01*
X98937501Y-116742828D02*
X99151787Y-116742828D01*
X99151787Y-116742828D02*
X99294644Y-116814257D01*
X99294644Y-116814257D02*
X99366073Y-116957114D01*
X99366073Y-116957114D02*
X99366073Y-117742828D01*
X99866073Y-116742828D02*
X100437501Y-116742828D01*
X100080358Y-116242828D02*
X100080358Y-117528542D01*
X100080358Y-117528542D02*
X100151787Y-117671400D01*
X100151787Y-117671400D02*
X100294644Y-117742828D01*
X100294644Y-117742828D02*
X100437501Y-117742828D01*
X100937501Y-117742828D02*
X100937501Y-116742828D01*
X100937501Y-117028542D02*
X101008930Y-116885685D01*
X101008930Y-116885685D02*
X101080359Y-116814257D01*
X101080359Y-116814257D02*
X101223216Y-116742828D01*
X101223216Y-116742828D02*
X101366073Y-116742828D01*
X102080358Y-117742828D02*
X101937501Y-117671400D01*
X101937501Y-117671400D02*
X101866072Y-117599971D01*
X101866072Y-117599971D02*
X101794644Y-117457114D01*
X101794644Y-117457114D02*
X101794644Y-117028542D01*
X101794644Y-117028542D02*
X101866072Y-116885685D01*
X101866072Y-116885685D02*
X101937501Y-116814257D01*
X101937501Y-116814257D02*
X102080358Y-116742828D01*
X102080358Y-116742828D02*
X102294644Y-116742828D01*
X102294644Y-116742828D02*
X102437501Y-116814257D01*
X102437501Y-116814257D02*
X102508930Y-116885685D01*
X102508930Y-116885685D02*
X102580358Y-117028542D01*
X102580358Y-117028542D02*
X102580358Y-117457114D01*
X102580358Y-117457114D02*
X102508930Y-117599971D01*
X102508930Y-117599971D02*
X102437501Y-117671400D01*
X102437501Y-117671400D02*
X102294644Y-117742828D01*
X102294644Y-117742828D02*
X102080358Y-117742828D01*
X103437501Y-117742828D02*
X103294644Y-117671400D01*
X103294644Y-117671400D02*
X103223215Y-117528542D01*
X103223215Y-117528542D02*
X103223215Y-116242828D01*
X104223215Y-117742828D02*
X104080358Y-117671400D01*
X104080358Y-117671400D02*
X104008929Y-117528542D01*
X104008929Y-117528542D02*
X104008929Y-116242828D01*
X105366072Y-117671400D02*
X105223215Y-117742828D01*
X105223215Y-117742828D02*
X104937501Y-117742828D01*
X104937501Y-117742828D02*
X104794643Y-117671400D01*
X104794643Y-117671400D02*
X104723215Y-117528542D01*
X104723215Y-117528542D02*
X104723215Y-116957114D01*
X104723215Y-116957114D02*
X104794643Y-116814257D01*
X104794643Y-116814257D02*
X104937501Y-116742828D01*
X104937501Y-116742828D02*
X105223215Y-116742828D01*
X105223215Y-116742828D02*
X105366072Y-116814257D01*
X105366072Y-116814257D02*
X105437501Y-116957114D01*
X105437501Y-116957114D02*
X105437501Y-117099971D01*
X105437501Y-117099971D02*
X104723215Y-117242828D01*
X106080357Y-117742828D02*
X106080357Y-116742828D01*
X106080357Y-117028542D02*
X106151786Y-116885685D01*
X106151786Y-116885685D02*
X106223215Y-116814257D01*
X106223215Y-116814257D02*
X106366072Y-116742828D01*
X106366072Y-116742828D02*
X106508929Y-116742828D01*
X108366071Y-116885685D02*
X108223214Y-116814257D01*
X108223214Y-116814257D02*
X108151785Y-116742828D01*
X108151785Y-116742828D02*
X108080357Y-116599971D01*
X108080357Y-116599971D02*
X108080357Y-116528542D01*
X108080357Y-116528542D02*
X108151785Y-116385685D01*
X108151785Y-116385685D02*
X108223214Y-116314257D01*
X108223214Y-116314257D02*
X108366071Y-116242828D01*
X108366071Y-116242828D02*
X108651785Y-116242828D01*
X108651785Y-116242828D02*
X108794643Y-116314257D01*
X108794643Y-116314257D02*
X108866071Y-116385685D01*
X108866071Y-116385685D02*
X108937500Y-116528542D01*
X108937500Y-116528542D02*
X108937500Y-116599971D01*
X108937500Y-116599971D02*
X108866071Y-116742828D01*
X108866071Y-116742828D02*
X108794643Y-116814257D01*
X108794643Y-116814257D02*
X108651785Y-116885685D01*
X108651785Y-116885685D02*
X108366071Y-116885685D01*
X108366071Y-116885685D02*
X108223214Y-116957114D01*
X108223214Y-116957114D02*
X108151785Y-117028542D01*
X108151785Y-117028542D02*
X108080357Y-117171400D01*
X108080357Y-117171400D02*
X108080357Y-117457114D01*
X108080357Y-117457114D02*
X108151785Y-117599971D01*
X108151785Y-117599971D02*
X108223214Y-117671400D01*
X108223214Y-117671400D02*
X108366071Y-117742828D01*
X108366071Y-117742828D02*
X108651785Y-117742828D01*
X108651785Y-117742828D02*
X108794643Y-117671400D01*
X108794643Y-117671400D02*
X108866071Y-117599971D01*
X108866071Y-117599971D02*
X108937500Y-117457114D01*
X108937500Y-117457114D02*
X108937500Y-117171400D01*
X108937500Y-117171400D02*
X108866071Y-117028542D01*
X108866071Y-117028542D02*
X108794643Y-116957114D01*
X108794643Y-116957114D02*
X108651785Y-116885685D01*
X110723213Y-117171400D02*
X111866071Y-117171400D01*
X113508928Y-116242828D02*
X114008928Y-117742828D01*
X114008928Y-117742828D02*
X114508928Y-116242828D01*
X114937499Y-116385685D02*
X115008927Y-116314257D01*
X115008927Y-116314257D02*
X115151785Y-116242828D01*
X115151785Y-116242828D02*
X115508927Y-116242828D01*
X115508927Y-116242828D02*
X115651785Y-116314257D01*
X115651785Y-116314257D02*
X115723213Y-116385685D01*
X115723213Y-116385685D02*
X115794642Y-116528542D01*
X115794642Y-116528542D02*
X115794642Y-116671400D01*
X115794642Y-116671400D02*
X115723213Y-116885685D01*
X115723213Y-116885685D02*
X114866070Y-117742828D01*
X114866070Y-117742828D02*
X115794642Y-117742828D01*
X116437498Y-117599971D02*
X116508927Y-117671400D01*
X116508927Y-117671400D02*
X116437498Y-117742828D01*
X116437498Y-117742828D02*
X116366070Y-117671400D01*
X116366070Y-117671400D02*
X116437498Y-117599971D01*
X116437498Y-117599971D02*
X116437498Y-117742828D01*
X117437499Y-116242828D02*
X117580356Y-116242828D01*
X117580356Y-116242828D02*
X117723213Y-116314257D01*
X117723213Y-116314257D02*
X117794642Y-116385685D01*
X117794642Y-116385685D02*
X117866070Y-116528542D01*
X117866070Y-116528542D02*
X117937499Y-116814257D01*
X117937499Y-116814257D02*
X117937499Y-117171400D01*
X117937499Y-117171400D02*
X117866070Y-117457114D01*
X117866070Y-117457114D02*
X117794642Y-117599971D01*
X117794642Y-117599971D02*
X117723213Y-117671400D01*
X117723213Y-117671400D02*
X117580356Y-117742828D01*
X117580356Y-117742828D02*
X117437499Y-117742828D01*
X117437499Y-117742828D02*
X117294642Y-117671400D01*
X117294642Y-117671400D02*
X117223213Y-117599971D01*
X117223213Y-117599971D02*
X117151784Y-117457114D01*
X117151784Y-117457114D02*
X117080356Y-117171400D01*
X117080356Y-117171400D02*
X117080356Y-116814257D01*
X117080356Y-116814257D02*
X117151784Y-116528542D01*
X117151784Y-116528542D02*
X117223213Y-116385685D01*
X117223213Y-116385685D02*
X117294642Y-116314257D01*
X117294642Y-116314257D02*
X117437499Y-116242828D01*
D12*
X124210476Y-61564169D02*
X124210476Y-62278454D01*
X124210476Y-62278454D02*
X124162857Y-62421311D01*
X124162857Y-62421311D02*
X124067619Y-62516550D01*
X124067619Y-62516550D02*
X123924762Y-62564169D01*
X123924762Y-62564169D02*
X123829524Y-62564169D01*
X125210476Y-62564169D02*
X124639048Y-62564169D01*
X124924762Y-62564169D02*
X124924762Y-61564169D01*
X124924762Y-61564169D02*
X124829524Y-61707026D01*
X124829524Y-61707026D02*
X124734286Y-61802264D01*
X124734286Y-61802264D02*
X124639048Y-61849883D01*
X125829524Y-61564169D02*
X125924762Y-61564169D01*
X125924762Y-61564169D02*
X126020000Y-61611788D01*
X126020000Y-61611788D02*
X126067619Y-61659407D01*
X126067619Y-61659407D02*
X126115238Y-61754645D01*
X126115238Y-61754645D02*
X126162857Y-61945121D01*
X126162857Y-61945121D02*
X126162857Y-62183216D01*
X126162857Y-62183216D02*
X126115238Y-62373692D01*
X126115238Y-62373692D02*
X126067619Y-62468930D01*
X126067619Y-62468930D02*
X126020000Y-62516550D01*
X126020000Y-62516550D02*
X125924762Y-62564169D01*
X125924762Y-62564169D02*
X125829524Y-62564169D01*
X125829524Y-62564169D02*
X125734286Y-62516550D01*
X125734286Y-62516550D02*
X125686667Y-62468930D01*
X125686667Y-62468930D02*
X125639048Y-62373692D01*
X125639048Y-62373692D02*
X125591429Y-62183216D01*
X125591429Y-62183216D02*
X125591429Y-61945121D01*
X125591429Y-61945121D02*
X125639048Y-61754645D01*
X125639048Y-61754645D02*
X125686667Y-61659407D01*
X125686667Y-61659407D02*
X125734286Y-61611788D01*
X125734286Y-61611788D02*
X125829524Y-61564169D01*
X126325333Y-77575580D02*
X126277714Y-77623200D01*
X126277714Y-77623200D02*
X126134857Y-77670819D01*
X126134857Y-77670819D02*
X126039619Y-77670819D01*
X126039619Y-77670819D02*
X125896762Y-77623200D01*
X125896762Y-77623200D02*
X125801524Y-77527961D01*
X125801524Y-77527961D02*
X125753905Y-77432723D01*
X125753905Y-77432723D02*
X125706286Y-77242247D01*
X125706286Y-77242247D02*
X125706286Y-77099390D01*
X125706286Y-77099390D02*
X125753905Y-76908914D01*
X125753905Y-76908914D02*
X125801524Y-76813676D01*
X125801524Y-76813676D02*
X125896762Y-76718438D01*
X125896762Y-76718438D02*
X126039619Y-76670819D01*
X126039619Y-76670819D02*
X126134857Y-76670819D01*
X126134857Y-76670819D02*
X126277714Y-76718438D01*
X126277714Y-76718438D02*
X126325333Y-76766057D01*
X126801524Y-77670819D02*
X126992000Y-77670819D01*
X126992000Y-77670819D02*
X127087238Y-77623200D01*
X127087238Y-77623200D02*
X127134857Y-77575580D01*
X127134857Y-77575580D02*
X127230095Y-77432723D01*
X127230095Y-77432723D02*
X127277714Y-77242247D01*
X127277714Y-77242247D02*
X127277714Y-76861295D01*
X127277714Y-76861295D02*
X127230095Y-76766057D01*
X127230095Y-76766057D02*
X127182476Y-76718438D01*
X127182476Y-76718438D02*
X127087238Y-76670819D01*
X127087238Y-76670819D02*
X126896762Y-76670819D01*
X126896762Y-76670819D02*
X126801524Y-76718438D01*
X126801524Y-76718438D02*
X126753905Y-76766057D01*
X126753905Y-76766057D02*
X126706286Y-76861295D01*
X126706286Y-76861295D02*
X126706286Y-77099390D01*
X126706286Y-77099390D02*
X126753905Y-77194628D01*
X126753905Y-77194628D02*
X126801524Y-77242247D01*
X126801524Y-77242247D02*
X126896762Y-77289866D01*
X126896762Y-77289866D02*
X127087238Y-77289866D01*
X127087238Y-77289866D02*
X127182476Y-77242247D01*
X127182476Y-77242247D02*
X127230095Y-77194628D01*
X127230095Y-77194628D02*
X127277714Y-77099390D01*
X129023266Y-61564169D02*
X129023266Y-62278454D01*
X129023266Y-62278454D02*
X128975647Y-62421311D01*
X128975647Y-62421311D02*
X128880409Y-62516550D01*
X128880409Y-62516550D02*
X128737552Y-62564169D01*
X128737552Y-62564169D02*
X128642314Y-62564169D01*
X129547076Y-62564169D02*
X129737552Y-62564169D01*
X129737552Y-62564169D02*
X129832790Y-62516550D01*
X129832790Y-62516550D02*
X129880409Y-62468930D01*
X129880409Y-62468930D02*
X129975647Y-62326073D01*
X129975647Y-62326073D02*
X130023266Y-62135597D01*
X130023266Y-62135597D02*
X130023266Y-61754645D01*
X130023266Y-61754645D02*
X129975647Y-61659407D01*
X129975647Y-61659407D02*
X129928028Y-61611788D01*
X129928028Y-61611788D02*
X129832790Y-61564169D01*
X129832790Y-61564169D02*
X129642314Y-61564169D01*
X129642314Y-61564169D02*
X129547076Y-61611788D01*
X129547076Y-61611788D02*
X129499457Y-61659407D01*
X129499457Y-61659407D02*
X129451838Y-61754645D01*
X129451838Y-61754645D02*
X129451838Y-61992740D01*
X129451838Y-61992740D02*
X129499457Y-62087978D01*
X129499457Y-62087978D02*
X129547076Y-62135597D01*
X129547076Y-62135597D02*
X129642314Y-62183216D01*
X129642314Y-62183216D02*
X129832790Y-62183216D01*
X129832790Y-62183216D02*
X129928028Y-62135597D01*
X129928028Y-62135597D02*
X129975647Y-62087978D01*
X129975647Y-62087978D02*
X130023266Y-61992740D01*
D13*
X146986666Y-111852419D02*
X146986666Y-112566704D01*
X146986666Y-112566704D02*
X146939047Y-112709561D01*
X146939047Y-112709561D02*
X146843809Y-112804800D01*
X146843809Y-112804800D02*
X146700952Y-112852419D01*
X146700952Y-112852419D02*
X146605714Y-112852419D01*
X147367619Y-111852419D02*
X148034285Y-111852419D01*
X148034285Y-111852419D02*
X147605714Y-112852419D01*
D12*
X229830333Y-108309580D02*
X229782714Y-108357200D01*
X229782714Y-108357200D02*
X229639857Y-108404819D01*
X229639857Y-108404819D02*
X229544619Y-108404819D01*
X229544619Y-108404819D02*
X229401762Y-108357200D01*
X229401762Y-108357200D02*
X229306524Y-108261961D01*
X229306524Y-108261961D02*
X229258905Y-108166723D01*
X229258905Y-108166723D02*
X229211286Y-107976247D01*
X229211286Y-107976247D02*
X229211286Y-107833390D01*
X229211286Y-107833390D02*
X229258905Y-107642914D01*
X229258905Y-107642914D02*
X229306524Y-107547676D01*
X229306524Y-107547676D02*
X229401762Y-107452438D01*
X229401762Y-107452438D02*
X229544619Y-107404819D01*
X229544619Y-107404819D02*
X229639857Y-107404819D01*
X229639857Y-107404819D02*
X229782714Y-107452438D01*
X229782714Y-107452438D02*
X229830333Y-107500057D01*
X230782714Y-108404819D02*
X230211286Y-108404819D01*
X230497000Y-108404819D02*
X230497000Y-107404819D01*
X230497000Y-107404819D02*
X230401762Y-107547676D01*
X230401762Y-107547676D02*
X230306524Y-107642914D01*
X230306524Y-107642914D02*
X230211286Y-107690533D01*
X113371333Y-76146819D02*
X113038000Y-75670628D01*
X112799905Y-76146819D02*
X112799905Y-75146819D01*
X112799905Y-75146819D02*
X113180857Y-75146819D01*
X113180857Y-75146819D02*
X113276095Y-75194438D01*
X113276095Y-75194438D02*
X113323714Y-75242057D01*
X113323714Y-75242057D02*
X113371333Y-75337295D01*
X113371333Y-75337295D02*
X113371333Y-75480152D01*
X113371333Y-75480152D02*
X113323714Y-75575390D01*
X113323714Y-75575390D02*
X113276095Y-75623009D01*
X113276095Y-75623009D02*
X113180857Y-75670628D01*
X113180857Y-75670628D02*
X112799905Y-75670628D01*
X113847524Y-76146819D02*
X114038000Y-76146819D01*
X114038000Y-76146819D02*
X114133238Y-76099200D01*
X114133238Y-76099200D02*
X114180857Y-76051580D01*
X114180857Y-76051580D02*
X114276095Y-75908723D01*
X114276095Y-75908723D02*
X114323714Y-75718247D01*
X114323714Y-75718247D02*
X114323714Y-75337295D01*
X114323714Y-75337295D02*
X114276095Y-75242057D01*
X114276095Y-75242057D02*
X114228476Y-75194438D01*
X114228476Y-75194438D02*
X114133238Y-75146819D01*
X114133238Y-75146819D02*
X113942762Y-75146819D01*
X113942762Y-75146819D02*
X113847524Y-75194438D01*
X113847524Y-75194438D02*
X113799905Y-75242057D01*
X113799905Y-75242057D02*
X113752286Y-75337295D01*
X113752286Y-75337295D02*
X113752286Y-75575390D01*
X113752286Y-75575390D02*
X113799905Y-75670628D01*
X113799905Y-75670628D02*
X113847524Y-75718247D01*
X113847524Y-75718247D02*
X113942762Y-75765866D01*
X113942762Y-75765866D02*
X114133238Y-75765866D01*
X114133238Y-75765866D02*
X114228476Y-75718247D01*
X114228476Y-75718247D02*
X114276095Y-75670628D01*
X114276095Y-75670628D02*
X114323714Y-75575390D01*
D13*
X187833095Y-95342419D02*
X187833095Y-96151942D01*
X187833095Y-96151942D02*
X187880714Y-96247180D01*
X187880714Y-96247180D02*
X187928333Y-96294800D01*
X187928333Y-96294800D02*
X188023571Y-96342419D01*
X188023571Y-96342419D02*
X188214047Y-96342419D01*
X188214047Y-96342419D02*
X188309285Y-96294800D01*
X188309285Y-96294800D02*
X188356904Y-96247180D01*
X188356904Y-96247180D02*
X188404523Y-96151942D01*
X188404523Y-96151942D02*
X188404523Y-95342419D01*
X189309285Y-95675752D02*
X189309285Y-96342419D01*
X189071190Y-95294800D02*
X188833095Y-96009085D01*
X188833095Y-96009085D02*
X189452142Y-96009085D01*
D12*
X127722333Y-91259819D02*
X127389000Y-90783628D01*
X127150905Y-91259819D02*
X127150905Y-90259819D01*
X127150905Y-90259819D02*
X127531857Y-90259819D01*
X127531857Y-90259819D02*
X127627095Y-90307438D01*
X127627095Y-90307438D02*
X127674714Y-90355057D01*
X127674714Y-90355057D02*
X127722333Y-90450295D01*
X127722333Y-90450295D02*
X127722333Y-90593152D01*
X127722333Y-90593152D02*
X127674714Y-90688390D01*
X127674714Y-90688390D02*
X127627095Y-90736009D01*
X127627095Y-90736009D02*
X127531857Y-90783628D01*
X127531857Y-90783628D02*
X127150905Y-90783628D01*
X128293762Y-90688390D02*
X128198524Y-90640771D01*
X128198524Y-90640771D02*
X128150905Y-90593152D01*
X128150905Y-90593152D02*
X128103286Y-90497914D01*
X128103286Y-90497914D02*
X128103286Y-90450295D01*
X128103286Y-90450295D02*
X128150905Y-90355057D01*
X128150905Y-90355057D02*
X128198524Y-90307438D01*
X128198524Y-90307438D02*
X128293762Y-90259819D01*
X128293762Y-90259819D02*
X128484238Y-90259819D01*
X128484238Y-90259819D02*
X128579476Y-90307438D01*
X128579476Y-90307438D02*
X128627095Y-90355057D01*
X128627095Y-90355057D02*
X128674714Y-90450295D01*
X128674714Y-90450295D02*
X128674714Y-90497914D01*
X128674714Y-90497914D02*
X128627095Y-90593152D01*
X128627095Y-90593152D02*
X128579476Y-90640771D01*
X128579476Y-90640771D02*
X128484238Y-90688390D01*
X128484238Y-90688390D02*
X128293762Y-90688390D01*
X128293762Y-90688390D02*
X128198524Y-90736009D01*
X128198524Y-90736009D02*
X128150905Y-90783628D01*
X128150905Y-90783628D02*
X128103286Y-90878866D01*
X128103286Y-90878866D02*
X128103286Y-91069342D01*
X128103286Y-91069342D02*
X128150905Y-91164580D01*
X128150905Y-91164580D02*
X128198524Y-91212200D01*
X128198524Y-91212200D02*
X128293762Y-91259819D01*
X128293762Y-91259819D02*
X128484238Y-91259819D01*
X128484238Y-91259819D02*
X128579476Y-91212200D01*
X128579476Y-91212200D02*
X128627095Y-91164580D01*
X128627095Y-91164580D02*
X128674714Y-91069342D01*
X128674714Y-91069342D02*
X128674714Y-90878866D01*
X128674714Y-90878866D02*
X128627095Y-90783628D01*
X128627095Y-90783628D02*
X128579476Y-90736009D01*
X128579476Y-90736009D02*
X128484238Y-90688390D01*
X253825476Y-64224819D02*
X253825476Y-64939104D01*
X253825476Y-64939104D02*
X253777857Y-65081961D01*
X253777857Y-65081961D02*
X253682619Y-65177200D01*
X253682619Y-65177200D02*
X253539762Y-65224819D01*
X253539762Y-65224819D02*
X253444524Y-65224819D01*
X254825476Y-65224819D02*
X254254048Y-65224819D01*
X254539762Y-65224819D02*
X254539762Y-64224819D01*
X254539762Y-64224819D02*
X254444524Y-64367676D01*
X254444524Y-64367676D02*
X254349286Y-64462914D01*
X254349286Y-64462914D02*
X254254048Y-64510533D01*
X255777857Y-65224819D02*
X255206429Y-65224819D01*
X255492143Y-65224819D02*
X255492143Y-64224819D01*
X255492143Y-64224819D02*
X255396905Y-64367676D01*
X255396905Y-64367676D02*
X255301667Y-64462914D01*
X255301667Y-64462914D02*
X255206429Y-64510533D01*
X173950333Y-108309580D02*
X173902714Y-108357200D01*
X173902714Y-108357200D02*
X173759857Y-108404819D01*
X173759857Y-108404819D02*
X173664619Y-108404819D01*
X173664619Y-108404819D02*
X173521762Y-108357200D01*
X173521762Y-108357200D02*
X173426524Y-108261961D01*
X173426524Y-108261961D02*
X173378905Y-108166723D01*
X173378905Y-108166723D02*
X173331286Y-107976247D01*
X173331286Y-107976247D02*
X173331286Y-107833390D01*
X173331286Y-107833390D02*
X173378905Y-107642914D01*
X173378905Y-107642914D02*
X173426524Y-107547676D01*
X173426524Y-107547676D02*
X173521762Y-107452438D01*
X173521762Y-107452438D02*
X173664619Y-107404819D01*
X173664619Y-107404819D02*
X173759857Y-107404819D01*
X173759857Y-107404819D02*
X173902714Y-107452438D01*
X173902714Y-107452438D02*
X173950333Y-107500057D01*
X174855095Y-107404819D02*
X174378905Y-107404819D01*
X174378905Y-107404819D02*
X174331286Y-107881009D01*
X174331286Y-107881009D02*
X174378905Y-107833390D01*
X174378905Y-107833390D02*
X174474143Y-107785771D01*
X174474143Y-107785771D02*
X174712238Y-107785771D01*
X174712238Y-107785771D02*
X174807476Y-107833390D01*
X174807476Y-107833390D02*
X174855095Y-107881009D01*
X174855095Y-107881009D02*
X174902714Y-107976247D01*
X174902714Y-107976247D02*
X174902714Y-108214342D01*
X174902714Y-108214342D02*
X174855095Y-108309580D01*
X174855095Y-108309580D02*
X174807476Y-108357200D01*
X174807476Y-108357200D02*
X174712238Y-108404819D01*
X174712238Y-108404819D02*
X174474143Y-108404819D01*
X174474143Y-108404819D02*
X174378905Y-108357200D01*
X174378905Y-108357200D02*
X174331286Y-108309580D01*
X146010333Y-108309580D02*
X145962714Y-108357200D01*
X145962714Y-108357200D02*
X145819857Y-108404819D01*
X145819857Y-108404819D02*
X145724619Y-108404819D01*
X145724619Y-108404819D02*
X145581762Y-108357200D01*
X145581762Y-108357200D02*
X145486524Y-108261961D01*
X145486524Y-108261961D02*
X145438905Y-108166723D01*
X145438905Y-108166723D02*
X145391286Y-107976247D01*
X145391286Y-107976247D02*
X145391286Y-107833390D01*
X145391286Y-107833390D02*
X145438905Y-107642914D01*
X145438905Y-107642914D02*
X145486524Y-107547676D01*
X145486524Y-107547676D02*
X145581762Y-107452438D01*
X145581762Y-107452438D02*
X145724619Y-107404819D01*
X145724619Y-107404819D02*
X145819857Y-107404819D01*
X145819857Y-107404819D02*
X145962714Y-107452438D01*
X145962714Y-107452438D02*
X146010333Y-107500057D01*
X146343667Y-107404819D02*
X147010333Y-107404819D01*
X147010333Y-107404819D02*
X146581762Y-108404819D01*
D13*
X174926666Y-111852419D02*
X174926666Y-112566704D01*
X174926666Y-112566704D02*
X174879047Y-112709561D01*
X174879047Y-112709561D02*
X174783809Y-112804800D01*
X174783809Y-112804800D02*
X174640952Y-112852419D01*
X174640952Y-112852419D02*
X174545714Y-112852419D01*
X175879047Y-111852419D02*
X175402857Y-111852419D01*
X175402857Y-111852419D02*
X175355238Y-112328609D01*
X175355238Y-112328609D02*
X175402857Y-112280990D01*
X175402857Y-112280990D02*
X175498095Y-112233371D01*
X175498095Y-112233371D02*
X175736190Y-112233371D01*
X175736190Y-112233371D02*
X175831428Y-112280990D01*
X175831428Y-112280990D02*
X175879047Y-112328609D01*
X175879047Y-112328609D02*
X175926666Y-112423847D01*
X175926666Y-112423847D02*
X175926666Y-112661942D01*
X175926666Y-112661942D02*
X175879047Y-112757180D01*
X175879047Y-112757180D02*
X175831428Y-112804800D01*
X175831428Y-112804800D02*
X175736190Y-112852419D01*
X175736190Y-112852419D02*
X175498095Y-112852419D01*
X175498095Y-112852419D02*
X175402857Y-112804800D01*
X175402857Y-112804800D02*
X175355238Y-112757180D01*
D12*
X187920333Y-108309580D02*
X187872714Y-108357200D01*
X187872714Y-108357200D02*
X187729857Y-108404819D01*
X187729857Y-108404819D02*
X187634619Y-108404819D01*
X187634619Y-108404819D02*
X187491762Y-108357200D01*
X187491762Y-108357200D02*
X187396524Y-108261961D01*
X187396524Y-108261961D02*
X187348905Y-108166723D01*
X187348905Y-108166723D02*
X187301286Y-107976247D01*
X187301286Y-107976247D02*
X187301286Y-107833390D01*
X187301286Y-107833390D02*
X187348905Y-107642914D01*
X187348905Y-107642914D02*
X187396524Y-107547676D01*
X187396524Y-107547676D02*
X187491762Y-107452438D01*
X187491762Y-107452438D02*
X187634619Y-107404819D01*
X187634619Y-107404819D02*
X187729857Y-107404819D01*
X187729857Y-107404819D02*
X187872714Y-107452438D01*
X187872714Y-107452438D02*
X187920333Y-107500057D01*
X188777476Y-107738152D02*
X188777476Y-108404819D01*
X188539381Y-107357200D02*
X188301286Y-108071485D01*
X188301286Y-108071485D02*
X188920333Y-108071485D01*
X183602333Y-91259819D02*
X183269000Y-90783628D01*
X183030905Y-91259819D02*
X183030905Y-90259819D01*
X183030905Y-90259819D02*
X183411857Y-90259819D01*
X183411857Y-90259819D02*
X183507095Y-90307438D01*
X183507095Y-90307438D02*
X183554714Y-90355057D01*
X183554714Y-90355057D02*
X183602333Y-90450295D01*
X183602333Y-90450295D02*
X183602333Y-90593152D01*
X183602333Y-90593152D02*
X183554714Y-90688390D01*
X183554714Y-90688390D02*
X183507095Y-90736009D01*
X183507095Y-90736009D02*
X183411857Y-90783628D01*
X183411857Y-90783628D02*
X183030905Y-90783628D01*
X184459476Y-90593152D02*
X184459476Y-91259819D01*
X184221381Y-90212200D02*
X183983286Y-90926485D01*
X183983286Y-90926485D02*
X184602333Y-90926485D01*
D13*
X133016666Y-111852419D02*
X133016666Y-112566704D01*
X133016666Y-112566704D02*
X132969047Y-112709561D01*
X132969047Y-112709561D02*
X132873809Y-112804800D01*
X132873809Y-112804800D02*
X132730952Y-112852419D01*
X132730952Y-112852419D02*
X132635714Y-112852419D01*
X133635714Y-112280990D02*
X133540476Y-112233371D01*
X133540476Y-112233371D02*
X133492857Y-112185752D01*
X133492857Y-112185752D02*
X133445238Y-112090514D01*
X133445238Y-112090514D02*
X133445238Y-112042895D01*
X133445238Y-112042895D02*
X133492857Y-111947657D01*
X133492857Y-111947657D02*
X133540476Y-111900038D01*
X133540476Y-111900038D02*
X133635714Y-111852419D01*
X133635714Y-111852419D02*
X133826190Y-111852419D01*
X133826190Y-111852419D02*
X133921428Y-111900038D01*
X133921428Y-111900038D02*
X133969047Y-111947657D01*
X133969047Y-111947657D02*
X134016666Y-112042895D01*
X134016666Y-112042895D02*
X134016666Y-112090514D01*
X134016666Y-112090514D02*
X133969047Y-112185752D01*
X133969047Y-112185752D02*
X133921428Y-112233371D01*
X133921428Y-112233371D02*
X133826190Y-112280990D01*
X133826190Y-112280990D02*
X133635714Y-112280990D01*
X133635714Y-112280990D02*
X133540476Y-112328609D01*
X133540476Y-112328609D02*
X133492857Y-112376228D01*
X133492857Y-112376228D02*
X133445238Y-112471466D01*
X133445238Y-112471466D02*
X133445238Y-112661942D01*
X133445238Y-112661942D02*
X133492857Y-112757180D01*
X133492857Y-112757180D02*
X133540476Y-112804800D01*
X133540476Y-112804800D02*
X133635714Y-112852419D01*
X133635714Y-112852419D02*
X133826190Y-112852419D01*
X133826190Y-112852419D02*
X133921428Y-112804800D01*
X133921428Y-112804800D02*
X133969047Y-112757180D01*
X133969047Y-112757180D02*
X134016666Y-112661942D01*
X134016666Y-112661942D02*
X134016666Y-112471466D01*
X134016666Y-112471466D02*
X133969047Y-112376228D01*
X133969047Y-112376228D02*
X133921428Y-112328609D01*
X133921428Y-112328609D02*
X133826190Y-112280990D01*
X202866666Y-111852419D02*
X202866666Y-112566704D01*
X202866666Y-112566704D02*
X202819047Y-112709561D01*
X202819047Y-112709561D02*
X202723809Y-112804800D01*
X202723809Y-112804800D02*
X202580952Y-112852419D01*
X202580952Y-112852419D02*
X202485714Y-112852419D01*
X203247619Y-111852419D02*
X203866666Y-111852419D01*
X203866666Y-111852419D02*
X203533333Y-112233371D01*
X203533333Y-112233371D02*
X203676190Y-112233371D01*
X203676190Y-112233371D02*
X203771428Y-112280990D01*
X203771428Y-112280990D02*
X203819047Y-112328609D01*
X203819047Y-112328609D02*
X203866666Y-112423847D01*
X203866666Y-112423847D02*
X203866666Y-112661942D01*
X203866666Y-112661942D02*
X203819047Y-112757180D01*
X203819047Y-112757180D02*
X203771428Y-112804800D01*
X203771428Y-112804800D02*
X203676190Y-112852419D01*
X203676190Y-112852419D02*
X203390476Y-112852419D01*
X203390476Y-112852419D02*
X203295238Y-112804800D01*
X203295238Y-112804800D02*
X203247619Y-112757180D01*
X201803095Y-95342419D02*
X201803095Y-96151942D01*
X201803095Y-96151942D02*
X201850714Y-96247180D01*
X201850714Y-96247180D02*
X201898333Y-96294800D01*
X201898333Y-96294800D02*
X201993571Y-96342419D01*
X201993571Y-96342419D02*
X202184047Y-96342419D01*
X202184047Y-96342419D02*
X202279285Y-96294800D01*
X202279285Y-96294800D02*
X202326904Y-96247180D01*
X202326904Y-96247180D02*
X202374523Y-96151942D01*
X202374523Y-96151942D02*
X202374523Y-95342419D01*
X202755476Y-95342419D02*
X203374523Y-95342419D01*
X203374523Y-95342419D02*
X203041190Y-95723371D01*
X203041190Y-95723371D02*
X203184047Y-95723371D01*
X203184047Y-95723371D02*
X203279285Y-95770990D01*
X203279285Y-95770990D02*
X203326904Y-95818609D01*
X203326904Y-95818609D02*
X203374523Y-95913847D01*
X203374523Y-95913847D02*
X203374523Y-96151942D01*
X203374523Y-96151942D02*
X203326904Y-96247180D01*
X203326904Y-96247180D02*
X203279285Y-96294800D01*
X203279285Y-96294800D02*
X203184047Y-96342419D01*
X203184047Y-96342419D02*
X202898333Y-96342419D01*
X202898333Y-96342419D02*
X202803095Y-96294800D01*
X202803095Y-96294800D02*
X202755476Y-96247180D01*
D12*
X159980333Y-108309580D02*
X159932714Y-108357200D01*
X159932714Y-108357200D02*
X159789857Y-108404819D01*
X159789857Y-108404819D02*
X159694619Y-108404819D01*
X159694619Y-108404819D02*
X159551762Y-108357200D01*
X159551762Y-108357200D02*
X159456524Y-108261961D01*
X159456524Y-108261961D02*
X159408905Y-108166723D01*
X159408905Y-108166723D02*
X159361286Y-107976247D01*
X159361286Y-107976247D02*
X159361286Y-107833390D01*
X159361286Y-107833390D02*
X159408905Y-107642914D01*
X159408905Y-107642914D02*
X159456524Y-107547676D01*
X159456524Y-107547676D02*
X159551762Y-107452438D01*
X159551762Y-107452438D02*
X159694619Y-107404819D01*
X159694619Y-107404819D02*
X159789857Y-107404819D01*
X159789857Y-107404819D02*
X159932714Y-107452438D01*
X159932714Y-107452438D02*
X159980333Y-107500057D01*
X160837476Y-107404819D02*
X160647000Y-107404819D01*
X160647000Y-107404819D02*
X160551762Y-107452438D01*
X160551762Y-107452438D02*
X160504143Y-107500057D01*
X160504143Y-107500057D02*
X160408905Y-107642914D01*
X160408905Y-107642914D02*
X160361286Y-107833390D01*
X160361286Y-107833390D02*
X160361286Y-108214342D01*
X160361286Y-108214342D02*
X160408905Y-108309580D01*
X160408905Y-108309580D02*
X160456524Y-108357200D01*
X160456524Y-108357200D02*
X160551762Y-108404819D01*
X160551762Y-108404819D02*
X160742238Y-108404819D01*
X160742238Y-108404819D02*
X160837476Y-108357200D01*
X160837476Y-108357200D02*
X160885095Y-108309580D01*
X160885095Y-108309580D02*
X160932714Y-108214342D01*
X160932714Y-108214342D02*
X160932714Y-107976247D01*
X160932714Y-107976247D02*
X160885095Y-107881009D01*
X160885095Y-107881009D02*
X160837476Y-107833390D01*
X160837476Y-107833390D02*
X160742238Y-107785771D01*
X160742238Y-107785771D02*
X160551762Y-107785771D01*
X160551762Y-107785771D02*
X160456524Y-107833390D01*
X160456524Y-107833390D02*
X160408905Y-107881009D01*
X160408905Y-107881009D02*
X160361286Y-107976247D01*
D13*
X131953095Y-95342419D02*
X131953095Y-96151942D01*
X131953095Y-96151942D02*
X132000714Y-96247180D01*
X132000714Y-96247180D02*
X132048333Y-96294800D01*
X132048333Y-96294800D02*
X132143571Y-96342419D01*
X132143571Y-96342419D02*
X132334047Y-96342419D01*
X132334047Y-96342419D02*
X132429285Y-96294800D01*
X132429285Y-96294800D02*
X132476904Y-96247180D01*
X132476904Y-96247180D02*
X132524523Y-96151942D01*
X132524523Y-96151942D02*
X132524523Y-95342419D01*
X133143571Y-95770990D02*
X133048333Y-95723371D01*
X133048333Y-95723371D02*
X133000714Y-95675752D01*
X133000714Y-95675752D02*
X132953095Y-95580514D01*
X132953095Y-95580514D02*
X132953095Y-95532895D01*
X132953095Y-95532895D02*
X133000714Y-95437657D01*
X133000714Y-95437657D02*
X133048333Y-95390038D01*
X133048333Y-95390038D02*
X133143571Y-95342419D01*
X133143571Y-95342419D02*
X133334047Y-95342419D01*
X133334047Y-95342419D02*
X133429285Y-95390038D01*
X133429285Y-95390038D02*
X133476904Y-95437657D01*
X133476904Y-95437657D02*
X133524523Y-95532895D01*
X133524523Y-95532895D02*
X133524523Y-95580514D01*
X133524523Y-95580514D02*
X133476904Y-95675752D01*
X133476904Y-95675752D02*
X133429285Y-95723371D01*
X133429285Y-95723371D02*
X133334047Y-95770990D01*
X133334047Y-95770990D02*
X133143571Y-95770990D01*
X133143571Y-95770990D02*
X133048333Y-95818609D01*
X133048333Y-95818609D02*
X133000714Y-95866228D01*
X133000714Y-95866228D02*
X132953095Y-95961466D01*
X132953095Y-95961466D02*
X132953095Y-96151942D01*
X132953095Y-96151942D02*
X133000714Y-96247180D01*
X133000714Y-96247180D02*
X133048333Y-96294800D01*
X133048333Y-96294800D02*
X133143571Y-96342419D01*
X133143571Y-96342419D02*
X133334047Y-96342419D01*
X133334047Y-96342419D02*
X133429285Y-96294800D01*
X133429285Y-96294800D02*
X133476904Y-96247180D01*
X133476904Y-96247180D02*
X133524523Y-96151942D01*
X133524523Y-96151942D02*
X133524523Y-95961466D01*
X133524523Y-95961466D02*
X133476904Y-95866228D01*
X133476904Y-95866228D02*
X133429285Y-95818609D01*
X133429285Y-95818609D02*
X133334047Y-95770990D01*
X216836666Y-111852419D02*
X216836666Y-112566704D01*
X216836666Y-112566704D02*
X216789047Y-112709561D01*
X216789047Y-112709561D02*
X216693809Y-112804800D01*
X216693809Y-112804800D02*
X216550952Y-112852419D01*
X216550952Y-112852419D02*
X216455714Y-112852419D01*
X217265238Y-111947657D02*
X217312857Y-111900038D01*
X217312857Y-111900038D02*
X217408095Y-111852419D01*
X217408095Y-111852419D02*
X217646190Y-111852419D01*
X217646190Y-111852419D02*
X217741428Y-111900038D01*
X217741428Y-111900038D02*
X217789047Y-111947657D01*
X217789047Y-111947657D02*
X217836666Y-112042895D01*
X217836666Y-112042895D02*
X217836666Y-112138133D01*
X217836666Y-112138133D02*
X217789047Y-112280990D01*
X217789047Y-112280990D02*
X217217619Y-112852419D01*
X217217619Y-112852419D02*
X217836666Y-112852419D01*
D12*
X169632333Y-91259819D02*
X169299000Y-90783628D01*
X169060905Y-91259819D02*
X169060905Y-90259819D01*
X169060905Y-90259819D02*
X169441857Y-90259819D01*
X169441857Y-90259819D02*
X169537095Y-90307438D01*
X169537095Y-90307438D02*
X169584714Y-90355057D01*
X169584714Y-90355057D02*
X169632333Y-90450295D01*
X169632333Y-90450295D02*
X169632333Y-90593152D01*
X169632333Y-90593152D02*
X169584714Y-90688390D01*
X169584714Y-90688390D02*
X169537095Y-90736009D01*
X169537095Y-90736009D02*
X169441857Y-90783628D01*
X169441857Y-90783628D02*
X169060905Y-90783628D01*
X170537095Y-90259819D02*
X170060905Y-90259819D01*
X170060905Y-90259819D02*
X170013286Y-90736009D01*
X170013286Y-90736009D02*
X170060905Y-90688390D01*
X170060905Y-90688390D02*
X170156143Y-90640771D01*
X170156143Y-90640771D02*
X170394238Y-90640771D01*
X170394238Y-90640771D02*
X170489476Y-90688390D01*
X170489476Y-90688390D02*
X170537095Y-90736009D01*
X170537095Y-90736009D02*
X170584714Y-90831247D01*
X170584714Y-90831247D02*
X170584714Y-91069342D01*
X170584714Y-91069342D02*
X170537095Y-91164580D01*
X170537095Y-91164580D02*
X170489476Y-91212200D01*
X170489476Y-91212200D02*
X170394238Y-91259819D01*
X170394238Y-91259819D02*
X170156143Y-91259819D01*
X170156143Y-91259819D02*
X170060905Y-91212200D01*
X170060905Y-91212200D02*
X170013286Y-91164580D01*
D13*
X160956666Y-111852419D02*
X160956666Y-112566704D01*
X160956666Y-112566704D02*
X160909047Y-112709561D01*
X160909047Y-112709561D02*
X160813809Y-112804800D01*
X160813809Y-112804800D02*
X160670952Y-112852419D01*
X160670952Y-112852419D02*
X160575714Y-112852419D01*
X161861428Y-111852419D02*
X161670952Y-111852419D01*
X161670952Y-111852419D02*
X161575714Y-111900038D01*
X161575714Y-111900038D02*
X161528095Y-111947657D01*
X161528095Y-111947657D02*
X161432857Y-112090514D01*
X161432857Y-112090514D02*
X161385238Y-112280990D01*
X161385238Y-112280990D02*
X161385238Y-112661942D01*
X161385238Y-112661942D02*
X161432857Y-112757180D01*
X161432857Y-112757180D02*
X161480476Y-112804800D01*
X161480476Y-112804800D02*
X161575714Y-112852419D01*
X161575714Y-112852419D02*
X161766190Y-112852419D01*
X161766190Y-112852419D02*
X161861428Y-112804800D01*
X161861428Y-112804800D02*
X161909047Y-112757180D01*
X161909047Y-112757180D02*
X161956666Y-112661942D01*
X161956666Y-112661942D02*
X161956666Y-112423847D01*
X161956666Y-112423847D02*
X161909047Y-112328609D01*
X161909047Y-112328609D02*
X161861428Y-112280990D01*
X161861428Y-112280990D02*
X161766190Y-112233371D01*
X161766190Y-112233371D02*
X161575714Y-112233371D01*
X161575714Y-112233371D02*
X161480476Y-112280990D01*
X161480476Y-112280990D02*
X161432857Y-112328609D01*
X161432857Y-112328609D02*
X161385238Y-112423847D01*
X215773095Y-95342419D02*
X215773095Y-96151942D01*
X215773095Y-96151942D02*
X215820714Y-96247180D01*
X215820714Y-96247180D02*
X215868333Y-96294800D01*
X215868333Y-96294800D02*
X215963571Y-96342419D01*
X215963571Y-96342419D02*
X216154047Y-96342419D01*
X216154047Y-96342419D02*
X216249285Y-96294800D01*
X216249285Y-96294800D02*
X216296904Y-96247180D01*
X216296904Y-96247180D02*
X216344523Y-96151942D01*
X216344523Y-96151942D02*
X216344523Y-95342419D01*
X216773095Y-95437657D02*
X216820714Y-95390038D01*
X216820714Y-95390038D02*
X216915952Y-95342419D01*
X216915952Y-95342419D02*
X217154047Y-95342419D01*
X217154047Y-95342419D02*
X217249285Y-95390038D01*
X217249285Y-95390038D02*
X217296904Y-95437657D01*
X217296904Y-95437657D02*
X217344523Y-95532895D01*
X217344523Y-95532895D02*
X217344523Y-95628133D01*
X217344523Y-95628133D02*
X217296904Y-95770990D01*
X217296904Y-95770990D02*
X216725476Y-96342419D01*
X216725476Y-96342419D02*
X217344523Y-96342419D01*
D12*
X201890333Y-108309580D02*
X201842714Y-108357200D01*
X201842714Y-108357200D02*
X201699857Y-108404819D01*
X201699857Y-108404819D02*
X201604619Y-108404819D01*
X201604619Y-108404819D02*
X201461762Y-108357200D01*
X201461762Y-108357200D02*
X201366524Y-108261961D01*
X201366524Y-108261961D02*
X201318905Y-108166723D01*
X201318905Y-108166723D02*
X201271286Y-107976247D01*
X201271286Y-107976247D02*
X201271286Y-107833390D01*
X201271286Y-107833390D02*
X201318905Y-107642914D01*
X201318905Y-107642914D02*
X201366524Y-107547676D01*
X201366524Y-107547676D02*
X201461762Y-107452438D01*
X201461762Y-107452438D02*
X201604619Y-107404819D01*
X201604619Y-107404819D02*
X201699857Y-107404819D01*
X201699857Y-107404819D02*
X201842714Y-107452438D01*
X201842714Y-107452438D02*
X201890333Y-107500057D01*
X202223667Y-107404819D02*
X202842714Y-107404819D01*
X202842714Y-107404819D02*
X202509381Y-107785771D01*
X202509381Y-107785771D02*
X202652238Y-107785771D01*
X202652238Y-107785771D02*
X202747476Y-107833390D01*
X202747476Y-107833390D02*
X202795095Y-107881009D01*
X202795095Y-107881009D02*
X202842714Y-107976247D01*
X202842714Y-107976247D02*
X202842714Y-108214342D01*
X202842714Y-108214342D02*
X202795095Y-108309580D01*
X202795095Y-108309580D02*
X202747476Y-108357200D01*
X202747476Y-108357200D02*
X202652238Y-108404819D01*
X202652238Y-108404819D02*
X202366524Y-108404819D01*
X202366524Y-108404819D02*
X202271286Y-108357200D01*
X202271286Y-108357200D02*
X202223667Y-108309580D01*
X141692333Y-91259819D02*
X141359000Y-90783628D01*
X141120905Y-91259819D02*
X141120905Y-90259819D01*
X141120905Y-90259819D02*
X141501857Y-90259819D01*
X141501857Y-90259819D02*
X141597095Y-90307438D01*
X141597095Y-90307438D02*
X141644714Y-90355057D01*
X141644714Y-90355057D02*
X141692333Y-90450295D01*
X141692333Y-90450295D02*
X141692333Y-90593152D01*
X141692333Y-90593152D02*
X141644714Y-90688390D01*
X141644714Y-90688390D02*
X141597095Y-90736009D01*
X141597095Y-90736009D02*
X141501857Y-90783628D01*
X141501857Y-90783628D02*
X141120905Y-90783628D01*
X142025667Y-90259819D02*
X142692333Y-90259819D01*
X142692333Y-90259819D02*
X142263762Y-91259819D01*
D13*
X173863095Y-95342419D02*
X173863095Y-96151942D01*
X173863095Y-96151942D02*
X173910714Y-96247180D01*
X173910714Y-96247180D02*
X173958333Y-96294800D01*
X173958333Y-96294800D02*
X174053571Y-96342419D01*
X174053571Y-96342419D02*
X174244047Y-96342419D01*
X174244047Y-96342419D02*
X174339285Y-96294800D01*
X174339285Y-96294800D02*
X174386904Y-96247180D01*
X174386904Y-96247180D02*
X174434523Y-96151942D01*
X174434523Y-96151942D02*
X174434523Y-95342419D01*
X175386904Y-95342419D02*
X174910714Y-95342419D01*
X174910714Y-95342419D02*
X174863095Y-95818609D01*
X174863095Y-95818609D02*
X174910714Y-95770990D01*
X174910714Y-95770990D02*
X175005952Y-95723371D01*
X175005952Y-95723371D02*
X175244047Y-95723371D01*
X175244047Y-95723371D02*
X175339285Y-95770990D01*
X175339285Y-95770990D02*
X175386904Y-95818609D01*
X175386904Y-95818609D02*
X175434523Y-95913847D01*
X175434523Y-95913847D02*
X175434523Y-96151942D01*
X175434523Y-96151942D02*
X175386904Y-96247180D01*
X175386904Y-96247180D02*
X175339285Y-96294800D01*
X175339285Y-96294800D02*
X175244047Y-96342419D01*
X175244047Y-96342419D02*
X175005952Y-96342419D01*
X175005952Y-96342419D02*
X174910714Y-96294800D01*
X174910714Y-96294800D02*
X174863095Y-96247180D01*
D12*
X86868095Y-63272200D02*
X87010952Y-63319819D01*
X87010952Y-63319819D02*
X87249047Y-63319819D01*
X87249047Y-63319819D02*
X87344285Y-63272200D01*
X87344285Y-63272200D02*
X87391904Y-63224580D01*
X87391904Y-63224580D02*
X87439523Y-63129342D01*
X87439523Y-63129342D02*
X87439523Y-63034104D01*
X87439523Y-63034104D02*
X87391904Y-62938866D01*
X87391904Y-62938866D02*
X87344285Y-62891247D01*
X87344285Y-62891247D02*
X87249047Y-62843628D01*
X87249047Y-62843628D02*
X87058571Y-62796009D01*
X87058571Y-62796009D02*
X86963333Y-62748390D01*
X86963333Y-62748390D02*
X86915714Y-62700771D01*
X86915714Y-62700771D02*
X86868095Y-62605533D01*
X86868095Y-62605533D02*
X86868095Y-62510295D01*
X86868095Y-62510295D02*
X86915714Y-62415057D01*
X86915714Y-62415057D02*
X86963333Y-62367438D01*
X86963333Y-62367438D02*
X87058571Y-62319819D01*
X87058571Y-62319819D02*
X87296666Y-62319819D01*
X87296666Y-62319819D02*
X87439523Y-62367438D01*
X88391904Y-63319819D02*
X87820476Y-63319819D01*
X88106190Y-63319819D02*
X88106190Y-62319819D01*
X88106190Y-62319819D02*
X88010952Y-62462676D01*
X88010952Y-62462676D02*
X87915714Y-62557914D01*
X87915714Y-62557914D02*
X87820476Y-62605533D01*
D13*
X229743095Y-95342419D02*
X229743095Y-96151942D01*
X229743095Y-96151942D02*
X229790714Y-96247180D01*
X229790714Y-96247180D02*
X229838333Y-96294800D01*
X229838333Y-96294800D02*
X229933571Y-96342419D01*
X229933571Y-96342419D02*
X230124047Y-96342419D01*
X230124047Y-96342419D02*
X230219285Y-96294800D01*
X230219285Y-96294800D02*
X230266904Y-96247180D01*
X230266904Y-96247180D02*
X230314523Y-96151942D01*
X230314523Y-96151942D02*
X230314523Y-95342419D01*
X231314523Y-96342419D02*
X230743095Y-96342419D01*
X231028809Y-96342419D02*
X231028809Y-95342419D01*
X231028809Y-95342419D02*
X230933571Y-95485276D01*
X230933571Y-95485276D02*
X230838333Y-95580514D01*
X230838333Y-95580514D02*
X230743095Y-95628133D01*
D12*
X211542333Y-91259819D02*
X211209000Y-90783628D01*
X210970905Y-91259819D02*
X210970905Y-90259819D01*
X210970905Y-90259819D02*
X211351857Y-90259819D01*
X211351857Y-90259819D02*
X211447095Y-90307438D01*
X211447095Y-90307438D02*
X211494714Y-90355057D01*
X211494714Y-90355057D02*
X211542333Y-90450295D01*
X211542333Y-90450295D02*
X211542333Y-90593152D01*
X211542333Y-90593152D02*
X211494714Y-90688390D01*
X211494714Y-90688390D02*
X211447095Y-90736009D01*
X211447095Y-90736009D02*
X211351857Y-90783628D01*
X211351857Y-90783628D02*
X210970905Y-90783628D01*
X211923286Y-90355057D02*
X211970905Y-90307438D01*
X211970905Y-90307438D02*
X212066143Y-90259819D01*
X212066143Y-90259819D02*
X212304238Y-90259819D01*
X212304238Y-90259819D02*
X212399476Y-90307438D01*
X212399476Y-90307438D02*
X212447095Y-90355057D01*
X212447095Y-90355057D02*
X212494714Y-90450295D01*
X212494714Y-90450295D02*
X212494714Y-90545533D01*
X212494714Y-90545533D02*
X212447095Y-90688390D01*
X212447095Y-90688390D02*
X211875667Y-91259819D01*
X211875667Y-91259819D02*
X212494714Y-91259819D01*
X241331905Y-100165819D02*
X241331905Y-100975342D01*
X241331905Y-100975342D02*
X241379524Y-101070580D01*
X241379524Y-101070580D02*
X241427143Y-101118200D01*
X241427143Y-101118200D02*
X241522381Y-101165819D01*
X241522381Y-101165819D02*
X241712857Y-101165819D01*
X241712857Y-101165819D02*
X241808095Y-101118200D01*
X241808095Y-101118200D02*
X241855714Y-101070580D01*
X241855714Y-101070580D02*
X241903333Y-100975342D01*
X241903333Y-100975342D02*
X241903333Y-100165819D01*
X242903333Y-101165819D02*
X242331905Y-101165819D01*
X242617619Y-101165819D02*
X242617619Y-100165819D01*
X242617619Y-100165819D02*
X242522381Y-100308676D01*
X242522381Y-100308676D02*
X242427143Y-100403914D01*
X242427143Y-100403914D02*
X242331905Y-100451533D01*
X243522381Y-100165819D02*
X243617619Y-100165819D01*
X243617619Y-100165819D02*
X243712857Y-100213438D01*
X243712857Y-100213438D02*
X243760476Y-100261057D01*
X243760476Y-100261057D02*
X243808095Y-100356295D01*
X243808095Y-100356295D02*
X243855714Y-100546771D01*
X243855714Y-100546771D02*
X243855714Y-100784866D01*
X243855714Y-100784866D02*
X243808095Y-100975342D01*
X243808095Y-100975342D02*
X243760476Y-101070580D01*
X243760476Y-101070580D02*
X243712857Y-101118200D01*
X243712857Y-101118200D02*
X243617619Y-101165819D01*
X243617619Y-101165819D02*
X243522381Y-101165819D01*
X243522381Y-101165819D02*
X243427143Y-101118200D01*
X243427143Y-101118200D02*
X243379524Y-101070580D01*
X243379524Y-101070580D02*
X243331905Y-100975342D01*
X243331905Y-100975342D02*
X243284286Y-100784866D01*
X243284286Y-100784866D02*
X243284286Y-100546771D01*
X243284286Y-100546771D02*
X243331905Y-100356295D01*
X243331905Y-100356295D02*
X243379524Y-100261057D01*
X243379524Y-100261057D02*
X243427143Y-100213438D01*
X243427143Y-100213438D02*
X243522381Y-100165819D01*
D13*
X159893095Y-95342419D02*
X159893095Y-96151942D01*
X159893095Y-96151942D02*
X159940714Y-96247180D01*
X159940714Y-96247180D02*
X159988333Y-96294800D01*
X159988333Y-96294800D02*
X160083571Y-96342419D01*
X160083571Y-96342419D02*
X160274047Y-96342419D01*
X160274047Y-96342419D02*
X160369285Y-96294800D01*
X160369285Y-96294800D02*
X160416904Y-96247180D01*
X160416904Y-96247180D02*
X160464523Y-96151942D01*
X160464523Y-96151942D02*
X160464523Y-95342419D01*
X161369285Y-95342419D02*
X161178809Y-95342419D01*
X161178809Y-95342419D02*
X161083571Y-95390038D01*
X161083571Y-95390038D02*
X161035952Y-95437657D01*
X161035952Y-95437657D02*
X160940714Y-95580514D01*
X160940714Y-95580514D02*
X160893095Y-95770990D01*
X160893095Y-95770990D02*
X160893095Y-96151942D01*
X160893095Y-96151942D02*
X160940714Y-96247180D01*
X160940714Y-96247180D02*
X160988333Y-96294800D01*
X160988333Y-96294800D02*
X161083571Y-96342419D01*
X161083571Y-96342419D02*
X161274047Y-96342419D01*
X161274047Y-96342419D02*
X161369285Y-96294800D01*
X161369285Y-96294800D02*
X161416904Y-96247180D01*
X161416904Y-96247180D02*
X161464523Y-96151942D01*
X161464523Y-96151942D02*
X161464523Y-95913847D01*
X161464523Y-95913847D02*
X161416904Y-95818609D01*
X161416904Y-95818609D02*
X161369285Y-95770990D01*
X161369285Y-95770990D02*
X161274047Y-95723371D01*
X161274047Y-95723371D02*
X161083571Y-95723371D01*
X161083571Y-95723371D02*
X160988333Y-95770990D01*
X160988333Y-95770990D02*
X160940714Y-95818609D01*
X160940714Y-95818609D02*
X160893095Y-95913847D01*
X145923095Y-95342419D02*
X145923095Y-96151942D01*
X145923095Y-96151942D02*
X145970714Y-96247180D01*
X145970714Y-96247180D02*
X146018333Y-96294800D01*
X146018333Y-96294800D02*
X146113571Y-96342419D01*
X146113571Y-96342419D02*
X146304047Y-96342419D01*
X146304047Y-96342419D02*
X146399285Y-96294800D01*
X146399285Y-96294800D02*
X146446904Y-96247180D01*
X146446904Y-96247180D02*
X146494523Y-96151942D01*
X146494523Y-96151942D02*
X146494523Y-95342419D01*
X146875476Y-95342419D02*
X147542142Y-95342419D01*
X147542142Y-95342419D02*
X147113571Y-96342419D01*
X230806666Y-111852419D02*
X230806666Y-112566704D01*
X230806666Y-112566704D02*
X230759047Y-112709561D01*
X230759047Y-112709561D02*
X230663809Y-112804800D01*
X230663809Y-112804800D02*
X230520952Y-112852419D01*
X230520952Y-112852419D02*
X230425714Y-112852419D01*
X231806666Y-112852419D02*
X231235238Y-112852419D01*
X231520952Y-112852419D02*
X231520952Y-111852419D01*
X231520952Y-111852419D02*
X231425714Y-111995276D01*
X231425714Y-111995276D02*
X231330476Y-112090514D01*
X231330476Y-112090514D02*
X231235238Y-112138133D01*
D12*
X215860333Y-108309580D02*
X215812714Y-108357200D01*
X215812714Y-108357200D02*
X215669857Y-108404819D01*
X215669857Y-108404819D02*
X215574619Y-108404819D01*
X215574619Y-108404819D02*
X215431762Y-108357200D01*
X215431762Y-108357200D02*
X215336524Y-108261961D01*
X215336524Y-108261961D02*
X215288905Y-108166723D01*
X215288905Y-108166723D02*
X215241286Y-107976247D01*
X215241286Y-107976247D02*
X215241286Y-107833390D01*
X215241286Y-107833390D02*
X215288905Y-107642914D01*
X215288905Y-107642914D02*
X215336524Y-107547676D01*
X215336524Y-107547676D02*
X215431762Y-107452438D01*
X215431762Y-107452438D02*
X215574619Y-107404819D01*
X215574619Y-107404819D02*
X215669857Y-107404819D01*
X215669857Y-107404819D02*
X215812714Y-107452438D01*
X215812714Y-107452438D02*
X215860333Y-107500057D01*
X216241286Y-107500057D02*
X216288905Y-107452438D01*
X216288905Y-107452438D02*
X216384143Y-107404819D01*
X216384143Y-107404819D02*
X216622238Y-107404819D01*
X216622238Y-107404819D02*
X216717476Y-107452438D01*
X216717476Y-107452438D02*
X216765095Y-107500057D01*
X216765095Y-107500057D02*
X216812714Y-107595295D01*
X216812714Y-107595295D02*
X216812714Y-107690533D01*
X216812714Y-107690533D02*
X216765095Y-107833390D01*
X216765095Y-107833390D02*
X216193667Y-108404819D01*
X216193667Y-108404819D02*
X216812714Y-108404819D01*
D13*
X188896666Y-111852419D02*
X188896666Y-112566704D01*
X188896666Y-112566704D02*
X188849047Y-112709561D01*
X188849047Y-112709561D02*
X188753809Y-112804800D01*
X188753809Y-112804800D02*
X188610952Y-112852419D01*
X188610952Y-112852419D02*
X188515714Y-112852419D01*
X189801428Y-112185752D02*
X189801428Y-112852419D01*
X189563333Y-111804800D02*
X189325238Y-112519085D01*
X189325238Y-112519085D02*
X189944285Y-112519085D01*
D12*
X155662333Y-91259819D02*
X155329000Y-90783628D01*
X155090905Y-91259819D02*
X155090905Y-90259819D01*
X155090905Y-90259819D02*
X155471857Y-90259819D01*
X155471857Y-90259819D02*
X155567095Y-90307438D01*
X155567095Y-90307438D02*
X155614714Y-90355057D01*
X155614714Y-90355057D02*
X155662333Y-90450295D01*
X155662333Y-90450295D02*
X155662333Y-90593152D01*
X155662333Y-90593152D02*
X155614714Y-90688390D01*
X155614714Y-90688390D02*
X155567095Y-90736009D01*
X155567095Y-90736009D02*
X155471857Y-90783628D01*
X155471857Y-90783628D02*
X155090905Y-90783628D01*
X156519476Y-90259819D02*
X156329000Y-90259819D01*
X156329000Y-90259819D02*
X156233762Y-90307438D01*
X156233762Y-90307438D02*
X156186143Y-90355057D01*
X156186143Y-90355057D02*
X156090905Y-90497914D01*
X156090905Y-90497914D02*
X156043286Y-90688390D01*
X156043286Y-90688390D02*
X156043286Y-91069342D01*
X156043286Y-91069342D02*
X156090905Y-91164580D01*
X156090905Y-91164580D02*
X156138524Y-91212200D01*
X156138524Y-91212200D02*
X156233762Y-91259819D01*
X156233762Y-91259819D02*
X156424238Y-91259819D01*
X156424238Y-91259819D02*
X156519476Y-91212200D01*
X156519476Y-91212200D02*
X156567095Y-91164580D01*
X156567095Y-91164580D02*
X156614714Y-91069342D01*
X156614714Y-91069342D02*
X156614714Y-90831247D01*
X156614714Y-90831247D02*
X156567095Y-90736009D01*
X156567095Y-90736009D02*
X156519476Y-90688390D01*
X156519476Y-90688390D02*
X156424238Y-90640771D01*
X156424238Y-90640771D02*
X156233762Y-90640771D01*
X156233762Y-90640771D02*
X156138524Y-90688390D01*
X156138524Y-90688390D02*
X156090905Y-90736009D01*
X156090905Y-90736009D02*
X156043286Y-90831247D01*
X132040333Y-108309580D02*
X131992714Y-108357200D01*
X131992714Y-108357200D02*
X131849857Y-108404819D01*
X131849857Y-108404819D02*
X131754619Y-108404819D01*
X131754619Y-108404819D02*
X131611762Y-108357200D01*
X131611762Y-108357200D02*
X131516524Y-108261961D01*
X131516524Y-108261961D02*
X131468905Y-108166723D01*
X131468905Y-108166723D02*
X131421286Y-107976247D01*
X131421286Y-107976247D02*
X131421286Y-107833390D01*
X131421286Y-107833390D02*
X131468905Y-107642914D01*
X131468905Y-107642914D02*
X131516524Y-107547676D01*
X131516524Y-107547676D02*
X131611762Y-107452438D01*
X131611762Y-107452438D02*
X131754619Y-107404819D01*
X131754619Y-107404819D02*
X131849857Y-107404819D01*
X131849857Y-107404819D02*
X131992714Y-107452438D01*
X131992714Y-107452438D02*
X132040333Y-107500057D01*
X132611762Y-107833390D02*
X132516524Y-107785771D01*
X132516524Y-107785771D02*
X132468905Y-107738152D01*
X132468905Y-107738152D02*
X132421286Y-107642914D01*
X132421286Y-107642914D02*
X132421286Y-107595295D01*
X132421286Y-107595295D02*
X132468905Y-107500057D01*
X132468905Y-107500057D02*
X132516524Y-107452438D01*
X132516524Y-107452438D02*
X132611762Y-107404819D01*
X132611762Y-107404819D02*
X132802238Y-107404819D01*
X132802238Y-107404819D02*
X132897476Y-107452438D01*
X132897476Y-107452438D02*
X132945095Y-107500057D01*
X132945095Y-107500057D02*
X132992714Y-107595295D01*
X132992714Y-107595295D02*
X132992714Y-107642914D01*
X132992714Y-107642914D02*
X132945095Y-107738152D01*
X132945095Y-107738152D02*
X132897476Y-107785771D01*
X132897476Y-107785771D02*
X132802238Y-107833390D01*
X132802238Y-107833390D02*
X132611762Y-107833390D01*
X132611762Y-107833390D02*
X132516524Y-107881009D01*
X132516524Y-107881009D02*
X132468905Y-107928628D01*
X132468905Y-107928628D02*
X132421286Y-108023866D01*
X132421286Y-108023866D02*
X132421286Y-108214342D01*
X132421286Y-108214342D02*
X132468905Y-108309580D01*
X132468905Y-108309580D02*
X132516524Y-108357200D01*
X132516524Y-108357200D02*
X132611762Y-108404819D01*
X132611762Y-108404819D02*
X132802238Y-108404819D01*
X132802238Y-108404819D02*
X132897476Y-108357200D01*
X132897476Y-108357200D02*
X132945095Y-108309580D01*
X132945095Y-108309580D02*
X132992714Y-108214342D01*
X132992714Y-108214342D02*
X132992714Y-108023866D01*
X132992714Y-108023866D02*
X132945095Y-107928628D01*
X132945095Y-107928628D02*
X132897476Y-107881009D01*
X132897476Y-107881009D02*
X132802238Y-107833390D01*
X225512333Y-91259819D02*
X225179000Y-90783628D01*
X224940905Y-91259819D02*
X224940905Y-90259819D01*
X224940905Y-90259819D02*
X225321857Y-90259819D01*
X225321857Y-90259819D02*
X225417095Y-90307438D01*
X225417095Y-90307438D02*
X225464714Y-90355057D01*
X225464714Y-90355057D02*
X225512333Y-90450295D01*
X225512333Y-90450295D02*
X225512333Y-90593152D01*
X225512333Y-90593152D02*
X225464714Y-90688390D01*
X225464714Y-90688390D02*
X225417095Y-90736009D01*
X225417095Y-90736009D02*
X225321857Y-90783628D01*
X225321857Y-90783628D02*
X224940905Y-90783628D01*
X226464714Y-91259819D02*
X225893286Y-91259819D01*
X226179000Y-91259819D02*
X226179000Y-90259819D01*
X226179000Y-90259819D02*
X226083762Y-90402676D01*
X226083762Y-90402676D02*
X225988524Y-90497914D01*
X225988524Y-90497914D02*
X225893286Y-90545533D01*
X241808095Y-84544819D02*
X241808095Y-85354342D01*
X241808095Y-85354342D02*
X241855714Y-85449580D01*
X241855714Y-85449580D02*
X241903333Y-85497200D01*
X241903333Y-85497200D02*
X241998571Y-85544819D01*
X241998571Y-85544819D02*
X242189047Y-85544819D01*
X242189047Y-85544819D02*
X242284285Y-85497200D01*
X242284285Y-85497200D02*
X242331904Y-85449580D01*
X242331904Y-85449580D02*
X242379523Y-85354342D01*
X242379523Y-85354342D02*
X242379523Y-84544819D01*
X242903333Y-85544819D02*
X243093809Y-85544819D01*
X243093809Y-85544819D02*
X243189047Y-85497200D01*
X243189047Y-85497200D02*
X243236666Y-85449580D01*
X243236666Y-85449580D02*
X243331904Y-85306723D01*
X243331904Y-85306723D02*
X243379523Y-85116247D01*
X243379523Y-85116247D02*
X243379523Y-84735295D01*
X243379523Y-84735295D02*
X243331904Y-84640057D01*
X243331904Y-84640057D02*
X243284285Y-84592438D01*
X243284285Y-84592438D02*
X243189047Y-84544819D01*
X243189047Y-84544819D02*
X242998571Y-84544819D01*
X242998571Y-84544819D02*
X242903333Y-84592438D01*
X242903333Y-84592438D02*
X242855714Y-84640057D01*
X242855714Y-84640057D02*
X242808095Y-84735295D01*
X242808095Y-84735295D02*
X242808095Y-84973390D01*
X242808095Y-84973390D02*
X242855714Y-85068628D01*
X242855714Y-85068628D02*
X242903333Y-85116247D01*
X242903333Y-85116247D02*
X242998571Y-85163866D01*
X242998571Y-85163866D02*
X243189047Y-85163866D01*
X243189047Y-85163866D02*
X243284285Y-85116247D01*
X243284285Y-85116247D02*
X243331904Y-85068628D01*
X243331904Y-85068628D02*
X243379523Y-84973390D01*
X197572333Y-91259819D02*
X197239000Y-90783628D01*
X197000905Y-91259819D02*
X197000905Y-90259819D01*
X197000905Y-90259819D02*
X197381857Y-90259819D01*
X197381857Y-90259819D02*
X197477095Y-90307438D01*
X197477095Y-90307438D02*
X197524714Y-90355057D01*
X197524714Y-90355057D02*
X197572333Y-90450295D01*
X197572333Y-90450295D02*
X197572333Y-90593152D01*
X197572333Y-90593152D02*
X197524714Y-90688390D01*
X197524714Y-90688390D02*
X197477095Y-90736009D01*
X197477095Y-90736009D02*
X197381857Y-90783628D01*
X197381857Y-90783628D02*
X197000905Y-90783628D01*
X197905667Y-90259819D02*
X198524714Y-90259819D01*
X198524714Y-90259819D02*
X198191381Y-90640771D01*
X198191381Y-90640771D02*
X198334238Y-90640771D01*
X198334238Y-90640771D02*
X198429476Y-90688390D01*
X198429476Y-90688390D02*
X198477095Y-90736009D01*
X198477095Y-90736009D02*
X198524714Y-90831247D01*
X198524714Y-90831247D02*
X198524714Y-91069342D01*
X198524714Y-91069342D02*
X198477095Y-91164580D01*
X198477095Y-91164580D02*
X198429476Y-91212200D01*
X198429476Y-91212200D02*
X198334238Y-91259819D01*
X198334238Y-91259819D02*
X198048524Y-91259819D01*
X198048524Y-91259819D02*
X197953286Y-91212200D01*
X197953286Y-91212200D02*
X197905667Y-91164580D01*
D14*
%TO.C,J10*%
X117120000Y-70135000D02*
X117120000Y-70135000D01*
X116920000Y-70135000D02*
X116920000Y-70135000D01*
X117120000Y-70135000D02*
G75*
G02*
X116920000Y-70135000I-100000J0D01*
G01*
X116920000Y-70135000D02*
G75*
G02*
X117120000Y-70135000I100000J0D01*
G01*
D10*
%TO.C,C9*%
X115030250Y-77216000D02*
X116300250Y-77216000D01*
X115665250Y-76581000D02*
X115665250Y-77851000D01*
X125190250Y-77216000D02*
G75*
G02*
X116427250Y-77216000I-4381500J0D01*
G01*
X116427250Y-77216000D02*
G75*
G02*
X125190250Y-77216000I4381500J0D01*
G01*
D15*
%TO.C,J9*%
X249910600Y-69342000D02*
G75*
G02*
X249148600Y-69342000I-381000J0D01*
G01*
X249148600Y-69342000D02*
G75*
G02*
X249910600Y-69342000I381000J0D01*
G01*
D13*
%TO.C,J7*%
X139875000Y-109695000D02*
X139875000Y-114395000D01*
X139875000Y-109695000D02*
X142175000Y-109695000D01*
X139875000Y-114395000D02*
X145875000Y-114395000D01*
X145875000Y-109695000D02*
X143575000Y-109695000D01*
X145875000Y-114395000D02*
X145875000Y-109695000D01*
D16*
%TO.C,C1*%
X227113752Y-107040000D02*
X225691248Y-107040000D01*
X227113752Y-108860000D02*
X225691248Y-108860000D01*
%TO.C,R9*%
X112810936Y-72750000D02*
X114265064Y-72750000D01*
X112810936Y-74570000D02*
X114265064Y-74570000D01*
%TO.C,U4*%
D13*
X187285000Y-93695000D02*
X182285000Y-93695000D01*
X182285000Y-105695000D01*
X187285000Y-105695000D01*
X187285000Y-93695000D01*
D17*
X185910000Y-97695000D02*
G75*
G02*
X185660000Y-97695000I-125000J0D01*
G01*
X185660000Y-97695000D02*
G75*
G02*
X185910000Y-97695000I125000J0D01*
G01*
D16*
%TO.C,R8*%
X129265000Y-90077936D02*
X129265000Y-91532064D01*
X131085000Y-90077936D02*
X131085000Y-91532064D01*
%TO.C,J11*%
X251015000Y-66810000D02*
X251015000Y-67810000D01*
X251015000Y-67810000D02*
X252015000Y-67310000D01*
X252015000Y-67310000D02*
X251015000Y-66810000D01*
%TO.C,C5*%
X171233752Y-107040000D02*
X169811248Y-107040000D01*
X171233752Y-108860000D02*
X169811248Y-108860000D01*
%TO.C,C7*%
X143293752Y-107040000D02*
X141871248Y-107040000D01*
X143293752Y-108860000D02*
X141871248Y-108860000D01*
D13*
%TO.C,J5*%
X167815000Y-109695000D02*
X167815000Y-114395000D01*
X167815000Y-109695000D02*
X170115000Y-109695000D01*
X167815000Y-114395000D02*
X173815000Y-114395000D01*
X173815000Y-109695000D02*
X171515000Y-109695000D01*
X173815000Y-114395000D02*
X173815000Y-109695000D01*
D16*
%TO.C,C4*%
X185203752Y-107040000D02*
X183781248Y-107040000D01*
X185203752Y-108860000D02*
X183781248Y-108860000D01*
%TO.C,R4*%
X185145000Y-90077936D02*
X185145000Y-91532064D01*
X186965000Y-90077936D02*
X186965000Y-91532064D01*
D13*
%TO.C,J8*%
X125905000Y-109695000D02*
X125905000Y-114395000D01*
X125905000Y-109695000D02*
X128205000Y-109695000D01*
X125905000Y-114395000D02*
X131905000Y-114395000D01*
X131905000Y-109695000D02*
X129605000Y-109695000D01*
X131905000Y-114395000D02*
X131905000Y-109695000D01*
%TO.C,J3*%
X195755000Y-109695000D02*
X195755000Y-114395000D01*
X195755000Y-109695000D02*
X198055000Y-109695000D01*
X195755000Y-114395000D02*
X201755000Y-114395000D01*
X201755000Y-109695000D02*
X199455000Y-109695000D01*
X201755000Y-114395000D02*
X201755000Y-109695000D01*
%TO.C,U3*%
X201255000Y-93695000D02*
X196255000Y-93695000D01*
X196255000Y-105695000D01*
X201255000Y-105695000D01*
X201255000Y-93695000D01*
D17*
X199880000Y-97695000D02*
G75*
G02*
X199630000Y-97695000I-125000J0D01*
G01*
X199630000Y-97695000D02*
G75*
G02*
X199880000Y-97695000I125000J0D01*
G01*
D16*
%TO.C,C6*%
X157263752Y-107040000D02*
X155841248Y-107040000D01*
X157263752Y-108860000D02*
X155841248Y-108860000D01*
%TO.C,U8*%
D13*
X131405000Y-93695000D02*
X126405000Y-93695000D01*
X126405000Y-105695000D01*
X131405000Y-105695000D01*
X131405000Y-93695000D01*
D17*
X130030000Y-97695000D02*
G75*
G02*
X129780000Y-97695000I-125000J0D01*
G01*
X129780000Y-97695000D02*
G75*
G02*
X130030000Y-97695000I125000J0D01*
G01*
D13*
%TO.C,J2*%
X209725000Y-109695000D02*
X209725000Y-114395000D01*
X209725000Y-109695000D02*
X212025000Y-109695000D01*
X209725000Y-114395000D02*
X215725000Y-114395000D01*
X215725000Y-109695000D02*
X213425000Y-109695000D01*
X215725000Y-114395000D02*
X215725000Y-109695000D01*
D16*
%TO.C,R5*%
X171175000Y-90077936D02*
X171175000Y-91532064D01*
X172995000Y-90077936D02*
X172995000Y-91532064D01*
D13*
%TO.C,J6*%
X153845000Y-109695000D02*
X153845000Y-114395000D01*
X153845000Y-109695000D02*
X156145000Y-109695000D01*
X153845000Y-114395000D02*
X159845000Y-114395000D01*
X159845000Y-109695000D02*
X157545000Y-109695000D01*
X159845000Y-114395000D02*
X159845000Y-109695000D01*
%TO.C,U2*%
X215225000Y-93695000D02*
X210225000Y-93695000D01*
X210225000Y-105695000D01*
X215225000Y-105695000D01*
X215225000Y-93695000D01*
D17*
X213850000Y-97695000D02*
G75*
G02*
X213600000Y-97695000I-125000J0D01*
G01*
X213600000Y-97695000D02*
G75*
G02*
X213850000Y-97695000I125000J0D01*
G01*
D16*
%TO.C,C3*%
X199173752Y-107040000D02*
X197751248Y-107040000D01*
X199173752Y-108860000D02*
X197751248Y-108860000D01*
%TO.C,R7*%
X143235000Y-90077936D02*
X143235000Y-91532064D01*
X145055000Y-90077936D02*
X145055000Y-91532064D01*
%TO.C,U5*%
D13*
X173315000Y-93695000D02*
X168315000Y-93695000D01*
X168315000Y-105695000D01*
X173315000Y-105695000D01*
X173315000Y-93695000D01*
D17*
X171940000Y-97695000D02*
G75*
G02*
X171690000Y-97695000I-125000J0D01*
G01*
X171690000Y-97695000D02*
G75*
G02*
X171940000Y-97695000I125000J0D01*
G01*
D14*
%TO.C,S1*%
X88587500Y-72231250D02*
G75*
G02*
X88387500Y-72231250I-100000J0D01*
G01*
X88387500Y-72231250D02*
G75*
G02*
X88587500Y-72231250I100000J0D01*
G01*
%TO.C,U1*%
D13*
X229195000Y-93695000D02*
X224195000Y-93695000D01*
X224195000Y-105695000D01*
X229195000Y-105695000D01*
X229195000Y-93695000D01*
D17*
X227820000Y-97695000D02*
G75*
G02*
X227570000Y-97695000I-125000J0D01*
G01*
X227570000Y-97695000D02*
G75*
G02*
X227820000Y-97695000I125000J0D01*
G01*
D16*
%TO.C,R2*%
X213085000Y-90077936D02*
X213085000Y-91532064D01*
X214905000Y-90077936D02*
X214905000Y-91532064D01*
D10*
%TO.C,U10*%
X240855323Y-99568000D02*
X244284675Y-99568000D01*
X244284677Y-92964000D02*
X240855325Y-92964000D01*
X242265200Y-99568000D02*
G75*
G02*
X242874800Y-99568000I304800J0D01*
G01*
D18*
G36*
X238658400Y-99381498D02*
G01*
X238404400Y-99381498D01*
X238404400Y-99000498D01*
X238658400Y-99000498D01*
X238658400Y-99381498D01*
G37*
G36*
X246735600Y-93531502D02*
G01*
X246481600Y-93531502D01*
X246481600Y-93150502D01*
X246735600Y-93150502D01*
X246735600Y-93531502D01*
G37*
D13*
%TO.C,REF\u002A\u002A*%
X85996369Y-107120682D02*
X85805872Y-107120682D01*
X92642700Y-101088187D02*
X92790869Y-101088187D01*
D19*
X93849201Y-109745352D02*
X93951666Y-109528287D01*
X93951666Y-109528287D02*
X94068158Y-109310082D01*
X94068158Y-109310082D02*
X94198068Y-109091334D01*
X94198068Y-109091334D02*
X94340787Y-108872641D01*
X94340787Y-108872641D02*
X94495708Y-108654598D01*
X94495708Y-108654598D02*
X94662220Y-108437804D01*
X94662220Y-108437804D02*
X95027588Y-108010347D01*
X95027588Y-108010347D02*
X95432023Y-107595044D01*
X95432023Y-107595044D02*
X95870658Y-107196670D01*
X95870658Y-107196670D02*
X96338625Y-106820000D01*
X96338625Y-106820000D02*
X96831055Y-106469810D01*
X96831055Y-106469810D02*
X97343081Y-106150873D01*
X97343081Y-106150873D02*
X97604921Y-106004617D01*
X97604921Y-106004617D02*
X97869834Y-105867965D01*
X97869834Y-105867965D02*
X98137213Y-105741513D01*
X98137213Y-105741513D02*
X98406448Y-105625860D01*
X98406448Y-105625860D02*
X98676931Y-105521602D01*
X98676931Y-105521602D02*
X98948053Y-105429334D01*
X98948053Y-105429334D02*
X99219207Y-105349656D01*
X99219207Y-105349656D02*
X99489783Y-105283162D01*
X99489783Y-105283162D02*
X99759173Y-105230451D01*
X99759173Y-105230451D02*
X100026768Y-105192118D01*
X100026768Y-105192118D02*
X100291960Y-105168762D01*
X100291960Y-105168762D02*
X100554141Y-105160978D01*
X100554141Y-105160978D02*
X100812702Y-105169364D01*
X100812702Y-105169364D02*
X101067035Y-105194516D01*
X101067035Y-105194516D02*
X101384015Y-105237332D01*
X101384015Y-105237332D02*
X101680760Y-105293957D01*
X101680760Y-105293957D02*
X101958242Y-105363814D01*
X101958242Y-105363814D02*
X102217435Y-105446325D01*
X102217435Y-105446325D02*
X102459311Y-105540913D01*
X102459311Y-105540913D02*
X102684842Y-105647000D01*
X102684842Y-105647000D02*
X102895003Y-105764009D01*
X102895003Y-105764009D02*
X103090766Y-105891362D01*
X103090766Y-105891362D02*
X103273103Y-106028482D01*
X103273103Y-106028482D02*
X103442987Y-106174792D01*
X103442987Y-106174792D02*
X103601391Y-106329713D01*
X103601391Y-106329713D02*
X103749288Y-106492669D01*
X103749288Y-106492669D02*
X103887651Y-106663082D01*
X103887651Y-106663082D02*
X104017453Y-106840374D01*
X104017453Y-106840374D02*
X104139665Y-107023968D01*
X104139665Y-107023968D02*
X104255262Y-107213286D01*
X104255262Y-107213286D02*
X104470499Y-107606787D01*
X104470499Y-107606787D02*
X104670947Y-108016255D01*
X104670947Y-108016255D02*
X105058602Y-108864616D01*
X105058602Y-108864616D02*
X105261375Y-109294269D01*
X105261375Y-109294269D02*
X105480488Y-109721411D01*
X105480488Y-109721411D02*
X105598605Y-109932596D01*
X105598605Y-109932596D02*
X105723724Y-110141421D01*
X105723724Y-110141421D02*
X105856820Y-110347308D01*
X105856820Y-110347308D02*
X105998865Y-110549679D01*
X105998865Y-110549679D02*
X106190598Y-110747184D01*
X106190598Y-110747184D02*
X106388242Y-110916020D01*
X106388242Y-110916020D02*
X106591009Y-111057655D01*
X106591009Y-111057655D02*
X106798113Y-111173560D01*
X106798113Y-111173560D02*
X107008768Y-111265203D01*
X107008768Y-111265203D02*
X107222186Y-111334052D01*
X107222186Y-111334052D02*
X107437580Y-111381577D01*
X107437580Y-111381577D02*
X107654165Y-111409247D01*
X107654165Y-111409247D02*
X107871152Y-111418530D01*
X107871152Y-111418530D02*
X108087756Y-111410896D01*
X108087756Y-111410896D02*
X108303189Y-111387812D01*
X108303189Y-111387812D02*
X108516665Y-111350750D01*
X108516665Y-111350750D02*
X108727397Y-111301176D01*
X108727397Y-111301176D02*
X108934598Y-111240560D01*
X108934598Y-111240560D02*
X109335261Y-111092078D01*
X109335261Y-111092078D02*
X109712359Y-110917055D01*
X109371451Y-106732472D02*
X109377264Y-106987723D01*
X109374164Y-106473191D02*
X109371451Y-106732472D01*
X109377264Y-106987723D02*
X109391883Y-107236772D01*
X109385125Y-106212049D02*
X109374164Y-106473191D01*
X109391883Y-107236772D02*
X109415586Y-107477450D01*
X109404054Y-105951218D02*
X109385125Y-106212049D01*
X109415586Y-107477450D02*
X109448653Y-107707586D01*
X109430673Y-105692866D02*
X109404054Y-105951218D01*
X109448653Y-107707586D02*
X109491364Y-107925009D01*
X109464702Y-105439166D02*
X109430673Y-105692866D01*
X109491364Y-107925009D02*
X109525958Y-108061198D01*
X109505863Y-105192287D02*
X109464702Y-105439166D01*
X109525958Y-108061198D02*
X109565954Y-108192000D01*
X109553876Y-104954400D02*
X109505863Y-105192287D01*
X109565954Y-108192000D02*
X109610927Y-108317485D01*
X109608462Y-104727675D02*
X109553876Y-104954400D01*
X109610927Y-108317485D02*
X109660450Y-108437721D01*
X109660450Y-108437721D02*
X109714097Y-108552780D01*
X109669342Y-104514283D02*
X109608462Y-104727675D01*
X109712359Y-110917055D02*
X110059599Y-110727243D01*
X109714097Y-108552780D02*
X109771442Y-108662731D01*
X109736237Y-104316394D02*
X109669342Y-104514283D01*
X109771442Y-108662731D02*
X109832057Y-108767643D01*
X109808869Y-104136178D02*
X109736237Y-104316394D01*
X109832057Y-108767643D02*
X109895517Y-108867587D01*
X109894382Y-103967724D02*
X109808869Y-104136178D01*
X109895517Y-108867587D02*
X109961396Y-108962631D01*
X109961396Y-108962631D02*
X110029266Y-109052847D01*
X109998871Y-103796604D02*
X109894382Y-103967724D01*
X110029266Y-109052847D02*
X110169278Y-109219069D01*
X110059599Y-110727243D02*
X110370686Y-110534391D01*
X110120475Y-103624118D02*
X109998871Y-103796604D01*
X110169278Y-109219069D02*
X110312143Y-109366812D01*
X110257334Y-103451571D02*
X110120475Y-103624118D01*
X110312143Y-109366812D02*
X110454450Y-109496634D01*
X110370686Y-110534391D02*
X110639326Y-110350253D01*
X110407588Y-103280264D02*
X110257334Y-103451571D01*
X110454450Y-109496634D02*
X110592787Y-109609092D01*
X110569376Y-103111499D02*
X110407588Y-103280264D01*
X110592787Y-109609092D02*
X110723745Y-109704745D01*
X110639326Y-110350253D02*
X111024088Y-110055118D01*
X110723745Y-109704745D02*
X110843914Y-109784152D01*
X110740838Y-102946579D02*
X110569376Y-103111499D01*
X110740887Y-93013382D02*
X110743039Y-93087917D01*
X110743039Y-93087917D02*
X110750788Y-93169532D01*
X110744719Y-92946529D02*
X110740887Y-93013382D01*
X110750788Y-93169532D02*
X110781525Y-93351604D01*
X110754923Y-92887958D02*
X110744719Y-92946529D01*
X110771886Y-92838270D02*
X110754923Y-92887958D01*
X110781525Y-93351604D02*
X110829997Y-93554790D01*
X110795996Y-92798067D02*
X110771886Y-92838270D01*
X110827640Y-92767947D02*
X110795996Y-92798067D01*
X110829997Y-93554790D02*
X110893104Y-93774286D01*
X110843914Y-109784152D02*
X110949881Y-109847869D01*
X110867206Y-92748514D02*
X110827640Y-92767947D01*
X110893104Y-93774286D02*
X110967745Y-94005284D01*
X110920114Y-102786806D02*
X110740838Y-102946579D01*
X110924055Y-92736926D02*
X110867206Y-92748514D01*
X110949881Y-109847869D02*
X111105571Y-109930469D01*
X110967745Y-94005284D02*
X111139228Y-94482567D01*
X110994821Y-92733693D02*
X110924055Y-92736926D01*
X111024088Y-110055118D02*
X111163532Y-109935849D01*
X111105343Y-102633481D02*
X110920114Y-102786806D01*
X111105571Y-109930469D02*
X111163532Y-109957010D01*
X111139228Y-94482567D02*
X111319641Y-94948191D01*
X111163532Y-109935849D02*
X111536263Y-110068802D01*
X111174743Y-92750995D02*
X110994821Y-92733693D01*
X111294665Y-102487909D02*
X111105343Y-102633481D01*
X111319641Y-94948191D02*
X111484179Y-95363710D01*
X111400244Y-92797815D02*
X111174743Y-92750995D01*
X111484179Y-95363710D02*
X111608038Y-95690677D01*
X111486219Y-102351390D02*
X111294665Y-102487909D01*
X111536263Y-110068802D02*
X111934833Y-110205972D01*
X111608038Y-95690677D02*
X112009215Y-96906440D01*
X111664595Y-92871547D02*
X111400244Y-92797815D01*
X111678146Y-102225227D02*
X111486219Y-102351390D01*
X111868584Y-102110722D02*
X111678146Y-102225227D01*
X111934833Y-110205972D02*
X112415010Y-110364474D01*
X111961068Y-92969588D02*
X111664595Y-92871547D01*
X112009215Y-96906440D02*
X112264001Y-97723672D01*
X112055674Y-102009178D02*
X111868584Y-102110722D01*
X112237554Y-101921896D02*
X112055674Y-102009178D01*
X112264001Y-97723672D02*
X112515562Y-98606389D01*
X112282935Y-93089333D02*
X111961068Y-92969588D01*
X112412366Y-101850180D02*
X112237554Y-101921896D01*
X112415010Y-110364474D02*
X112931898Y-110524961D01*
X112515562Y-98606389D02*
X112630909Y-99054940D01*
X112556160Y-101798178D02*
X112412366Y-101850180D01*
X112623467Y-93228178D02*
X112282935Y-93089333D01*
X112630909Y-99054940D02*
X112734380Y-99499027D01*
X112715396Y-101745712D02*
X112556160Y-101798178D01*
X112734380Y-99499027D02*
X112822287Y-99931703D01*
X112822287Y-99931703D02*
X112890939Y-100346023D01*
X112890939Y-100346023D02*
X112936646Y-100735043D01*
X112926321Y-101551323D02*
X112899207Y-101680844D01*
X112931898Y-110524961D02*
X113440601Y-110668084D01*
X112936646Y-100735043D02*
X112955720Y-101091817D01*
X112944470Y-101409399D02*
X112926321Y-101551323D01*
X112955720Y-101091817D02*
X112944470Y-101409399D01*
X112975936Y-93383517D02*
X112623467Y-93228178D01*
X113066547Y-101641491D02*
X112715396Y-101745712D01*
X113333615Y-93552747D02*
X112975936Y-93383517D01*
X113386035Y-96611762D02*
X113386035Y-96368014D01*
X113394965Y-96864728D02*
X113386035Y-96611762D01*
X113404266Y-97008900D02*
X113394965Y-96864728D01*
X113417785Y-97159119D02*
X113404266Y-97008900D01*
X113436264Y-97311073D02*
X113417785Y-97159119D01*
X113438535Y-101541735D02*
X113066547Y-101641491D01*
X113440601Y-110668084D02*
X113677852Y-110727088D01*
X113460449Y-97460454D02*
X113436264Y-97311073D01*
X113491083Y-97602952D02*
X113460449Y-97460454D01*
X113528910Y-97734257D02*
X113491083Y-97602952D01*
X113550754Y-97794365D02*
X113528910Y-97734257D01*
X113574675Y-97850059D02*
X113550754Y-97794365D01*
X113600766Y-97900799D02*
X113574675Y-97850059D01*
X113629121Y-97946048D02*
X113600766Y-97900799D01*
X113659832Y-97985266D02*
X113629121Y-97946048D01*
X113677852Y-110727088D02*
X113896221Y-110774497D01*
X113689774Y-93733264D02*
X113333615Y-93552747D01*
X113692993Y-98017915D02*
X113659832Y-97985266D01*
X113728696Y-98043456D02*
X113692993Y-98017915D01*
X113767035Y-98061349D02*
X113728696Y-98043456D01*
X113804073Y-101450661D02*
X113438535Y-101541735D01*
X113812623Y-98074715D02*
X113767035Y-98061349D01*
X113861861Y-98083193D02*
X113812623Y-98074715D01*
X113896221Y-110774497D02*
X114090096Y-110807890D01*
X113914433Y-98086982D02*
X113861861Y-98083193D01*
X113970020Y-98086279D02*
X113914433Y-98086982D01*
X114028305Y-98081281D02*
X113970020Y-98086279D01*
X114037686Y-93922461D02*
X113689774Y-93733264D01*
X114088969Y-98072187D02*
X114028305Y-98081281D01*
X114090096Y-110807890D02*
X114253864Y-110824850D01*
X114151695Y-98059193D02*
X114088969Y-98072187D01*
X114216166Y-98042499D02*
X114151695Y-98059193D01*
X114253864Y-95584854D02*
X114451309Y-95747573D01*
X114253864Y-110824850D02*
X114456440Y-110828354D01*
X114282062Y-98022300D02*
X114216166Y-98042499D01*
X114349067Y-97998796D02*
X114282062Y-98022300D01*
X114370621Y-94117736D02*
X114037686Y-93922461D01*
X114406661Y-101311425D02*
X113804073Y-101450661D01*
X114416863Y-97972183D02*
X114349067Y-97998796D01*
X114451309Y-95747573D02*
X114652352Y-95924183D01*
X114456440Y-110828354D02*
X114680876Y-110823114D01*
X114485131Y-97942660D02*
X114416863Y-97972183D01*
X114621816Y-97875671D02*
X114485131Y-97942660D01*
X114652352Y-95924183D02*
X114765105Y-96028487D01*
X114656030Y-101257516D02*
X114406661Y-101311425D01*
X114680876Y-110823114D02*
X114923729Y-110809317D01*
X114681853Y-94316484D02*
X114370621Y-94117736D01*
X114756577Y-97799412D02*
X114621816Y-97875671D01*
X114765105Y-96028487D02*
X114880927Y-96140480D01*
X114880927Y-96140480D02*
X114996006Y-96257930D01*
X114886874Y-97715464D02*
X114756577Y-97799412D01*
X114923729Y-110809317D02*
X115181559Y-110787148D01*
X114964653Y-94516099D02*
X114681853Y-94316484D01*
X114996006Y-96257930D02*
X115106527Y-96378605D01*
X115010164Y-97625407D02*
X114886874Y-97715464D01*
X115106527Y-96378605D02*
X115208676Y-96500272D01*
X115123904Y-97530824D02*
X115010164Y-97625407D01*
X115176398Y-97482329D02*
X115123904Y-97530824D01*
X115181559Y-110787148D02*
X115450922Y-110756793D01*
X115208676Y-96500272D02*
X115298640Y-96620698D01*
X115212292Y-94713978D02*
X114964653Y-94516099D01*
X115225552Y-97433295D02*
X115176398Y-97482329D01*
X115271046Y-97383921D02*
X115225552Y-97433295D01*
X115298640Y-96620698D02*
X115337861Y-96679749D01*
X115312565Y-97334402D02*
X115271046Y-97383921D01*
X115337861Y-96679749D02*
X115372605Y-96737652D01*
X115349788Y-97284939D02*
X115312565Y-97334402D01*
X115372605Y-96737652D02*
X115402397Y-96794129D01*
X115382400Y-97235727D02*
X115349788Y-97284939D01*
X115402397Y-96794129D02*
X115426758Y-96848900D01*
X115410082Y-97186964D02*
X115382400Y-97235727D01*
X115418042Y-94907516D02*
X115212292Y-94713978D01*
X115426758Y-96848900D02*
X115445213Y-96901688D01*
X115432516Y-97138849D02*
X115410082Y-97186964D01*
X115445213Y-96901688D02*
X115457284Y-96952211D01*
X115449385Y-97091579D02*
X115432516Y-97138849D01*
X115450922Y-110756793D02*
X115728379Y-110718439D01*
X115457284Y-96952211D02*
X115462495Y-97000192D01*
X115460370Y-97045352D02*
X115449385Y-97091579D01*
X115462495Y-97000192D02*
X115460370Y-97045352D01*
X115573835Y-95081200D02*
X115418042Y-94907516D01*
X115728379Y-110718439D02*
X116010486Y-110672271D01*
X115731567Y-94903218D02*
X115439203Y-94949850D01*
X115745627Y-95296866D02*
X115573835Y-95081200D01*
X115930566Y-95548870D02*
X115745627Y-95296866D01*
X116010486Y-110672271D02*
X116293803Y-110618476D01*
X116041956Y-94859437D02*
X115731567Y-94903218D01*
X116125799Y-95831571D02*
X115930566Y-95548870D01*
X116293803Y-110618476D02*
X116574887Y-110557239D01*
X116412869Y-94814913D02*
X116041956Y-94859437D01*
X116476367Y-96368014D02*
X116689687Y-96379590D01*
X116535737Y-96466489D02*
X116125799Y-95831571D01*
X116574887Y-110557239D02*
X116850297Y-110488747D01*
X116689687Y-96379590D02*
X116793789Y-96381321D01*
X116793789Y-96381321D02*
X116910572Y-96380293D01*
X116807594Y-94779318D02*
X116412869Y-94814913D01*
X116850297Y-110488747D02*
X117116592Y-110413186D01*
X116910572Y-96380293D02*
X117036223Y-96375358D01*
X116952620Y-97156473D02*
X116535737Y-96466489D01*
X117002414Y-94767892D02*
X116807594Y-94779318D01*
X117036223Y-96375358D02*
X117166928Y-96365369D01*
X117116592Y-110413186D02*
X117370329Y-110330741D01*
X117166928Y-96365369D02*
X117298873Y-96349179D01*
X117189420Y-94762327D02*
X117002414Y-94767892D01*
X117298873Y-96349179D02*
X117428245Y-96325641D01*
X117353629Y-97856379D02*
X116952620Y-97156473D01*
X117364025Y-94763830D02*
X117189420Y-94762327D01*
X117370329Y-110330741D02*
X117608067Y-110241599D01*
X117428245Y-96325641D02*
X117490774Y-96310757D01*
X117490774Y-96310757D02*
X117551230Y-96293606D01*
X117521638Y-94773612D02*
X117364025Y-94763830D01*
X117551230Y-96293606D02*
X117609135Y-96274045D01*
X117608067Y-110241599D02*
X117826364Y-110145946D01*
X117609135Y-96274045D02*
X117664013Y-96251929D01*
X117657671Y-94792882D02*
X117521638Y-94773612D01*
X117664013Y-96251929D02*
X117715388Y-96227116D01*
X117715388Y-96227116D02*
X117762783Y-96199462D01*
X117715942Y-98521062D02*
X117353629Y-97856379D01*
X117762783Y-96199462D02*
X117805720Y-96168824D01*
X117767536Y-94822848D02*
X117657671Y-94792882D01*
X117792351Y-94832796D02*
X117767536Y-94822848D01*
X117805720Y-96168824D02*
X117843723Y-96135058D01*
X117815248Y-94846615D02*
X117792351Y-94832796D01*
X117826364Y-110145946D02*
X118021779Y-110043967D01*
X117836292Y-94864085D02*
X117815248Y-94846615D01*
X117843723Y-96135058D02*
X117876316Y-96098020D01*
X117855550Y-94884985D02*
X117836292Y-94864085D01*
X117873087Y-94909094D02*
X117855550Y-94884985D01*
X117876316Y-96098020D02*
X117903022Y-96057568D01*
X117888969Y-94936191D02*
X117873087Y-94909094D01*
X117903022Y-96057568D02*
X117923364Y-96013559D01*
X117903262Y-94966055D02*
X117888969Y-94936191D01*
X117916032Y-94998466D02*
X117903262Y-94966055D01*
X117923364Y-96013559D02*
X117936865Y-95965848D01*
X117936865Y-95965848D02*
X117953030Y-95841205D01*
X117937265Y-95070043D02*
X117916032Y-94998466D01*
X117953030Y-95841205D02*
X117966962Y-95683075D01*
X117953197Y-95149155D02*
X117937265Y-95070043D01*
X117964354Y-95234033D02*
X117953197Y-95149155D01*
X117966962Y-95683075D02*
X117971773Y-95595871D01*
X117971262Y-95322912D02*
X117964354Y-95234033D01*
X117971773Y-95595871D02*
X117974445Y-95505598D01*
X117974445Y-95505598D02*
X117974451Y-95414022D01*
X117974451Y-95414022D02*
X117971262Y-95322912D01*
X118016741Y-99105378D02*
X117715942Y-98521062D01*
X118021779Y-110043967D02*
X118190869Y-109935849D01*
X118190869Y-109935849D02*
X118271238Y-109876468D01*
X118233203Y-99564181D02*
X118016741Y-99105378D01*
X118271238Y-109876468D02*
X118349635Y-109813521D01*
X118349635Y-109813521D02*
X118500556Y-109677550D01*
X118500556Y-109677550D02*
X118643725Y-109529177D01*
X118541109Y-100267973D02*
X118233203Y-99564181D01*
X118643725Y-109529177D02*
X118779236Y-109369642D01*
X118779236Y-109369642D02*
X118907182Y-109200185D01*
X118902595Y-101114639D02*
X118541109Y-100267973D01*
X118907182Y-109200185D02*
X119027655Y-109022046D01*
X119027655Y-109022046D02*
X119140748Y-108836465D01*
X119078005Y-101549382D02*
X118902595Y-101114639D01*
X119140748Y-108836465D02*
X119246555Y-108644684D01*
X119236300Y-101969243D02*
X119078005Y-101549382D01*
X119246555Y-108644684D02*
X119345169Y-108447941D01*
X119345169Y-108447941D02*
X119436682Y-108247478D01*
X119367310Y-102357354D02*
X119236300Y-101969243D01*
X119419405Y-102534232D02*
X119367310Y-102357354D01*
X119436682Y-108247478D02*
X119521188Y-108044534D01*
X119460864Y-102696847D02*
X119419405Y-102534232D01*
X119521188Y-108044534D02*
X119598780Y-107840349D01*
X119561447Y-103143744D02*
X119460864Y-102696847D01*
X119598780Y-107840349D02*
X119669550Y-107636165D01*
X119666246Y-103672497D02*
X119561447Y-103143744D01*
X119669550Y-107636165D02*
X119733593Y-107433221D01*
X119733593Y-107433221D02*
X119790999Y-107232757D01*
X119765588Y-104255820D02*
X119666246Y-103672497D01*
X119790999Y-107232757D02*
X119841864Y-107036014D01*
X119841864Y-107036014D02*
X119885722Y-106824501D01*
X119849800Y-104866428D02*
X119765588Y-104255820D01*
X119883209Y-105173438D02*
X119849800Y-104866428D01*
X119885722Y-106824501D02*
X119914913Y-106589115D01*
X119909208Y-105477037D02*
X119883209Y-105173438D01*
X119914913Y-106589115D02*
X119930649Y-106333264D01*
X119926586Y-105773815D02*
X119909208Y-105477037D01*
X119930649Y-106333264D02*
X119934136Y-106060361D01*
X119934136Y-106060361D02*
X119926586Y-105773815D01*
D18*
G36*
X85890534Y-108433017D02*
G01*
X85890534Y-108941012D01*
X84578204Y-108941012D01*
X84578204Y-108560013D01*
X85805872Y-108411844D01*
X85890534Y-108433017D01*
G37*
G36*
X91118701Y-108983346D02*
G01*
X90296851Y-108980006D01*
X90293207Y-108983346D01*
X90293925Y-108979994D01*
X85911701Y-108962179D01*
X85911701Y-108496512D01*
X90393370Y-108515913D01*
X90674201Y-107205350D01*
X91203369Y-107205350D01*
X91118701Y-108983346D01*
G37*
G36*
X86335034Y-99860513D02*
G01*
X86250366Y-103437680D01*
X86250366Y-108919845D01*
X85446033Y-108919845D01*
X85454963Y-107845636D01*
X85453970Y-106072928D01*
X85446033Y-103226010D01*
X85446033Y-99119681D01*
X85954035Y-98357681D01*
X86335034Y-98336514D01*
X86335034Y-99860513D01*
G37*
G36*
X93066034Y-95775345D02*
G01*
X93044867Y-96876016D01*
X93044867Y-99860513D01*
X93023694Y-100940018D01*
X92409863Y-101532681D01*
X92415941Y-101326305D01*
X92418793Y-101119929D01*
X92417801Y-100707178D01*
X92409863Y-99881680D01*
X92409863Y-96431515D01*
X91753699Y-96346853D01*
X91753699Y-96071683D01*
X92960199Y-95711844D01*
X93066034Y-95775345D01*
G37*
G36*
X90843530Y-95775345D02*
G01*
X90822363Y-96876016D01*
X90822363Y-99860513D01*
X90825009Y-100686016D01*
X90831293Y-101098766D01*
X90832178Y-101128621D01*
X91478534Y-101236349D01*
X91478534Y-101511514D01*
X90843530Y-101511514D01*
X90166199Y-101511514D01*
X89552362Y-101511514D01*
X89552362Y-101236349D01*
X90177446Y-101132168D01*
X90178436Y-101098762D01*
X90184720Y-100686011D01*
X90187366Y-99860513D01*
X90187366Y-96410348D01*
X89531195Y-96325687D01*
X89531195Y-96071683D01*
X90737702Y-95711844D01*
X90843530Y-95775345D01*
G37*
G36*
X109275352Y-90084341D02*
G01*
X109412940Y-90179865D01*
X109544017Y-90283017D01*
X109668305Y-90393393D01*
X109785522Y-90510590D01*
X109895392Y-90634206D01*
X109997634Y-90763837D01*
X110091969Y-90899080D01*
X110178119Y-91039531D01*
X110255805Y-91184789D01*
X110324747Y-91334449D01*
X110384666Y-91488109D01*
X110435283Y-91645366D01*
X110476320Y-91805816D01*
X110507496Y-91969056D01*
X110528534Y-92134683D01*
X110341754Y-91867454D01*
X110161424Y-91604194D01*
X109986054Y-91342917D01*
X109814157Y-91081640D01*
X109474828Y-90551150D01*
X109131531Y-89996847D01*
X109275352Y-90084341D01*
G37*
G36*
X108749951Y-91428092D02*
G01*
X108874885Y-91451150D01*
X108997834Y-91483757D01*
X109118303Y-91525481D01*
X109235795Y-91575886D01*
X109349814Y-91634538D01*
X109459865Y-91701004D01*
X109565450Y-91774850D01*
X109666075Y-91855640D01*
X109761242Y-91942942D01*
X109850456Y-92036321D01*
X109933220Y-92135344D01*
X110009039Y-92239575D01*
X110077417Y-92348582D01*
X110137856Y-92461929D01*
X110189862Y-92579184D01*
X109973236Y-92444948D01*
X109766530Y-92310960D01*
X109567763Y-92175486D01*
X109374947Y-92036787D01*
X109186101Y-91893127D01*
X108999239Y-91742770D01*
X108812376Y-91583979D01*
X108623529Y-91415018D01*
X108749951Y-91428092D01*
G37*
G36*
X110557023Y-90464572D02*
G01*
X110642383Y-90557683D01*
X110720922Y-90656624D01*
X110792453Y-90760835D01*
X110856791Y-90869759D01*
X110913749Y-90982838D01*
X110963141Y-91099513D01*
X111004782Y-91219227D01*
X111038486Y-91341421D01*
X111064065Y-91465537D01*
X111081335Y-91591017D01*
X111090110Y-91717303D01*
X111090202Y-91843837D01*
X111081427Y-91970061D01*
X111063598Y-92095416D01*
X111036530Y-92219345D01*
X110938180Y-91985686D01*
X110849007Y-91758971D01*
X110768267Y-91536225D01*
X110695217Y-91314471D01*
X110629112Y-91090733D01*
X110569208Y-90862034D01*
X110514761Y-90625397D01*
X110465027Y-90377847D01*
X110557023Y-90464572D01*
G37*
G36*
X88536365Y-97786185D02*
G01*
X88515198Y-98844516D01*
X88515198Y-99881680D01*
X88517844Y-100754806D01*
X88523183Y-101125732D01*
X89107861Y-101236349D01*
X89107861Y-101511514D01*
X88535406Y-101511514D01*
X88536365Y-101532681D01*
X87880200Y-101511520D01*
X87880201Y-101511514D01*
X87308698Y-101511514D01*
X87308698Y-101236349D01*
X87892921Y-101136602D01*
X87898721Y-100733643D01*
X87901367Y-99860519D01*
X87901367Y-99500687D01*
X87901037Y-99211298D01*
X87898721Y-98963580D01*
X87892437Y-98735707D01*
X87887187Y-98622391D01*
X87880200Y-98505850D01*
X87245197Y-98442349D01*
X87245197Y-98167190D01*
X88430536Y-97701517D01*
X88536365Y-97786185D01*
G37*
G36*
X106887866Y-97786185D02*
G01*
X106866699Y-98844516D01*
X106866699Y-99881680D01*
X106869345Y-100754806D01*
X106874800Y-101133763D01*
X107417029Y-101236349D01*
X107417029Y-101511514D01*
X106886908Y-101511514D01*
X106887866Y-101532681D01*
X106210535Y-101511520D01*
X106210535Y-101511514D01*
X105617865Y-101511514D01*
X105617865Y-101236349D01*
X106223308Y-101132980D01*
X106229056Y-100733643D01*
X106231702Y-99860519D01*
X106231702Y-99500687D01*
X106231371Y-99211298D01*
X106229056Y-98963580D01*
X106222772Y-98735707D01*
X106217522Y-98622391D01*
X106210535Y-98505850D01*
X105575531Y-98442349D01*
X105575531Y-98167190D01*
X106760870Y-97701517D01*
X106887866Y-97786185D01*
G37*
G36*
X111602667Y-90977129D02*
G01*
X111634204Y-91068410D01*
X111660346Y-91159691D01*
X111681124Y-91250972D01*
X111696569Y-91342254D01*
X111706713Y-91433535D01*
X111711585Y-91524816D01*
X111711218Y-91616098D01*
X111705643Y-91707379D01*
X111694889Y-91798661D01*
X111678989Y-91889942D01*
X111657972Y-91981224D01*
X111631872Y-92072505D01*
X111600717Y-92163786D01*
X111564540Y-92255066D01*
X111523370Y-92346347D01*
X111489894Y-92255066D01*
X111460944Y-92163786D01*
X111436584Y-92072505D01*
X111416874Y-91981224D01*
X111401877Y-91889942D01*
X111391656Y-91798661D01*
X111386271Y-91707379D01*
X111385785Y-91616098D01*
X111390260Y-91524816D01*
X111399759Y-91433535D01*
X111414342Y-91342254D01*
X111434072Y-91250972D01*
X111459012Y-91159691D01*
X111489222Y-91068410D01*
X111524766Y-90977129D01*
X111565704Y-90885849D01*
X111602667Y-90977129D01*
G37*
G36*
X112180824Y-91637803D02*
G01*
X112200603Y-91671092D01*
X112217753Y-91705264D01*
X112232326Y-91740204D01*
X112244373Y-91775794D01*
X112253942Y-91811920D01*
X112261086Y-91848464D01*
X112265853Y-91885311D01*
X112268295Y-91922344D01*
X112268462Y-91959446D01*
X112266405Y-91996502D01*
X112262173Y-92033395D01*
X112255817Y-92070009D01*
X112247388Y-92106228D01*
X112236935Y-92141935D01*
X112224510Y-92177015D01*
X112210163Y-92211350D01*
X112193943Y-92244825D01*
X112175902Y-92277323D01*
X112156090Y-92308728D01*
X112134557Y-92338924D01*
X112111353Y-92367795D01*
X112086530Y-92395223D01*
X112060137Y-92421094D01*
X112032224Y-92445290D01*
X112002843Y-92467696D01*
X111972043Y-92488195D01*
X111939875Y-92506671D01*
X111906389Y-92523007D01*
X111871636Y-92537088D01*
X111835666Y-92548796D01*
X111798529Y-92558017D01*
X111829618Y-92416382D01*
X111860707Y-92290127D01*
X111876872Y-92231371D01*
X111893781Y-92174785D01*
X111911682Y-92119812D01*
X111930823Y-92065893D01*
X111951452Y-92012470D01*
X111973818Y-91958984D01*
X111998169Y-91904879D01*
X112024751Y-91849595D01*
X112053815Y-91792575D01*
X112085606Y-91733260D01*
X112158368Y-91605514D01*
X112180824Y-91637803D01*
G37*
G36*
X113040272Y-94422371D02*
G01*
X113107389Y-94430645D01*
X113177236Y-94443445D01*
X113248446Y-94460369D01*
X113319656Y-94481014D01*
X113389502Y-94504976D01*
X113456620Y-94531853D01*
X113519644Y-94561241D01*
X113577212Y-94592738D01*
X113627957Y-94625939D01*
X113650346Y-94643054D01*
X113670518Y-94660443D01*
X113688302Y-94678058D01*
X113703528Y-94695846D01*
X113712958Y-94708359D01*
X113721423Y-94722026D01*
X113728950Y-94736763D01*
X113735566Y-94752485D01*
X113741299Y-94769105D01*
X113746175Y-94786540D01*
X113753466Y-94823510D01*
X113757657Y-94862712D01*
X113758964Y-94903465D01*
X113757605Y-94945085D01*
X113753796Y-94986892D01*
X113747755Y-95028202D01*
X113739699Y-95068334D01*
X113729844Y-95106606D01*
X113718408Y-95142335D01*
X113705607Y-95174839D01*
X113691659Y-95203437D01*
X113676780Y-95227445D01*
X113669059Y-95237515D01*
X113661188Y-95246182D01*
X113650476Y-95255976D01*
X113638245Y-95265499D01*
X113624588Y-95274727D01*
X113609598Y-95283638D01*
X113575989Y-95300412D01*
X113538163Y-95315635D01*
X113496864Y-95329123D01*
X113452836Y-95340688D01*
X113406824Y-95350144D01*
X113359572Y-95357307D01*
X113311823Y-95361988D01*
X113264322Y-95364004D01*
X113217814Y-95363166D01*
X113173041Y-95359291D01*
X113130749Y-95352191D01*
X113110766Y-95347373D01*
X113091681Y-95341680D01*
X113073589Y-95335087D01*
X113056583Y-95327573D01*
X113040754Y-95319112D01*
X113026196Y-95309683D01*
X113008408Y-95294579D01*
X112990793Y-95277152D01*
X112973404Y-95257564D01*
X112956289Y-95235971D01*
X112923087Y-95187411D01*
X112891590Y-95132742D01*
X112862201Y-95073237D01*
X112835324Y-95010166D01*
X112811361Y-94944800D01*
X112790716Y-94878412D01*
X112773791Y-94812271D01*
X112760990Y-94747650D01*
X112752717Y-94685819D01*
X112749373Y-94628050D01*
X112751362Y-94575614D01*
X112754482Y-94551793D01*
X112759087Y-94529782D01*
X112765227Y-94509740D01*
X112772952Y-94491826D01*
X112782313Y-94476198D01*
X112793359Y-94463016D01*
X112808586Y-94451969D01*
X112826371Y-94442608D01*
X112846543Y-94434883D01*
X112868932Y-94428743D01*
X112893367Y-94424138D01*
X112919679Y-94421017D01*
X112977247Y-94419028D01*
X113040272Y-94422371D01*
G37*
G36*
X88223366Y-95839407D02*
G01*
X88248750Y-95841064D01*
X88273816Y-95843805D01*
X88298530Y-95847616D01*
X88322856Y-95852482D01*
X88346759Y-95858386D01*
X88370205Y-95865313D01*
X88393159Y-95873248D01*
X88415586Y-95882175D01*
X88437451Y-95892079D01*
X88458720Y-95902944D01*
X88479356Y-95914755D01*
X88499326Y-95927496D01*
X88518594Y-95941152D01*
X88537126Y-95955706D01*
X88554887Y-95971145D01*
X88571841Y-95987451D01*
X88587955Y-96004611D01*
X88603192Y-96022607D01*
X88617519Y-96041425D01*
X88630900Y-96061049D01*
X88643301Y-96081464D01*
X88654686Y-96102654D01*
X88665021Y-96124604D01*
X88674270Y-96147297D01*
X88682400Y-96170720D01*
X88689374Y-96194855D01*
X88695159Y-96219688D01*
X88699719Y-96245203D01*
X88703019Y-96271385D01*
X88705024Y-96298218D01*
X88705701Y-96325687D01*
X88705024Y-96353155D01*
X88703019Y-96379988D01*
X88699719Y-96406169D01*
X88695159Y-96431685D01*
X88689374Y-96456517D01*
X88682400Y-96480653D01*
X88674270Y-96504075D01*
X88665021Y-96526768D01*
X88654686Y-96548718D01*
X88643301Y-96569908D01*
X88630900Y-96590322D01*
X88617519Y-96609946D01*
X88603192Y-96628764D01*
X88587955Y-96646760D01*
X88571841Y-96663919D01*
X88554887Y-96680225D01*
X88537126Y-96695663D01*
X88518594Y-96710218D01*
X88499326Y-96723873D01*
X88479356Y-96736614D01*
X88458720Y-96748424D01*
X88437451Y-96759289D01*
X88415586Y-96769193D01*
X88393159Y-96778120D01*
X88370205Y-96786055D01*
X88346759Y-96792982D01*
X88322856Y-96798886D01*
X88298530Y-96803751D01*
X88273816Y-96807562D01*
X88248750Y-96810303D01*
X88223366Y-96811960D01*
X88197699Y-96812515D01*
X88172032Y-96811960D01*
X88146648Y-96810303D01*
X88121582Y-96807562D01*
X88096869Y-96803751D01*
X88072543Y-96798886D01*
X88048640Y-96792982D01*
X88025193Y-96786055D01*
X88002240Y-96778120D01*
X87979813Y-96769193D01*
X87957948Y-96759289D01*
X87936680Y-96748424D01*
X87916044Y-96736614D01*
X87896075Y-96723873D01*
X87876806Y-96710218D01*
X87858275Y-96695663D01*
X87840514Y-96680225D01*
X87823560Y-96663919D01*
X87807447Y-96646760D01*
X87792210Y-96628764D01*
X87777883Y-96609946D01*
X87764502Y-96590322D01*
X87752102Y-96569908D01*
X87740717Y-96548718D01*
X87730383Y-96526768D01*
X87721133Y-96504075D01*
X87713004Y-96480653D01*
X87706030Y-96456517D01*
X87700245Y-96431685D01*
X87695686Y-96406169D01*
X87692385Y-96379988D01*
X87690380Y-96353155D01*
X87689703Y-96325687D01*
X87690380Y-96298218D01*
X87692385Y-96271385D01*
X87695686Y-96245203D01*
X87700245Y-96219688D01*
X87706030Y-96194855D01*
X87713004Y-96170720D01*
X87721133Y-96147297D01*
X87730383Y-96124604D01*
X87740717Y-96102654D01*
X87752102Y-96081464D01*
X87764502Y-96061049D01*
X87777883Y-96041425D01*
X87792210Y-96022607D01*
X87807447Y-96004611D01*
X87823560Y-95987451D01*
X87840514Y-95971145D01*
X87858275Y-95955706D01*
X87876806Y-95941152D01*
X87896075Y-95927496D01*
X87916044Y-95914755D01*
X87936680Y-95902944D01*
X87957948Y-95892079D01*
X87979813Y-95882175D01*
X88002240Y-95873248D01*
X88025193Y-95865313D01*
X88048640Y-95858386D01*
X88072543Y-95852482D01*
X88096869Y-95847616D01*
X88121582Y-95843805D01*
X88146648Y-95841064D01*
X88172032Y-95839407D01*
X88197699Y-95838852D01*
X88223366Y-95839407D01*
G37*
G36*
X106553700Y-95839407D02*
G01*
X106579084Y-95841064D01*
X106604150Y-95843805D01*
X106628864Y-95847616D01*
X106653190Y-95852482D01*
X106677093Y-95858386D01*
X106700539Y-95865313D01*
X106723493Y-95873248D01*
X106745920Y-95882175D01*
X106767785Y-95892079D01*
X106789052Y-95902944D01*
X106809689Y-95914755D01*
X106829658Y-95927496D01*
X106848926Y-95941152D01*
X106867458Y-95955706D01*
X106885218Y-95971145D01*
X106902172Y-95987451D01*
X106918286Y-96004611D01*
X106933523Y-96022607D01*
X106947849Y-96041425D01*
X106961230Y-96061049D01*
X106973631Y-96081464D01*
X106985015Y-96102654D01*
X106995350Y-96124604D01*
X107004599Y-96147297D01*
X107012728Y-96170720D01*
X107019703Y-96194855D01*
X107025487Y-96219688D01*
X107030047Y-96245203D01*
X107033347Y-96271385D01*
X107035353Y-96298218D01*
X107036029Y-96325687D01*
X107035353Y-96353155D01*
X107033347Y-96379988D01*
X107030047Y-96406169D01*
X107025487Y-96431685D01*
X107019703Y-96456517D01*
X107012728Y-96480653D01*
X107004599Y-96504075D01*
X106995350Y-96526768D01*
X106985015Y-96548718D01*
X106973631Y-96569908D01*
X106961230Y-96590322D01*
X106947849Y-96609946D01*
X106933523Y-96628764D01*
X106918286Y-96646760D01*
X106902172Y-96663919D01*
X106885218Y-96680225D01*
X106867458Y-96695663D01*
X106848926Y-96710218D01*
X106829658Y-96723873D01*
X106809689Y-96736614D01*
X106789052Y-96748424D01*
X106767785Y-96759289D01*
X106745920Y-96769193D01*
X106723493Y-96778120D01*
X106700539Y-96786055D01*
X106677093Y-96792982D01*
X106653190Y-96798886D01*
X106628864Y-96803751D01*
X106604150Y-96807562D01*
X106579084Y-96810303D01*
X106553700Y-96811960D01*
X106528034Y-96812515D01*
X106502367Y-96811960D01*
X106476983Y-96810303D01*
X106451916Y-96807562D01*
X106427203Y-96803751D01*
X106402877Y-96798886D01*
X106378973Y-96792982D01*
X106355527Y-96786055D01*
X106332573Y-96778120D01*
X106310146Y-96769193D01*
X106288281Y-96759289D01*
X106267013Y-96748424D01*
X106246377Y-96736614D01*
X106226407Y-96723873D01*
X106207138Y-96710218D01*
X106188607Y-96695663D01*
X106170846Y-96680225D01*
X106153891Y-96663919D01*
X106137778Y-96646760D01*
X106122540Y-96628764D01*
X106108214Y-96609946D01*
X106094832Y-96590322D01*
X106082432Y-96569908D01*
X106071047Y-96548718D01*
X106060712Y-96526768D01*
X106051463Y-96504075D01*
X106043333Y-96480653D01*
X106036359Y-96456517D01*
X106030574Y-96431685D01*
X106026014Y-96406169D01*
X106022714Y-96379988D01*
X106020708Y-96353155D01*
X106020032Y-96325687D01*
X106020708Y-96298218D01*
X106022714Y-96271385D01*
X106026014Y-96245203D01*
X106030574Y-96219688D01*
X106036359Y-96194855D01*
X106043333Y-96170720D01*
X106051463Y-96147297D01*
X106060712Y-96124604D01*
X106071047Y-96102654D01*
X106082432Y-96081464D01*
X106094832Y-96061049D01*
X106108214Y-96041425D01*
X106122540Y-96022607D01*
X106137778Y-96004611D01*
X106153891Y-95987451D01*
X106170846Y-95971145D01*
X106188607Y-95955706D01*
X106207138Y-95941152D01*
X106226407Y-95927496D01*
X106246377Y-95914755D01*
X106267013Y-95902944D01*
X106288281Y-95892079D01*
X106310146Y-95882175D01*
X106332573Y-95873248D01*
X106355527Y-95865313D01*
X106378973Y-95858386D01*
X106402877Y-95852482D01*
X106427203Y-95847616D01*
X106451916Y-95843805D01*
X106476983Y-95841064D01*
X106502367Y-95839407D01*
X106528034Y-95838852D01*
X106553700Y-95839407D01*
G37*
G36*
X84166979Y-94465000D02*
G01*
X84322546Y-94470953D01*
X84473649Y-94480875D01*
X84620534Y-94494765D01*
X84763451Y-94512624D01*
X84902646Y-94534452D01*
X85038369Y-94560248D01*
X85170868Y-94590014D01*
X85300389Y-94623748D01*
X85427182Y-94661450D01*
X85551495Y-94703122D01*
X85673575Y-94748762D01*
X85793670Y-94798371D01*
X85912030Y-94851949D01*
X86028901Y-94909496D01*
X86144531Y-94971011D01*
X86186865Y-96495016D01*
X85530701Y-96495016D01*
X85338788Y-95311572D01*
X85284348Y-95280536D01*
X85173910Y-95224492D01*
X85062387Y-95174743D01*
X84949624Y-95131195D01*
X84835466Y-95093755D01*
X84719757Y-95062330D01*
X84602343Y-95036827D01*
X84483068Y-95017154D01*
X84361778Y-95003216D01*
X84238317Y-94994922D01*
X84112531Y-94992178D01*
X83974823Y-94995579D01*
X83839597Y-95005743D01*
X83706974Y-95022613D01*
X83577081Y-95046129D01*
X83450039Y-95076234D01*
X83325975Y-95112869D01*
X83205010Y-95155977D01*
X83087271Y-95205499D01*
X82972880Y-95261378D01*
X82861962Y-95323554D01*
X82754640Y-95391971D01*
X82651039Y-95466569D01*
X82551283Y-95547291D01*
X82455496Y-95634079D01*
X82363801Y-95726874D01*
X82276323Y-95825618D01*
X82193186Y-95930253D01*
X82114514Y-96040721D01*
X82040430Y-96156964D01*
X81971060Y-96278924D01*
X81906526Y-96406542D01*
X81846954Y-96539761D01*
X81792466Y-96678522D01*
X81743187Y-96822767D01*
X81699242Y-96972438D01*
X81660753Y-97127476D01*
X81627845Y-97287825D01*
X81600643Y-97453425D01*
X81579270Y-97624218D01*
X81563849Y-97800147D01*
X81554506Y-97981153D01*
X81551364Y-98167178D01*
X81562940Y-98534210D01*
X81597336Y-98880933D01*
X81654056Y-99206882D01*
X81690632Y-99361921D01*
X81732604Y-99511592D01*
X81779908Y-99655838D01*
X81832484Y-99794598D01*
X81890269Y-99927817D01*
X81953200Y-100055435D01*
X82021217Y-100177395D01*
X82094256Y-100293638D01*
X82172257Y-100404106D01*
X82255156Y-100508741D01*
X82342892Y-100607485D01*
X82435403Y-100700280D01*
X82532628Y-100787067D01*
X82634503Y-100867789D01*
X82740966Y-100942387D01*
X82851957Y-101010803D01*
X82967413Y-101072980D01*
X83087271Y-101128858D01*
X83211470Y-101178380D01*
X83339948Y-101221488D01*
X83472643Y-101258123D01*
X83609493Y-101288228D01*
X83750435Y-101311744D01*
X83895408Y-101328613D01*
X84044350Y-101338777D01*
X84197199Y-101342178D01*
X84310152Y-101340680D01*
X84419200Y-101336143D01*
X84524898Y-101328505D01*
X84627806Y-101317705D01*
X84728482Y-101303680D01*
X84827484Y-101286369D01*
X84925369Y-101265709D01*
X85022697Y-101241638D01*
X85120024Y-101214095D01*
X85217910Y-101183017D01*
X85316912Y-101148342D01*
X85382532Y-101123356D01*
X85382532Y-100813016D01*
X85365445Y-98848087D01*
X84218366Y-98759854D01*
X84218366Y-98336520D01*
X86970032Y-98336520D01*
X86970032Y-98759854D01*
X86368529Y-98814534D01*
X86365125Y-98982426D01*
X86358841Y-99587992D01*
X86356195Y-100813016D01*
X86292700Y-101236349D01*
X86157489Y-101306266D01*
X86021627Y-101373021D01*
X85884958Y-101436428D01*
X85747329Y-101496299D01*
X85608583Y-101552451D01*
X85468566Y-101604695D01*
X85327122Y-101652847D01*
X85184097Y-101696721D01*
X85039336Y-101736129D01*
X84892684Y-101770887D01*
X84743985Y-101800808D01*
X84593084Y-101825706D01*
X84439828Y-101845395D01*
X84284059Y-101859689D01*
X84125624Y-101868401D01*
X83964368Y-101871347D01*
X83767938Y-101866728D01*
X83575616Y-101853002D01*
X83387542Y-101830361D01*
X83203855Y-101799000D01*
X83024696Y-101759112D01*
X82850202Y-101710892D01*
X82680515Y-101654532D01*
X82515773Y-101590227D01*
X82356116Y-101518171D01*
X82201683Y-101438557D01*
X82052615Y-101351579D01*
X81909050Y-101257431D01*
X81771128Y-101156306D01*
X81638988Y-101048400D01*
X81512771Y-100933904D01*
X81392616Y-100813013D01*
X81278661Y-100685922D01*
X81171048Y-100552822D01*
X81069914Y-100413910D01*
X80975400Y-100269377D01*
X80887646Y-100119418D01*
X80806791Y-99964228D01*
X80732973Y-99803998D01*
X80666334Y-99638924D01*
X80607012Y-99469199D01*
X80555147Y-99295017D01*
X80510878Y-99116572D01*
X80474345Y-98934057D01*
X80445688Y-98747667D01*
X80425046Y-98557594D01*
X80412559Y-98364033D01*
X80408365Y-98167178D01*
X80412620Y-97970324D01*
X80425289Y-97776763D01*
X80446229Y-97586691D01*
X80475296Y-97400301D01*
X80512348Y-97217787D01*
X80557239Y-97039342D01*
X80609829Y-96865160D01*
X80669971Y-96695436D01*
X80737525Y-96530362D01*
X80812345Y-96370133D01*
X80894289Y-96214942D01*
X80983213Y-96064984D01*
X81078974Y-95920452D01*
X81181428Y-95781539D01*
X81290433Y-95648440D01*
X81405843Y-95521348D01*
X81527518Y-95400458D01*
X81655311Y-95285962D01*
X81789082Y-95178056D01*
X81928685Y-95076931D01*
X82073978Y-94982783D01*
X82224817Y-94895806D01*
X82381058Y-94816192D01*
X82542560Y-94744135D01*
X82709177Y-94679830D01*
X82880767Y-94623471D01*
X83057185Y-94575250D01*
X83238290Y-94535363D01*
X83423937Y-94504001D01*
X83613983Y-94481361D01*
X83808285Y-94467634D01*
X84006699Y-94463016D01*
X84166979Y-94465000D01*
G37*
G36*
X93023694Y-100940018D02*
G01*
X93002527Y-102083017D01*
X93002527Y-103465335D01*
X93051153Y-103410891D01*
X93140879Y-103320762D01*
X93231938Y-103239284D01*
X93324299Y-103166301D01*
X93417932Y-103101658D01*
X93512805Y-103045202D01*
X93608888Y-102996775D01*
X93706148Y-102956224D01*
X93804556Y-102923394D01*
X93904080Y-102898129D01*
X94004689Y-102880275D01*
X94106353Y-102869676D01*
X94209039Y-102866177D01*
X94285919Y-102868279D01*
X94361716Y-102874554D01*
X94436344Y-102884961D01*
X94509712Y-102899457D01*
X94581731Y-102917999D01*
X94652312Y-102940545D01*
X94721367Y-102967051D01*
X94788805Y-102997477D01*
X94854538Y-103031777D01*
X94918476Y-103069911D01*
X94980531Y-103111836D01*
X95040614Y-103157508D01*
X95098634Y-103206885D01*
X95154503Y-103259925D01*
X95208132Y-103316585D01*
X95259432Y-103376823D01*
X95308314Y-103440594D01*
X95354688Y-103507858D01*
X95398465Y-103578572D01*
X95439556Y-103652692D01*
X95477872Y-103730176D01*
X95513324Y-103810982D01*
X95545823Y-103895066D01*
X95575279Y-103982387D01*
X95601604Y-104072902D01*
X95624708Y-104166567D01*
X95644502Y-104263341D01*
X95660897Y-104363181D01*
X95673804Y-104466043D01*
X95683134Y-104571886D01*
X95688797Y-104680667D01*
X95690704Y-104792343D01*
X95688673Y-104904202D01*
X95682638Y-105013514D01*
X95672688Y-105120214D01*
X95658913Y-105224236D01*
X95641402Y-105325513D01*
X95620244Y-105423981D01*
X95595528Y-105519573D01*
X95567343Y-105612223D01*
X95535778Y-105701866D01*
X95500923Y-105788435D01*
X95462867Y-105871865D01*
X95421698Y-105952089D01*
X95377506Y-106029042D01*
X95330381Y-106102658D01*
X95280410Y-106172872D01*
X95227684Y-106239616D01*
X95172292Y-106302826D01*
X95114322Y-106362435D01*
X95053863Y-106418378D01*
X94991006Y-106470589D01*
X94925839Y-106519001D01*
X94858451Y-106563549D01*
X94788931Y-106604167D01*
X94717369Y-106640789D01*
X94643853Y-106673350D01*
X94568474Y-106701783D01*
X94491319Y-106726022D01*
X94412478Y-106746002D01*
X94332040Y-106761656D01*
X94250095Y-106772920D01*
X94166731Y-106779726D01*
X94082037Y-106782010D01*
X93991009Y-106779431D01*
X93900508Y-106771303D01*
X93810565Y-106757035D01*
X93721211Y-106736039D01*
X93632477Y-106707726D01*
X93588352Y-106690641D01*
X93544394Y-106671506D01*
X93500607Y-106650247D01*
X93456994Y-106626790D01*
X93413559Y-106601063D01*
X93370307Y-106572990D01*
X93327240Y-106542499D01*
X93284363Y-106509516D01*
X93241680Y-106473968D01*
X93199195Y-106435779D01*
X93156911Y-106394878D01*
X93114833Y-106351191D01*
X93072964Y-106304642D01*
X93031308Y-106255160D01*
X93006672Y-106223953D01*
X92939032Y-106782010D01*
X91774866Y-106697342D01*
X91774866Y-106443350D01*
X92380340Y-106337391D01*
X92386051Y-105940638D01*
X92386183Y-105897209D01*
X93023694Y-105897209D01*
X93074300Y-105944602D01*
X93150993Y-106009859D01*
X93227717Y-106068790D01*
X93304379Y-106121521D01*
X93380885Y-106168175D01*
X93457144Y-106208875D01*
X93533063Y-106243746D01*
X93608547Y-106272913D01*
X93683504Y-106296498D01*
X93757841Y-106314626D01*
X93831465Y-106327422D01*
X93904283Y-106335008D01*
X93976202Y-106337509D01*
X94029520Y-106339928D01*
X94082268Y-106339247D01*
X94134372Y-106335464D01*
X94185759Y-106328582D01*
X94236356Y-106318598D01*
X94286089Y-106305514D01*
X94334883Y-106289329D01*
X94382666Y-106270044D01*
X94429364Y-106247658D01*
X94474903Y-106222172D01*
X94519209Y-106193584D01*
X94562209Y-106161897D01*
X94603830Y-106127108D01*
X94643997Y-106089219D01*
X94682637Y-106048230D01*
X94719676Y-106004140D01*
X94755041Y-105956949D01*
X94788659Y-105906657D01*
X94820454Y-105853265D01*
X94850355Y-105796773D01*
X94878286Y-105737180D01*
X94904175Y-105674486D01*
X94927948Y-105608692D01*
X94949531Y-105539797D01*
X94968851Y-105467801D01*
X94985833Y-105392705D01*
X95000405Y-105314509D01*
X95012493Y-105233212D01*
X95022023Y-105148814D01*
X95028921Y-105061315D01*
X95033114Y-104970717D01*
X95034528Y-104877017D01*
X95029629Y-104691995D01*
X95015180Y-104518011D01*
X94991554Y-104355189D01*
X94959121Y-104203654D01*
X94918256Y-104063528D01*
X94869329Y-103934936D01*
X94812712Y-103818003D01*
X94748778Y-103712852D01*
X94714183Y-103664733D01*
X94677899Y-103619607D01*
X94639971Y-103577488D01*
X94600446Y-103538392D01*
X94559371Y-103502334D01*
X94516793Y-103469331D01*
X94472757Y-103439398D01*
X94427310Y-103412549D01*
X94380499Y-103388801D01*
X94332370Y-103368169D01*
X94282970Y-103350669D01*
X94232346Y-103336316D01*
X94180543Y-103325125D01*
X94127608Y-103317113D01*
X94073589Y-103312294D01*
X94018530Y-103310684D01*
X93965671Y-103312250D01*
X93910176Y-103317257D01*
X93851890Y-103326172D01*
X93790659Y-103339458D01*
X93726327Y-103357581D01*
X93658740Y-103381006D01*
X93587742Y-103410198D01*
X93513178Y-103445622D01*
X93434894Y-103487744D01*
X93352734Y-103537027D01*
X93266543Y-103593938D01*
X93176167Y-103658942D01*
X93081449Y-103732503D01*
X93023694Y-103780578D01*
X93023694Y-105897209D01*
X92386183Y-105897209D01*
X92388696Y-105067514D01*
X92395262Y-103780578D01*
X92409863Y-100918844D01*
X92939032Y-100918844D01*
X93023694Y-100940018D01*
G37*
G36*
X103599249Y-97682505D02*
G01*
X103675048Y-97688958D01*
X103749675Y-97699650D01*
X103823044Y-97714533D01*
X103895063Y-97733554D01*
X103965645Y-97756664D01*
X104034699Y-97783813D01*
X104102138Y-97814950D01*
X104167871Y-97850025D01*
X104231809Y-97888987D01*
X104293864Y-97931786D01*
X104353946Y-97978372D01*
X104411967Y-98028694D01*
X104467836Y-98082702D01*
X104521465Y-98140345D01*
X104572765Y-98201573D01*
X104621646Y-98266336D01*
X104668020Y-98334583D01*
X104711797Y-98406264D01*
X104752888Y-98481329D01*
X104791204Y-98559727D01*
X104826656Y-98641408D01*
X104859154Y-98726321D01*
X104888610Y-98814416D01*
X104914935Y-98905642D01*
X104938039Y-98999950D01*
X104957833Y-99097289D01*
X104974228Y-99197608D01*
X104987134Y-99300858D01*
X104996464Y-99406987D01*
X105002127Y-99515945D01*
X105004035Y-99627682D01*
X105002003Y-99739480D01*
X104995968Y-99848615D01*
X104986018Y-99955029D01*
X104972243Y-100058664D01*
X104954732Y-100159462D01*
X104933574Y-100257364D01*
X104908858Y-100352314D01*
X104880674Y-100444252D01*
X104849109Y-100533120D01*
X104814254Y-100618861D01*
X104776198Y-100701416D01*
X104735030Y-100780726D01*
X104690838Y-100856735D01*
X104643713Y-100929383D01*
X104593742Y-100998613D01*
X104541016Y-101064367D01*
X104485624Y-101126586D01*
X104427654Y-101185212D01*
X104367196Y-101240187D01*
X104304339Y-101291452D01*
X104239172Y-101338951D01*
X104171784Y-101382625D01*
X104102264Y-101422415D01*
X104030702Y-101458263D01*
X103957186Y-101490112D01*
X103881806Y-101517902D01*
X103804651Y-101541577D01*
X103725810Y-101561078D01*
X103645372Y-101576346D01*
X103563426Y-101587324D01*
X103480061Y-101593953D01*
X103395368Y-101596176D01*
X103304340Y-101593597D01*
X103213840Y-101585469D01*
X103123898Y-101571201D01*
X103034545Y-101550205D01*
X102945811Y-101521892D01*
X102901687Y-101504807D01*
X102857729Y-101485672D01*
X102813942Y-101464413D01*
X102770329Y-101440957D01*
X102726894Y-101415229D01*
X102683642Y-101387157D01*
X102640575Y-101356666D01*
X102597699Y-101323683D01*
X102555016Y-101288134D01*
X102512531Y-101249946D01*
X102470247Y-101209045D01*
X102428169Y-101165357D01*
X102386300Y-101118809D01*
X102344645Y-101069327D01*
X102315863Y-101032870D01*
X102315863Y-101723190D01*
X102318509Y-102548693D01*
X102324793Y-102961443D01*
X102326108Y-103005781D01*
X103077863Y-103120181D01*
X103077863Y-103395346D01*
X101067029Y-103395346D01*
X101067029Y-103120181D01*
X101691476Y-103016105D01*
X101693097Y-102961439D01*
X101699381Y-102548688D01*
X101702026Y-101723190D01*
X101711621Y-100716064D01*
X102337030Y-100716064D01*
X102381020Y-100758771D01*
X102454510Y-100824028D01*
X102527658Y-100882959D01*
X102600496Y-100935690D01*
X102673055Y-100982343D01*
X102745366Y-101023043D01*
X102817460Y-101057914D01*
X102889368Y-101087080D01*
X102961121Y-101110665D01*
X103032749Y-101128793D01*
X103104284Y-101141588D01*
X103175757Y-101149174D01*
X103247199Y-101151675D01*
X103302439Y-101150308D01*
X103356990Y-101146198D01*
X103410781Y-101139327D01*
X103463743Y-101129682D01*
X103515805Y-101117246D01*
X103566899Y-101102004D01*
X103616954Y-101083940D01*
X103665901Y-101063040D01*
X103713670Y-101039287D01*
X103760190Y-101012666D01*
X103805393Y-100983161D01*
X103849208Y-100950757D01*
X103891566Y-100915439D01*
X103932398Y-100877191D01*
X103971632Y-100835997D01*
X104009200Y-100791842D01*
X104045031Y-100744710D01*
X104079056Y-100694587D01*
X104111206Y-100641456D01*
X104141410Y-100585302D01*
X104169598Y-100526109D01*
X104195702Y-100463862D01*
X104219650Y-100398546D01*
X104241374Y-100330144D01*
X104260803Y-100258642D01*
X104277868Y-100184024D01*
X104292499Y-100106275D01*
X104304626Y-100025378D01*
X104314180Y-99941319D01*
X104321091Y-99854081D01*
X104325288Y-99763650D01*
X104326703Y-99670010D01*
X104321809Y-99492203D01*
X104307397Y-99324069D01*
X104283868Y-99165857D01*
X104251627Y-99017815D01*
X104211077Y-98880191D01*
X104162620Y-98753233D01*
X104106659Y-98637189D01*
X104043598Y-98532307D01*
X103973840Y-98438835D01*
X103936575Y-98396455D01*
X103897788Y-98357021D01*
X103857527Y-98320563D01*
X103815844Y-98287113D01*
X103772789Y-98256702D01*
X103728412Y-98229360D01*
X103682765Y-98205119D01*
X103635896Y-98184009D01*
X103587857Y-98166062D01*
X103538697Y-98151309D01*
X103488468Y-98139780D01*
X103437220Y-98131506D01*
X103385002Y-98126519D01*
X103331867Y-98124850D01*
X103275286Y-98126649D01*
X103216566Y-98132292D01*
X103155552Y-98142152D01*
X103092088Y-98156601D01*
X103026019Y-98176010D01*
X102957191Y-98200753D01*
X102885449Y-98231201D01*
X102810636Y-98267726D01*
X102732599Y-98310700D01*
X102651183Y-98360495D01*
X102566232Y-98417484D01*
X102477591Y-98482038D01*
X102385106Y-98554530D01*
X102337030Y-98594790D01*
X102337030Y-100716064D01*
X101711621Y-100716064D01*
X101723200Y-99500687D01*
X101722869Y-99211298D01*
X101720553Y-98963580D01*
X101714267Y-98735707D01*
X101709015Y-98622391D01*
X101707360Y-98594790D01*
X101702026Y-98505850D01*
X101067029Y-98442349D01*
X101067029Y-98167190D01*
X102125360Y-97701517D01*
X102252362Y-97786185D01*
X102301644Y-98295421D01*
X102364488Y-98225058D01*
X102454213Y-98134929D01*
X102545272Y-98053450D01*
X102637633Y-97980467D01*
X102731265Y-97915825D01*
X102826138Y-97859368D01*
X102922220Y-97810942D01*
X103019480Y-97770391D01*
X103117887Y-97737560D01*
X103217411Y-97712295D01*
X103318020Y-97694441D01*
X103419683Y-97683842D01*
X103522369Y-97680343D01*
X103599249Y-97682505D01*
G37*
G36*
X99367198Y-97681590D02*
G01*
X99443069Y-97685311D01*
X99516832Y-97691512D01*
X99588673Y-97700194D01*
X99658777Y-97711356D01*
X99727331Y-97724998D01*
X99794520Y-97741121D01*
X99860532Y-97759725D01*
X99925551Y-97780809D01*
X99989764Y-97804373D01*
X100053357Y-97830418D01*
X100116515Y-97858944D01*
X100179426Y-97889949D01*
X100242275Y-97923435D01*
X100305248Y-97959402D01*
X100368530Y-97997848D01*
X100347363Y-98781021D01*
X99945197Y-98781021D01*
X99832060Y-98183018D01*
X99784210Y-98159042D01*
X99735273Y-98136878D01*
X99685902Y-98116916D01*
X99636035Y-98099186D01*
X99585610Y-98083719D01*
X99534564Y-98070547D01*
X99482837Y-98059701D01*
X99430365Y-98051211D01*
X99377088Y-98045108D01*
X99322941Y-98041423D01*
X99267865Y-98040188D01*
X99179317Y-98042643D01*
X99096258Y-98049904D01*
X99018717Y-98061815D01*
X98946727Y-98078222D01*
X98880317Y-98098970D01*
X98849215Y-98110923D01*
X98819520Y-98123903D01*
X98791236Y-98137891D01*
X98764366Y-98152868D01*
X98738915Y-98168813D01*
X98714886Y-98185708D01*
X98692283Y-98203533D01*
X98671111Y-98222268D01*
X98651372Y-98241896D01*
X98633072Y-98262395D01*
X98616213Y-98283747D01*
X98600800Y-98305932D01*
X98586837Y-98328931D01*
X98574327Y-98352725D01*
X98563274Y-98377293D01*
X98553682Y-98402618D01*
X98545555Y-98428679D01*
X98538897Y-98455457D01*
X98533712Y-98482932D01*
X98530004Y-98511086D01*
X98527776Y-98539899D01*
X98527033Y-98569351D01*
X98527595Y-98602413D01*
X98529301Y-98634165D01*
X98532178Y-98664661D01*
X98536252Y-98693955D01*
X98541550Y-98722102D01*
X98548101Y-98749156D01*
X98555930Y-98775172D01*
X98565066Y-98800203D01*
X98575535Y-98824303D01*
X98587364Y-98847528D01*
X98600581Y-98869931D01*
X98615212Y-98891567D01*
X98631285Y-98912490D01*
X98648827Y-98932753D01*
X98667865Y-98952412D01*
X98688426Y-98971521D01*
X98710538Y-98990133D01*
X98734227Y-99008304D01*
X98759520Y-99026087D01*
X98786445Y-99043537D01*
X98815029Y-99060708D01*
X98845299Y-99077654D01*
X98911005Y-99111089D01*
X98983780Y-99144275D01*
X99063842Y-99177648D01*
X99151407Y-99211641D01*
X99246692Y-99246689D01*
X99479529Y-99331357D01*
X99620715Y-99387679D01*
X99750770Y-99445582D01*
X99869973Y-99505159D01*
X99978602Y-99566504D01*
X100076938Y-99629709D01*
X100165258Y-99694868D01*
X100243843Y-99762073D01*
X100312971Y-99831417D01*
X100372921Y-99902994D01*
X100423972Y-99976896D01*
X100466403Y-100053216D01*
X100500494Y-100132048D01*
X100526524Y-100213484D01*
X100544771Y-100297618D01*
X100555514Y-100384542D01*
X100559033Y-100474350D01*
X100557546Y-100527789D01*
X100553085Y-100580892D01*
X100545656Y-100633568D01*
X100535262Y-100685728D01*
X100521907Y-100737284D01*
X100505595Y-100788146D01*
X100486329Y-100838225D01*
X100464114Y-100887432D01*
X100438953Y-100935678D01*
X100410851Y-100982874D01*
X100379810Y-101028930D01*
X100345836Y-101073758D01*
X100308932Y-101117268D01*
X100269102Y-101159370D01*
X100226349Y-101199977D01*
X100180678Y-101238999D01*
X100132092Y-101276346D01*
X100080596Y-101311930D01*
X100026193Y-101345662D01*
X99968887Y-101377451D01*
X99908681Y-101407210D01*
X99845581Y-101434848D01*
X99779589Y-101460278D01*
X99710710Y-101483409D01*
X99638948Y-101504153D01*
X99564305Y-101522420D01*
X99486787Y-101538121D01*
X99406397Y-101551167D01*
X99323139Y-101561470D01*
X99237017Y-101568939D01*
X99148034Y-101573486D01*
X99056195Y-101575021D01*
X98974056Y-101581237D01*
X98894181Y-101584073D01*
X98816352Y-101583623D01*
X98740352Y-101579980D01*
X98665964Y-101573235D01*
X98592972Y-101563484D01*
X98521157Y-101550818D01*
X98450304Y-101535330D01*
X98380194Y-101517114D01*
X98310612Y-101496262D01*
X98241339Y-101472868D01*
X98172160Y-101447024D01*
X98102856Y-101418823D01*
X98033211Y-101388359D01*
X97892029Y-101321011D01*
X97870862Y-100474344D01*
X98294196Y-100474344D01*
X98443678Y-101132077D01*
X98446706Y-101133492D01*
X98503494Y-101157057D01*
X98561428Y-101178141D01*
X98620603Y-101196744D01*
X98681111Y-101212868D01*
X98743045Y-101226510D01*
X98806498Y-101237672D01*
X98871563Y-101246354D01*
X98938334Y-101252555D01*
X99006902Y-101256276D01*
X99077362Y-101257516D01*
X99188503Y-101254808D01*
X99291800Y-101246767D01*
X99387345Y-101233518D01*
X99475232Y-101215183D01*
X99555553Y-101191887D01*
X99592906Y-101178417D01*
X99628402Y-101163754D01*
X99662054Y-101147912D01*
X99693872Y-101130908D01*
X99723868Y-101112757D01*
X99752055Y-101093474D01*
X99778443Y-101073074D01*
X99803044Y-101051574D01*
X99825871Y-101028989D01*
X99846934Y-101005334D01*
X99866245Y-100980625D01*
X99883816Y-100954878D01*
X99899658Y-100928107D01*
X99913783Y-100900328D01*
X99926203Y-100871558D01*
X99936929Y-100841811D01*
X99945973Y-100811102D01*
X99953347Y-100779448D01*
X99963130Y-100713365D01*
X99966370Y-100643686D01*
X99965687Y-100612426D01*
X99963636Y-100582123D01*
X99960213Y-100552742D01*
X99955414Y-100524250D01*
X99949236Y-100496610D01*
X99941673Y-100469787D01*
X99932723Y-100443748D01*
X99922382Y-100418457D01*
X99910646Y-100393879D01*
X99897510Y-100369979D01*
X99882972Y-100346723D01*
X99867026Y-100324075D01*
X99849670Y-100302000D01*
X99830899Y-100280465D01*
X99810709Y-100259433D01*
X99789098Y-100238871D01*
X99766060Y-100218742D01*
X99741591Y-100199013D01*
X99715689Y-100179648D01*
X99688349Y-100160613D01*
X99629340Y-100123391D01*
X99564533Y-100087068D01*
X99493897Y-100051365D01*
X99417400Y-100016003D01*
X99335013Y-99980704D01*
X99246704Y-99945187D01*
X98886865Y-99818185D01*
X98781988Y-99777464D01*
X98681854Y-99734510D01*
X98586743Y-99689076D01*
X98496934Y-99640913D01*
X98412706Y-99589774D01*
X98334339Y-99535410D01*
X98262111Y-99477574D01*
X98196301Y-99416017D01*
X98165890Y-99383766D01*
X98137188Y-99350492D01*
X98110230Y-99316163D01*
X98085051Y-99280749D01*
X98061687Y-99244219D01*
X98040170Y-99206542D01*
X98020538Y-99167687D01*
X98002824Y-99127622D01*
X97987063Y-99086318D01*
X97973291Y-99043742D01*
X97961541Y-98999864D01*
X97951850Y-98954652D01*
X97944252Y-98908077D01*
X97938781Y-98860106D01*
X97935473Y-98810708D01*
X97934363Y-98759854D01*
X97935786Y-98706475D01*
X97940042Y-98653550D01*
X97947112Y-98601159D01*
X97956977Y-98549385D01*
X97969616Y-98498309D01*
X97985011Y-98448011D01*
X98003142Y-98398574D01*
X98023991Y-98350079D01*
X98047537Y-98302607D01*
X98073760Y-98256239D01*
X98102643Y-98211058D01*
X98134165Y-98167143D01*
X98168307Y-98124578D01*
X98205050Y-98083443D01*
X98244374Y-98043819D01*
X98286260Y-98005788D01*
X98330688Y-97969432D01*
X98377639Y-97934831D01*
X98427094Y-97902067D01*
X98479034Y-97871222D01*
X98533438Y-97842377D01*
X98590288Y-97815613D01*
X98649564Y-97791012D01*
X98711247Y-97768655D01*
X98775318Y-97748623D01*
X98841756Y-97730998D01*
X98910544Y-97715861D01*
X98981660Y-97703294D01*
X99055087Y-97693378D01*
X99130804Y-97686194D01*
X99208792Y-97681824D01*
X99289032Y-97680350D01*
X99367198Y-97681590D01*
G37*
G36*
X95797079Y-97742812D02*
G01*
X95869735Y-97747414D01*
X95941143Y-97755384D01*
X96011217Y-97766688D01*
X96079873Y-97781290D01*
X96147026Y-97799155D01*
X96212589Y-97820248D01*
X96276478Y-97844535D01*
X96338607Y-97871981D01*
X96398892Y-97902551D01*
X96457247Y-97936209D01*
X96513586Y-97972922D01*
X96567824Y-98012654D01*
X96619877Y-98055370D01*
X96669658Y-98101036D01*
X96717083Y-98149616D01*
X96762066Y-98201076D01*
X96804522Y-98255381D01*
X96844366Y-98312495D01*
X96881513Y-98372385D01*
X96915877Y-98435015D01*
X96947372Y-98500350D01*
X96975914Y-98568356D01*
X97001418Y-98638997D01*
X97023798Y-98712238D01*
X97042969Y-98788046D01*
X97058845Y-98866384D01*
X97071342Y-98947218D01*
X97080374Y-99030514D01*
X97085855Y-99116236D01*
X97087702Y-99204349D01*
X97086709Y-99273801D01*
X97083732Y-99339285D01*
X97078770Y-99400800D01*
X97071824Y-99458347D01*
X97062894Y-99511926D01*
X97057685Y-99537227D01*
X97051980Y-99561536D01*
X97045779Y-99584852D01*
X97039082Y-99607177D01*
X97031889Y-99628509D01*
X97024201Y-99648849D01*
X94527221Y-99648849D01*
X94532428Y-99808741D01*
X94539735Y-99895148D01*
X94549890Y-99978792D01*
X94562851Y-100059661D01*
X94578575Y-100137743D01*
X94597020Y-100213027D01*
X94618143Y-100285501D01*
X94641902Y-100355154D01*
X94668254Y-100421973D01*
X94697156Y-100485948D01*
X94728565Y-100547066D01*
X94762440Y-100605317D01*
X94798736Y-100660687D01*
X94837413Y-100713167D01*
X94878426Y-100762743D01*
X94921734Y-100809405D01*
X94967294Y-100853141D01*
X95015063Y-100893939D01*
X95064999Y-100931787D01*
X95117058Y-100966675D01*
X95171199Y-100998590D01*
X95227379Y-101027520D01*
X95285554Y-101053455D01*
X95345683Y-101076381D01*
X95407723Y-101096289D01*
X95471631Y-101113166D01*
X95537364Y-101127001D01*
X95604880Y-101137781D01*
X95674137Y-101145496D01*
X95745091Y-101150133D01*
X95817700Y-101151681D01*
X95910753Y-101148989D01*
X95999559Y-101141057D01*
X96084333Y-101128101D01*
X96165294Y-101110340D01*
X96242658Y-101087989D01*
X96316643Y-101061267D01*
X96387465Y-101030390D01*
X96455342Y-100995576D01*
X96520491Y-100957040D01*
X96583128Y-100915001D01*
X96643470Y-100869676D01*
X96701736Y-100821280D01*
X96758141Y-100770033D01*
X96812903Y-100716150D01*
X96866239Y-100659848D01*
X96918366Y-100601346D01*
X97108869Y-100749515D01*
X97054552Y-100850429D01*
X96994809Y-100946630D01*
X96962912Y-100992886D01*
X96929670Y-101037870D01*
X96895088Y-101081552D01*
X96859168Y-101123901D01*
X96821915Y-101164886D01*
X96783332Y-101204475D01*
X96743424Y-101242639D01*
X96702195Y-101279344D01*
X96659647Y-101314562D01*
X96615786Y-101348260D01*
X96570615Y-101380408D01*
X96524137Y-101410975D01*
X96476358Y-101439929D01*
X96427279Y-101467240D01*
X96376907Y-101492877D01*
X96325244Y-101516808D01*
X96272294Y-101539003D01*
X96218061Y-101559431D01*
X96162549Y-101578060D01*
X96105763Y-101594860D01*
X96047705Y-101609800D01*
X95988379Y-101622848D01*
X95927791Y-101633974D01*
X95865942Y-101643147D01*
X95802838Y-101650335D01*
X95738482Y-101655508D01*
X95672878Y-101658634D01*
X95606030Y-101659683D01*
X95507937Y-101657582D01*
X95412130Y-101651306D01*
X95318665Y-101640899D01*
X95227594Y-101626404D01*
X95138973Y-101607861D01*
X95052855Y-101585316D01*
X94969296Y-101558809D01*
X94888349Y-101528384D01*
X94810068Y-101494083D01*
X94734508Y-101455949D01*
X94661723Y-101414024D01*
X94591767Y-101368352D01*
X94524695Y-101318975D01*
X94460560Y-101265934D01*
X94399418Y-101209274D01*
X94341322Y-101149037D01*
X94286326Y-101085265D01*
X94234485Y-101018001D01*
X94185854Y-100947287D01*
X94140486Y-100873167D01*
X94098435Y-100795683D01*
X94059756Y-100714877D01*
X94024504Y-100630792D01*
X93992732Y-100543470D01*
X93964494Y-100452956D01*
X93939846Y-100359290D01*
X93918841Y-100262516D01*
X93901533Y-100162676D01*
X93887977Y-100059813D01*
X93878227Y-99953969D01*
X93872337Y-99845188D01*
X93870361Y-99733511D01*
X93872759Y-99621653D01*
X93879865Y-99512341D01*
X93891552Y-99405642D01*
X93903079Y-99331351D01*
X94540994Y-99331351D01*
X96008197Y-99331351D01*
X96043054Y-99330798D01*
X96076214Y-99329159D01*
X96107714Y-99326467D01*
X96137595Y-99322751D01*
X96165894Y-99318044D01*
X96192651Y-99312375D01*
X96217904Y-99305776D01*
X96241692Y-99298277D01*
X96264054Y-99289911D01*
X96285028Y-99280707D01*
X96304653Y-99270697D01*
X96322969Y-99259912D01*
X96340013Y-99248383D01*
X96355825Y-99236141D01*
X96370443Y-99223217D01*
X96383906Y-99209641D01*
X96396253Y-99195446D01*
X96407522Y-99180661D01*
X96417753Y-99165318D01*
X96426984Y-99149448D01*
X96435253Y-99133082D01*
X96442600Y-99116251D01*
X96454682Y-99081318D01*
X96463540Y-99044897D01*
X96469483Y-99007235D01*
X96472821Y-98968581D01*
X96473865Y-98929184D01*
X96472757Y-98887647D01*
X96469467Y-98846424D01*
X96464046Y-98805581D01*
X96456543Y-98765183D01*
X96447010Y-98725297D01*
X96435496Y-98685989D01*
X96422052Y-98647324D01*
X96406728Y-98609368D01*
X96389575Y-98572188D01*
X96370642Y-98535848D01*
X96349982Y-98500416D01*
X96327643Y-98465956D01*
X96303676Y-98432535D01*
X96278132Y-98400218D01*
X96251061Y-98369072D01*
X96222513Y-98339162D01*
X96192539Y-98310555D01*
X96161189Y-98283316D01*
X96128513Y-98257510D01*
X96094562Y-98233205D01*
X96059387Y-98210465D01*
X96023037Y-98189357D01*
X95985563Y-98169947D01*
X95947015Y-98152300D01*
X95907445Y-98136483D01*
X95866901Y-98122560D01*
X95825435Y-98110599D01*
X95783097Y-98100665D01*
X95739937Y-98092824D01*
X95696005Y-98087141D01*
X95651353Y-98083684D01*
X95606030Y-98082516D01*
X95558239Y-98083765D01*
X95510192Y-98087544D01*
X95462005Y-98093905D01*
X95413795Y-98102898D01*
X95365678Y-98114572D01*
X95317771Y-98128979D01*
X95270189Y-98146168D01*
X95223048Y-98166191D01*
X95176466Y-98189097D01*
X95130558Y-98214937D01*
X95085441Y-98243762D01*
X95041230Y-98275621D01*
X94998043Y-98310565D01*
X94955995Y-98348645D01*
X94915203Y-98389910D01*
X94875783Y-98434412D01*
X94837851Y-98482201D01*
X94801524Y-98533326D01*
X94766917Y-98587839D01*
X94734148Y-98645789D01*
X94703332Y-98707228D01*
X94674586Y-98772205D01*
X94648025Y-98840772D01*
X94623767Y-98912977D01*
X94601927Y-98988872D01*
X94582622Y-99068508D01*
X94565968Y-99151933D01*
X94552081Y-99239200D01*
X94541078Y-99330358D01*
X94540994Y-99331351D01*
X93903079Y-99331351D01*
X93907693Y-99301620D01*
X93928158Y-99200343D01*
X93952822Y-99101876D01*
X93981554Y-99006284D01*
X94014229Y-98913634D01*
X94050717Y-98823992D01*
X94090891Y-98737423D01*
X94134623Y-98653994D01*
X94181785Y-98573770D01*
X94232249Y-98496817D01*
X94285887Y-98423201D01*
X94342571Y-98352988D01*
X94402174Y-98286243D01*
X94464568Y-98223034D01*
X94529624Y-98163424D01*
X94597215Y-98107482D01*
X94667213Y-98055271D01*
X94739490Y-98006859D01*
X94813917Y-97962311D01*
X94890368Y-97921693D01*
X94968714Y-97885071D01*
X95048828Y-97852510D01*
X95130581Y-97824078D01*
X95213845Y-97799838D01*
X95298493Y-97779858D01*
X95384397Y-97764204D01*
X95471429Y-97752940D01*
X95559461Y-97746134D01*
X95648364Y-97743851D01*
X95723260Y-97741612D01*
X95797079Y-97742812D01*
G37*
G36*
X109978744Y-97742812D02*
G01*
X110051400Y-97747414D01*
X110122808Y-97755384D01*
X110192882Y-97766688D01*
X110261538Y-97781290D01*
X110328691Y-97799155D01*
X110394254Y-97820248D01*
X110458143Y-97844535D01*
X110520272Y-97871981D01*
X110580557Y-97902551D01*
X110638912Y-97936209D01*
X110695251Y-97972922D01*
X110749489Y-98012654D01*
X110801542Y-98055370D01*
X110851323Y-98101036D01*
X110898748Y-98149616D01*
X110943731Y-98201076D01*
X110986187Y-98255381D01*
X111026031Y-98312495D01*
X111063178Y-98372385D01*
X111097542Y-98435015D01*
X111129037Y-98500350D01*
X111157580Y-98568356D01*
X111183083Y-98638997D01*
X111205463Y-98712238D01*
X111224634Y-98788046D01*
X111240510Y-98866384D01*
X111253007Y-98947218D01*
X111262039Y-99030514D01*
X111267520Y-99116236D01*
X111269367Y-99204349D01*
X111268374Y-99273801D01*
X111265398Y-99339285D01*
X111260437Y-99400800D01*
X111253491Y-99458347D01*
X111244561Y-99511926D01*
X111239352Y-99537227D01*
X111233647Y-99561536D01*
X111227446Y-99584852D01*
X111220749Y-99607177D01*
X111213555Y-99628509D01*
X111205866Y-99648849D01*
X108708886Y-99648849D01*
X108714093Y-99808741D01*
X108721400Y-99895148D01*
X108731555Y-99978792D01*
X108744516Y-100059661D01*
X108760240Y-100137743D01*
X108778685Y-100213027D01*
X108799809Y-100285501D01*
X108823567Y-100355154D01*
X108849919Y-100421973D01*
X108878821Y-100485948D01*
X108910230Y-100547066D01*
X108944105Y-100605317D01*
X108980401Y-100660687D01*
X109019078Y-100713167D01*
X109060092Y-100762743D01*
X109103400Y-100809405D01*
X109148959Y-100853141D01*
X109196728Y-100893939D01*
X109246664Y-100931787D01*
X109298724Y-100966675D01*
X109352864Y-100998590D01*
X109409044Y-101027520D01*
X109467219Y-101053455D01*
X109527348Y-101076381D01*
X109589388Y-101096289D01*
X109653296Y-101113166D01*
X109719029Y-101127001D01*
X109786546Y-101137781D01*
X109855802Y-101145496D01*
X109926756Y-101150133D01*
X109999365Y-101151681D01*
X110092418Y-101148989D01*
X110181224Y-101141057D01*
X110265999Y-101128101D01*
X110346960Y-101110340D01*
X110424325Y-101087989D01*
X110498310Y-101061267D01*
X110569133Y-101030390D01*
X110637010Y-100995576D01*
X110702159Y-100957040D01*
X110764797Y-100915001D01*
X110825140Y-100869676D01*
X110883406Y-100821280D01*
X110939812Y-100770033D01*
X110994574Y-100716150D01*
X111047910Y-100659848D01*
X111100037Y-100601346D01*
X111290534Y-100749515D01*
X111236217Y-100850429D01*
X111176474Y-100946630D01*
X111144577Y-100992886D01*
X111111335Y-101037870D01*
X111076753Y-101081552D01*
X111040833Y-101123901D01*
X111003580Y-101164886D01*
X110964997Y-101204475D01*
X110925089Y-101242639D01*
X110883860Y-101279344D01*
X110841312Y-101314562D01*
X110797451Y-101348260D01*
X110752280Y-101380408D01*
X110705802Y-101410975D01*
X110658023Y-101439929D01*
X110608945Y-101467240D01*
X110558572Y-101492877D01*
X110506909Y-101516808D01*
X110453959Y-101539003D01*
X110399726Y-101559431D01*
X110344215Y-101578060D01*
X110287428Y-101594860D01*
X110229370Y-101609800D01*
X110170044Y-101622848D01*
X110109456Y-101633974D01*
X110047607Y-101643147D01*
X109984503Y-101650335D01*
X109920147Y-101655508D01*
X109854543Y-101658634D01*
X109787695Y-101659683D01*
X109689602Y-101657582D01*
X109593795Y-101651306D01*
X109500330Y-101640899D01*
X109409259Y-101626404D01*
X109320638Y-101607861D01*
X109234520Y-101585316D01*
X109150961Y-101558809D01*
X109070014Y-101528384D01*
X108991733Y-101494083D01*
X108916173Y-101455949D01*
X108843388Y-101414024D01*
X108773432Y-101368352D01*
X108706360Y-101318975D01*
X108642225Y-101265934D01*
X108581083Y-101209274D01*
X108522987Y-101149037D01*
X108467991Y-101085265D01*
X108416151Y-101018001D01*
X108367519Y-100947287D01*
X108322151Y-100873167D01*
X108280100Y-100795683D01*
X108241422Y-100714877D01*
X108206169Y-100630792D01*
X108174397Y-100543470D01*
X108146159Y-100452956D01*
X108121511Y-100359290D01*
X108100506Y-100262516D01*
X108083198Y-100162676D01*
X108069642Y-100059813D01*
X108059892Y-99953969D01*
X108054002Y-99845188D01*
X108052026Y-99733511D01*
X108054424Y-99621653D01*
X108061530Y-99512341D01*
X108073217Y-99405642D01*
X108084744Y-99331351D01*
X108722659Y-99331351D01*
X110189862Y-99331351D01*
X110224719Y-99330798D01*
X110257879Y-99329159D01*
X110289379Y-99326467D01*
X110319260Y-99322751D01*
X110347559Y-99318044D01*
X110374316Y-99312375D01*
X110399569Y-99305776D01*
X110423357Y-99298277D01*
X110445719Y-99289911D01*
X110466693Y-99280707D01*
X110486318Y-99270697D01*
X110504634Y-99259912D01*
X110521678Y-99248383D01*
X110537490Y-99236141D01*
X110552108Y-99223217D01*
X110565571Y-99209641D01*
X110577918Y-99195446D01*
X110589187Y-99180661D01*
X110599418Y-99165318D01*
X110608649Y-99149448D01*
X110616918Y-99133082D01*
X110624265Y-99116251D01*
X110636347Y-99081318D01*
X110645205Y-99044897D01*
X110651148Y-99007235D01*
X110654486Y-98968581D01*
X110655530Y-98929184D01*
X110654422Y-98887647D01*
X110651132Y-98846424D01*
X110645711Y-98805581D01*
X110638208Y-98765183D01*
X110628675Y-98725297D01*
X110617161Y-98685989D01*
X110603717Y-98647324D01*
X110588393Y-98609368D01*
X110571240Y-98572188D01*
X110552307Y-98535848D01*
X110531647Y-98500416D01*
X110509308Y-98465956D01*
X110485341Y-98432535D01*
X110459797Y-98400218D01*
X110432726Y-98369072D01*
X110404178Y-98339162D01*
X110374204Y-98310555D01*
X110342854Y-98283316D01*
X110310178Y-98257510D01*
X110276227Y-98233205D01*
X110241052Y-98210465D01*
X110204702Y-98189357D01*
X110167228Y-98169947D01*
X110128681Y-98152300D01*
X110089110Y-98136483D01*
X110048566Y-98122560D01*
X110007100Y-98110599D01*
X109964762Y-98100665D01*
X109921602Y-98092824D01*
X109877670Y-98087141D01*
X109833018Y-98083684D01*
X109787695Y-98082516D01*
X109739904Y-98083765D01*
X109691857Y-98087544D01*
X109643670Y-98093905D01*
X109595460Y-98102898D01*
X109547343Y-98114572D01*
X109499436Y-98128979D01*
X109451854Y-98146168D01*
X109404713Y-98166191D01*
X109358131Y-98189097D01*
X109312223Y-98214937D01*
X109267106Y-98243762D01*
X109222895Y-98275621D01*
X109179708Y-98310565D01*
X109137660Y-98348645D01*
X109096868Y-98389910D01*
X109057448Y-98434412D01*
X109019516Y-98482201D01*
X108983189Y-98533326D01*
X108948582Y-98587839D01*
X108915813Y-98645789D01*
X108884997Y-98707228D01*
X108856251Y-98772205D01*
X108829690Y-98840772D01*
X108805432Y-98912977D01*
X108783592Y-98988872D01*
X108764287Y-99068508D01*
X108747633Y-99151933D01*
X108733746Y-99239200D01*
X108722743Y-99330358D01*
X108722659Y-99331351D01*
X108084744Y-99331351D01*
X108089358Y-99301620D01*
X108109823Y-99200343D01*
X108134487Y-99101876D01*
X108163219Y-99006284D01*
X108195894Y-98913634D01*
X108232382Y-98823992D01*
X108272556Y-98737423D01*
X108316288Y-98653994D01*
X108363450Y-98573770D01*
X108413914Y-98496817D01*
X108467552Y-98423201D01*
X108524236Y-98352988D01*
X108583840Y-98286243D01*
X108646233Y-98223034D01*
X108711289Y-98163424D01*
X108778880Y-98107482D01*
X108848878Y-98055271D01*
X108921155Y-98006859D01*
X108995582Y-97962311D01*
X109072033Y-97921693D01*
X109150379Y-97885071D01*
X109230493Y-97852510D01*
X109312246Y-97824078D01*
X109395510Y-97799838D01*
X109480158Y-97779858D01*
X109566062Y-97764204D01*
X109653094Y-97752940D01*
X109741126Y-97746134D01*
X109830029Y-97743851D01*
X109904925Y-97741612D01*
X109978744Y-97742812D01*
G37*
G36*
X89783136Y-102955141D02*
G01*
X89852651Y-102960572D01*
X89919810Y-102968262D01*
X89984612Y-102978262D01*
X90047058Y-102990622D01*
X90107147Y-103005393D01*
X90164880Y-103022625D01*
X90220257Y-103042369D01*
X90273277Y-103064675D01*
X90323940Y-103089592D01*
X90372247Y-103117172D01*
X90418198Y-103147466D01*
X90461792Y-103180522D01*
X90503030Y-103216393D01*
X90541911Y-103255128D01*
X90578436Y-103296777D01*
X90612605Y-103341391D01*
X90644417Y-103389020D01*
X90673872Y-103439715D01*
X90700972Y-103493527D01*
X90725714Y-103550504D01*
X90748100Y-103610699D01*
X90768130Y-103674160D01*
X90785804Y-103740940D01*
X90801120Y-103811087D01*
X90814081Y-103884653D01*
X90824685Y-103961687D01*
X90832932Y-104042241D01*
X90838824Y-104126364D01*
X90842358Y-104214107D01*
X90843536Y-104305520D01*
X90843536Y-105956515D01*
X90844772Y-106021282D01*
X90848456Y-106080747D01*
X90854559Y-106135065D01*
X90863050Y-106184390D01*
X90873897Y-106228879D01*
X90887069Y-106268685D01*
X90902536Y-106303965D01*
X90911120Y-106319955D01*
X90920266Y-106334872D01*
X90929970Y-106348735D01*
X90940229Y-106361563D01*
X90951037Y-106373376D01*
X90962393Y-106384192D01*
X90974290Y-106394032D01*
X90986727Y-106402914D01*
X90999698Y-106410859D01*
X91013201Y-106417884D01*
X91027230Y-106424011D01*
X91041783Y-106429258D01*
X91072442Y-106437190D01*
X91105147Y-106441836D01*
X91139868Y-106443350D01*
X91163195Y-106442611D01*
X91185592Y-106440415D01*
X91207121Y-106436792D01*
X91227844Y-106431774D01*
X91247822Y-106425392D01*
X91267118Y-106417677D01*
X91285794Y-106408660D01*
X91303912Y-106398371D01*
X91321534Y-106386842D01*
X91338722Y-106374104D01*
X91355538Y-106360188D01*
X91372044Y-106345125D01*
X91388301Y-106328945D01*
X91404373Y-106311681D01*
X91420321Y-106293362D01*
X91436206Y-106274020D01*
X91499701Y-106443350D01*
X91464913Y-106496701D01*
X91431737Y-106545710D01*
X91399801Y-106590503D01*
X91368734Y-106631204D01*
X91338162Y-106667935D01*
X91307714Y-106700822D01*
X91277019Y-106729988D01*
X91261461Y-106743215D01*
X91245702Y-106755558D01*
X91229696Y-106767033D01*
X91213394Y-106777655D01*
X91196752Y-106787440D01*
X91179721Y-106796403D01*
X91162257Y-106804560D01*
X91144312Y-106811927D01*
X91125840Y-106818518D01*
X91106795Y-106824350D01*
X91087129Y-106829438D01*
X91066797Y-106833796D01*
X91045751Y-106837442D01*
X91023946Y-106840390D01*
X90977870Y-106844256D01*
X90928198Y-106845517D01*
X90888949Y-106838823D01*
X90850591Y-106830660D01*
X90813147Y-106821047D01*
X90776642Y-106810005D01*
X90741097Y-106797551D01*
X90706537Y-106783706D01*
X90672985Y-106768490D01*
X90640464Y-106751920D01*
X90608997Y-106734017D01*
X90578607Y-106714801D01*
X90549319Y-106694290D01*
X90521154Y-106672504D01*
X90494136Y-106649462D01*
X90468289Y-106625184D01*
X90443635Y-106599688D01*
X90420199Y-106572996D01*
X90398003Y-106545125D01*
X90377070Y-106516095D01*
X90357424Y-106485925D01*
X90339088Y-106454636D01*
X90322085Y-106422246D01*
X90306439Y-106388774D01*
X90292172Y-106354241D01*
X90279309Y-106318665D01*
X90267872Y-106282066D01*
X90257884Y-106244463D01*
X90249369Y-106205875D01*
X90247041Y-106192756D01*
X90105588Y-106331890D01*
X90027670Y-106405560D01*
X89952543Y-106473773D01*
X89879648Y-106536529D01*
X89808428Y-106593828D01*
X89738324Y-106645669D01*
X89668778Y-106692054D01*
X89599232Y-106732981D01*
X89529127Y-106768452D01*
X89457907Y-106798465D01*
X89385012Y-106823022D01*
X89309885Y-106842121D01*
X89231967Y-106855764D01*
X89150701Y-106863949D01*
X89065527Y-106866678D01*
X88958510Y-106862952D01*
X88852330Y-106851753D01*
X88747825Y-106833051D01*
X88645831Y-106806815D01*
X88547186Y-106773013D01*
X88452727Y-106731615D01*
X88407328Y-106708057D01*
X88363290Y-106682589D01*
X88320718Y-106655206D01*
X88279714Y-106625905D01*
X88240385Y-106594681D01*
X88202835Y-106561531D01*
X88167169Y-106526451D01*
X88133491Y-106489437D01*
X88101906Y-106450485D01*
X88072518Y-106409591D01*
X88045433Y-106366752D01*
X88020754Y-106321964D01*
X87998587Y-106275222D01*
X87979036Y-106226522D01*
X87962206Y-106175862D01*
X87948201Y-106123237D01*
X87937126Y-106068642D01*
X87929086Y-106012076D01*
X87924185Y-105953532D01*
X87922528Y-105893008D01*
X87925454Y-105845873D01*
X87930311Y-105799692D01*
X87937167Y-105754425D01*
X87939093Y-105744845D01*
X88684528Y-105744845D01*
X88685328Y-105783731D01*
X88687706Y-105821027D01*
X88691626Y-105856757D01*
X88697054Y-105890945D01*
X88703955Y-105923614D01*
X88712293Y-105954787D01*
X88722035Y-105984486D01*
X88733145Y-106012737D01*
X88745588Y-106039561D01*
X88759329Y-106064982D01*
X88774334Y-106089023D01*
X88790567Y-106111708D01*
X88807995Y-106133059D01*
X88826581Y-106153101D01*
X88846291Y-106171856D01*
X88867090Y-106189347D01*
X88888943Y-106205598D01*
X88911816Y-106220632D01*
X88935673Y-106234472D01*
X88960480Y-106247142D01*
X88986201Y-106258665D01*
X89012803Y-106269064D01*
X89040249Y-106278362D01*
X89068505Y-106286582D01*
X89097536Y-106293748D01*
X89127308Y-106299884D01*
X89188933Y-106309155D01*
X89253100Y-106314581D01*
X89319531Y-106316348D01*
X89369755Y-106315077D01*
X89417716Y-106311139D01*
X89464126Y-106304349D01*
X89509700Y-106294520D01*
X89555149Y-106281466D01*
X89601188Y-106265002D01*
X89648528Y-106244941D01*
X89697884Y-106221097D01*
X89749969Y-106193285D01*
X89805495Y-106161318D01*
X89865176Y-106125010D01*
X89929725Y-106084175D01*
X90076278Y-105988181D01*
X90229700Y-105885948D01*
X90229700Y-104687680D01*
X90094430Y-104723473D01*
X89949240Y-104765890D01*
X89810003Y-104810290D01*
X89680689Y-104855186D01*
X89565265Y-104899089D01*
X89467700Y-104940512D01*
X89343796Y-104992333D01*
X89233503Y-105044526D01*
X89136046Y-105096967D01*
X89050651Y-105149532D01*
X88976541Y-105202098D01*
X88943476Y-105228342D01*
X88912942Y-105254539D01*
X88884842Y-105280675D01*
X88859079Y-105306733D01*
X88814177Y-105358554D01*
X88777460Y-105409879D01*
X88748154Y-105460584D01*
X88725483Y-105510545D01*
X88708672Y-105559638D01*
X88696946Y-105607738D01*
X88689530Y-105654722D01*
X88685649Y-105700466D01*
X88684528Y-105744845D01*
X87939093Y-105744845D01*
X87946093Y-105710034D01*
X87957158Y-105666480D01*
X87970433Y-105623725D01*
X87985986Y-105581729D01*
X88003889Y-105540454D01*
X88024209Y-105499861D01*
X88047018Y-105459911D01*
X88072385Y-105420566D01*
X88100380Y-105381787D01*
X88131072Y-105343535D01*
X88164531Y-105305772D01*
X88200828Y-105268458D01*
X88240031Y-105231554D01*
X88282211Y-105195023D01*
X88327437Y-105158825D01*
X88375779Y-105122922D01*
X88427307Y-105087274D01*
X88482090Y-105051844D01*
X88540199Y-105016591D01*
X88601704Y-104981479D01*
X88666673Y-104946467D01*
X88807284Y-104876590D01*
X88962592Y-104806651D01*
X89133155Y-104736340D01*
X89319531Y-104665347D01*
X89446903Y-104623925D01*
X89588413Y-104580021D01*
X89740341Y-104535125D01*
X89898966Y-104490725D01*
X90060569Y-104448309D01*
X90221427Y-104409365D01*
X90229700Y-104407567D01*
X90229700Y-104220846D01*
X90227194Y-104084576D01*
X90219571Y-103961142D01*
X90206678Y-103849986D01*
X90188359Y-103750550D01*
X90177116Y-103705053D01*
X90164459Y-103662277D01*
X90150367Y-103622152D01*
X90134823Y-103584608D01*
X90117805Y-103549575D01*
X90099295Y-103516984D01*
X90079274Y-103486765D01*
X90057722Y-103458848D01*
X90034619Y-103433164D01*
X90009947Y-103409642D01*
X89983686Y-103388214D01*
X89955816Y-103368808D01*
X89926319Y-103351356D01*
X89895174Y-103335787D01*
X89862363Y-103322032D01*
X89827865Y-103310021D01*
X89791663Y-103299685D01*
X89753736Y-103290953D01*
X89672629Y-103278024D01*
X89584392Y-103270675D01*
X89488867Y-103268350D01*
X89415446Y-103269508D01*
X89338056Y-103273642D01*
X89297873Y-103277135D01*
X89256697Y-103281745D01*
X89214529Y-103287595D01*
X89171369Y-103294809D01*
X89127216Y-103303511D01*
X89082071Y-103313826D01*
X89065876Y-103318056D01*
X88896204Y-103861020D01*
X88883549Y-103903431D01*
X88869375Y-103943331D01*
X88853650Y-103980688D01*
X88836344Y-104015472D01*
X88817426Y-104047651D01*
X88796864Y-104077194D01*
X88785957Y-104090968D01*
X88774628Y-104104071D01*
X88762872Y-104116500D01*
X88750686Y-104128250D01*
X88738066Y-104139318D01*
X88725008Y-104149701D01*
X88711508Y-104159393D01*
X88697562Y-104168392D01*
X88683167Y-104176693D01*
X88668318Y-104184292D01*
X88653012Y-104191186D01*
X88637245Y-104197371D01*
X88621012Y-104202843D01*
X88604311Y-104207598D01*
X88587137Y-104211632D01*
X88569486Y-104214941D01*
X88551354Y-104217521D01*
X88532738Y-104219369D01*
X88513634Y-104220481D01*
X88494037Y-104220853D01*
X88474442Y-104220482D01*
X88455347Y-104219380D01*
X88436756Y-104217556D01*
X88418673Y-104215024D01*
X88401101Y-104211793D01*
X88384045Y-104207877D01*
X88367508Y-104203286D01*
X88351494Y-104198033D01*
X88336007Y-104192128D01*
X88321052Y-104185584D01*
X88306631Y-104178412D01*
X88292748Y-104170624D01*
X88279409Y-104162231D01*
X88266616Y-104153246D01*
X88254373Y-104143679D01*
X88242684Y-104133542D01*
X88231554Y-104122847D01*
X88220985Y-104111605D01*
X88210983Y-104099829D01*
X88201550Y-104087529D01*
X88192690Y-104074718D01*
X88184408Y-104061407D01*
X88176708Y-104047608D01*
X88169593Y-104033331D01*
X88163067Y-104018590D01*
X88157133Y-104003395D01*
X88151797Y-103987758D01*
X88147061Y-103971691D01*
X88142931Y-103955206D01*
X88139408Y-103938313D01*
X88134204Y-103903354D01*
X88149329Y-103848478D01*
X88166895Y-103794989D01*
X88186864Y-103742911D01*
X88209198Y-103692267D01*
X88233856Y-103643080D01*
X88260802Y-103595374D01*
X88289995Y-103549172D01*
X88321398Y-103504496D01*
X88354971Y-103461371D01*
X88390675Y-103419820D01*
X88428472Y-103379865D01*
X88468324Y-103341530D01*
X88510191Y-103304839D01*
X88554034Y-103269814D01*
X88599816Y-103236479D01*
X88647496Y-103204857D01*
X88697037Y-103174971D01*
X88748399Y-103146845D01*
X88801545Y-103120502D01*
X88856434Y-103095964D01*
X88913028Y-103073257D01*
X88971290Y-103052401D01*
X89031179Y-103033422D01*
X89092657Y-103016342D01*
X89155685Y-103001184D01*
X89220225Y-102987971D01*
X89286238Y-102976728D01*
X89353684Y-102967477D01*
X89422526Y-102960241D01*
X89492725Y-102955043D01*
X89564241Y-102951908D01*
X89637036Y-102950857D01*
X89783136Y-102955141D01*
G37*
%TO.C,U6*%
D13*
X159345000Y-93695000D02*
X154345000Y-93695000D01*
X154345000Y-105695000D01*
X159345000Y-105695000D01*
X159345000Y-93695000D01*
D17*
X157970000Y-97695000D02*
G75*
G02*
X157720000Y-97695000I-125000J0D01*
G01*
X157720000Y-97695000D02*
G75*
G02*
X157970000Y-97695000I125000J0D01*
G01*
%TO.C,U7*%
D13*
X145375000Y-93695000D02*
X140375000Y-93695000D01*
X140375000Y-105695000D01*
X145375000Y-105695000D01*
X145375000Y-93695000D01*
D17*
X144000000Y-97695000D02*
G75*
G02*
X143750000Y-97695000I-125000J0D01*
G01*
X143750000Y-97695000D02*
G75*
G02*
X144000000Y-97695000I125000J0D01*
G01*
D13*
%TO.C,J1*%
X223695000Y-109695000D02*
X223695000Y-114395000D01*
X223695000Y-109695000D02*
X225995000Y-109695000D01*
X223695000Y-114395000D02*
X229695000Y-114395000D01*
X229695000Y-109695000D02*
X227395000Y-109695000D01*
X229695000Y-114395000D02*
X229695000Y-109695000D01*
D16*
%TO.C,C2*%
X213143752Y-107040000D02*
X211721248Y-107040000D01*
X213143752Y-108860000D02*
X211721248Y-108860000D01*
D13*
%TO.C,J4*%
X181785000Y-109695000D02*
X181785000Y-114395000D01*
X181785000Y-109695000D02*
X184085000Y-109695000D01*
X181785000Y-114395000D02*
X187785000Y-114395000D01*
X187785000Y-109695000D02*
X185485000Y-109695000D01*
X187785000Y-114395000D02*
X187785000Y-109695000D01*
D16*
%TO.C,R6*%
X157205000Y-90077936D02*
X157205000Y-91532064D01*
X159025000Y-90077936D02*
X159025000Y-91532064D01*
%TO.C,C8*%
X129323752Y-107040000D02*
X127901248Y-107040000D01*
X129323752Y-108860000D02*
X127901248Y-108860000D01*
%TO.C,R1*%
X227055000Y-90077936D02*
X227055000Y-91532064D01*
X228875000Y-90077936D02*
X228875000Y-91532064D01*
D10*
%TO.C,U9*%
X240855323Y-83947000D02*
X244284675Y-83947000D01*
X244284677Y-77343000D02*
X240855325Y-77343000D01*
X242265200Y-83947000D02*
G75*
G02*
X242874800Y-83947000I304800J0D01*
G01*
D18*
G36*
X238658400Y-83760498D02*
G01*
X238404400Y-83760498D01*
X238404400Y-83379498D01*
X238658400Y-83379498D01*
X238658400Y-83760498D01*
G37*
G36*
X246735600Y-77910502D02*
G01*
X246481600Y-77910502D01*
X246481600Y-77529502D01*
X246735600Y-77529502D01*
X246735600Y-77910502D01*
G37*
D16*
%TO.C,R3*%
X199115000Y-90077936D02*
X199115000Y-91532064D01*
X200935000Y-90077936D02*
X200935000Y-91532064D01*
%TD*%
M02*
