%TF.GenerationSoftware,KiCad,Pcbnew,8.0.4*%
%TF.CreationDate,2024-09-16T12:53:31-07:00*%
%TF.ProjectId,PumpController8,50756d70-436f-46e7-9472-6f6c6c657238,rev?*%
%TF.SameCoordinates,Original*%
%TF.FileFunction,Soldermask,Top*%
%TF.FilePolarity,Negative*%
%FSLAX46Y46*%
G04 Gerber Fmt 4.6, Leading zero omitted, Abs format (unit mm)*
G04 Created by KiCad (PCBNEW 8.0.4) date 2024-09-16 12:53:31*
%MOMM*%
%LPD*%
G01*
G04 APERTURE LIST*
G04 Aperture macros list*
%AMRoundRect*
0 Rectangle with rounded corners*
0 $1 Rounding radius*
0 $2 $3 $4 $5 $6 $7 $8 $9 X,Y pos of 4 corners*
0 Add a 4 corners polygon primitive as box body*
4,1,4,$2,$3,$4,$5,$6,$7,$8,$9,$2,$3,0*
0 Add four circle primitives for the rounded corners*
1,1,$1+$1,$2,$3*
1,1,$1+$1,$4,$5*
1,1,$1+$1,$6,$7*
1,1,$1+$1,$8,$9*
0 Add four rect primitives between the rounded corners*
20,1,$1+$1,$2,$3,$4,$5,0*
20,1,$1+$1,$4,$5,$6,$7,0*
20,1,$1+$1,$6,$7,$8,$9,0*
20,1,$1+$1,$8,$9,$2,$3,0*%
G04 Aperture macros list end*
%ADD10O,5.460000X2.819900*%
%ADD11O,2.819900X5.460000*%
%ADD12C,1.371600*%
%ADD13C,3.327400*%
%ADD14C,1.473200*%
%ADD15C,2.159000*%
%ADD16C,1.500000*%
%ADD17RoundRect,0.250000X0.412500X0.650000X-0.412500X0.650000X-0.412500X-0.650000X0.412500X-0.650000X0*%
%ADD18RoundRect,0.250000X-0.312500X-0.625000X0.312500X-0.625000X0.312500X0.625000X-0.312500X0.625000X0*%
%ADD19RoundRect,0.375000X-0.375000X0.575000X-0.375000X-0.575000X0.375000X-0.575000X0.375000X0.575000X0*%
%ADD20C,4.500000*%
%ADD21RoundRect,0.250000X-0.625000X0.312500X-0.625000X-0.312500X0.625000X-0.312500X0.625000X0.312500X0*%
%ADD22RoundRect,0.250000X-0.600000X-0.600000X0.600000X-0.600000X0.600000X0.600000X-0.600000X0.600000X0*%
%ADD23C,1.700000*%
%ADD24RoundRect,0.102000X-1.387500X-1.387500X1.387500X-1.387500X1.387500X1.387500X-1.387500X1.387500X0*%
%ADD25C,2.979000*%
%ADD26R,1.676400X0.355600*%
G04 APERTURE END LIST*
D10*
%TO.C,J10*%
X117020000Y-66835000D03*
D11*
X112120000Y-63885000D03*
D10*
X117020000Y-60835000D03*
%TD*%
D12*
%TO.C,C9*%
X119058750Y-77216000D03*
X122558751Y-77216000D03*
%TD*%
D13*
%TO.C,J9*%
X244576600Y-62992000D03*
X189966600Y-62992000D03*
X135356600Y-62992000D03*
D14*
X243306600Y-69342000D03*
X242036600Y-71882000D03*
X240766600Y-69342000D03*
X239496600Y-71882000D03*
X238226600Y-69342000D03*
X236956600Y-71882000D03*
X235686600Y-69342000D03*
X234416600Y-71882000D03*
X229336600Y-69342000D03*
X228066600Y-71882000D03*
X226796600Y-69342000D03*
X225526600Y-71882000D03*
X224256600Y-69342000D03*
X222986600Y-71882000D03*
X221716600Y-69342000D03*
X220446600Y-71882000D03*
X215366600Y-69342000D03*
X214096600Y-71882000D03*
X212826600Y-69342000D03*
X211556600Y-71882000D03*
X210286600Y-69342000D03*
X209016600Y-71882000D03*
X207746600Y-69342000D03*
X206476600Y-71882000D03*
X201396600Y-69342000D03*
X200126600Y-71882000D03*
X198856600Y-69342000D03*
X197586600Y-71882000D03*
X196316600Y-69342000D03*
X195046600Y-71882000D03*
X193776600Y-69342000D03*
X192506600Y-71882000D03*
X187426600Y-69342000D03*
X186156600Y-71882000D03*
X184886600Y-69342000D03*
X183616600Y-71882000D03*
X182346600Y-69342000D03*
X181076600Y-71882000D03*
X179806600Y-69342000D03*
X178536600Y-71882000D03*
X173456600Y-69342000D03*
X172186600Y-71882000D03*
X170916600Y-69342000D03*
X169646600Y-71882000D03*
X168376600Y-69342000D03*
X167106600Y-71882000D03*
X165836600Y-69342000D03*
X164566600Y-71882000D03*
X159486600Y-69342000D03*
X158216600Y-71882000D03*
X156946600Y-69342000D03*
X155676600Y-71882000D03*
X154406600Y-69342000D03*
X153136600Y-71882000D03*
X151866600Y-69342000D03*
X150596600Y-71882000D03*
X145516600Y-69342000D03*
X144246600Y-71882000D03*
X142976600Y-69342000D03*
X141706600Y-71882000D03*
X140436600Y-69342000D03*
X139166600Y-71882000D03*
X137896600Y-69342000D03*
X136626600Y-71882000D03*
D15*
X247370600Y-58420000D03*
X132562600Y-58420000D03*
X231876600Y-73406000D03*
X217906600Y-73406000D03*
X203936600Y-73406000D03*
X189966600Y-73406000D03*
X175996600Y-73406000D03*
X162026600Y-73406000D03*
X148056600Y-73406000D03*
%TD*%
D16*
%TO.C,J7*%
X143875000Y-111395000D03*
X141875000Y-111395000D03*
%TD*%
D17*
%TO.C,C1*%
X227965000Y-107950000D03*
X224840000Y-107950000D03*
%TD*%
D18*
%TO.C,R9*%
X112075500Y-73660000D03*
X115000500Y-73660000D03*
%TD*%
D19*
%TO.C,U4*%
X186055000Y-95545000D03*
X183515000Y-95545000D03*
X183515000Y-103845000D03*
X186055000Y-103845000D03*
%TD*%
D20*
%TO.C,H4*%
X81915000Y-60325000D03*
%TD*%
D21*
%TO.C,R8*%
X130175000Y-89342500D03*
X130175000Y-92267500D03*
%TD*%
D22*
%TO.C,J11*%
X253365000Y-67310000D03*
D23*
X255905000Y-67310000D03*
X253365000Y-69850000D03*
X255905000Y-69850000D03*
X253365000Y-72390000D03*
X255905000Y-72390000D03*
X253365000Y-74930000D03*
X255905000Y-74930000D03*
X253365000Y-77470000D03*
X255905000Y-77470000D03*
X253365000Y-80010000D03*
X255905000Y-80010000D03*
X253365000Y-82550000D03*
X255905000Y-82550000D03*
X253365000Y-85090000D03*
X255905000Y-85090000D03*
X253365000Y-87630000D03*
X255905000Y-87630000D03*
X253365000Y-90170000D03*
X255905000Y-90170000D03*
X253365000Y-92710000D03*
X255905000Y-92710000D03*
X253365000Y-95250000D03*
X255905000Y-95250000D03*
X253365000Y-97790000D03*
X255905000Y-97790000D03*
X253365000Y-100330000D03*
X255905000Y-100330000D03*
X253365000Y-102870000D03*
X255905000Y-102870000D03*
X253365000Y-105410000D03*
X255905000Y-105410000D03*
X253365000Y-107950000D03*
X255905000Y-107950000D03*
X253365000Y-110490000D03*
X255905000Y-110490000D03*
X253365000Y-113030000D03*
X255905000Y-113030000D03*
X253365000Y-115570000D03*
X255905000Y-115570000D03*
%TD*%
D17*
%TO.C,C5*%
X172085000Y-107950000D03*
X168960000Y-107950000D03*
%TD*%
%TO.C,C7*%
X144145000Y-107950000D03*
X141020000Y-107950000D03*
%TD*%
D20*
%TO.C,H1*%
X255270000Y-60325000D03*
%TD*%
D16*
%TO.C,J5*%
X171815000Y-111395000D03*
X169815000Y-111395000D03*
%TD*%
D17*
%TO.C,C4*%
X186055000Y-107950000D03*
X182930000Y-107950000D03*
%TD*%
D21*
%TO.C,R4*%
X186055000Y-89342500D03*
X186055000Y-92267500D03*
%TD*%
D16*
%TO.C,J8*%
X129905000Y-111395000D03*
X127905000Y-111395000D03*
%TD*%
%TO.C,J3*%
X199755000Y-111395000D03*
X197755000Y-111395000D03*
%TD*%
D19*
%TO.C,U3*%
X200025000Y-95545000D03*
X197485000Y-95545000D03*
X197485000Y-103845000D03*
X200025000Y-103845000D03*
%TD*%
D17*
%TO.C,C6*%
X158115000Y-107950000D03*
X154990000Y-107950000D03*
%TD*%
D19*
%TO.C,U8*%
X130175000Y-95545000D03*
X127635000Y-95545000D03*
X127635000Y-103845000D03*
X130175000Y-103845000D03*
%TD*%
D16*
%TO.C,J2*%
X213725000Y-111395000D03*
X211725000Y-111395000D03*
%TD*%
D21*
%TO.C,R5*%
X172085000Y-89342500D03*
X172085000Y-92267500D03*
%TD*%
D16*
%TO.C,J6*%
X157845000Y-111395000D03*
X155845000Y-111395000D03*
%TD*%
D20*
%TO.C,H3*%
X81915000Y-114935000D03*
%TD*%
D19*
%TO.C,U2*%
X213995000Y-95545000D03*
X211455000Y-95545000D03*
X211455000Y-103845000D03*
X213995000Y-103845000D03*
%TD*%
D17*
%TO.C,C3*%
X200025000Y-107950000D03*
X196900000Y-107950000D03*
%TD*%
D21*
%TO.C,R7*%
X144145000Y-89342500D03*
X144145000Y-92267500D03*
%TD*%
D20*
%TO.C,H2*%
X246380000Y-114935000D03*
%TD*%
D19*
%TO.C,U5*%
X172085000Y-95545000D03*
X169545000Y-95545000D03*
X169545000Y-103845000D03*
X172085000Y-103845000D03*
%TD*%
D24*
%TO.C,S1*%
X90887500Y-72231250D03*
D25*
X95587500Y-72231250D03*
X100287500Y-72231250D03*
X90887500Y-76041250D03*
X95587500Y-76041250D03*
X100287500Y-76041250D03*
X93047500Y-59531250D03*
X98127500Y-59531250D03*
%TD*%
D19*
%TO.C,U1*%
X227965000Y-95545000D03*
X225425000Y-95545000D03*
X225425000Y-103845000D03*
X227965000Y-103845000D03*
%TD*%
D21*
%TO.C,R2*%
X213995000Y-89342500D03*
X213995000Y-92267500D03*
%TD*%
D26*
%TO.C,U10*%
X245389400Y-99191000D03*
X245389400Y-98540999D03*
X245389400Y-97891001D03*
X245389400Y-97240999D03*
X245389400Y-96591001D03*
X245389400Y-95941002D03*
X245389400Y-95291001D03*
X245389400Y-94641002D03*
X245389400Y-93991001D03*
X245389400Y-93341002D03*
X239750600Y-93341000D03*
X239750600Y-93990998D03*
X239750600Y-94640999D03*
X239750600Y-95290998D03*
X239750600Y-95940999D03*
X239750600Y-96590998D03*
X239750600Y-97240999D03*
X239750600Y-97890998D03*
X239750600Y-98540999D03*
X239750600Y-99190998D03*
%TD*%
D19*
%TO.C,U6*%
X158115000Y-95545000D03*
X155575000Y-95545000D03*
X155575000Y-103845000D03*
X158115000Y-103845000D03*
%TD*%
%TO.C,U7*%
X144145000Y-95545000D03*
X141605000Y-95545000D03*
X141605000Y-103845000D03*
X144145000Y-103845000D03*
%TD*%
D16*
%TO.C,J1*%
X227695000Y-111395000D03*
X225695000Y-111395000D03*
%TD*%
D17*
%TO.C,C2*%
X213995000Y-107950000D03*
X210870000Y-107950000D03*
%TD*%
D16*
%TO.C,J4*%
X185785000Y-111395000D03*
X183785000Y-111395000D03*
%TD*%
D21*
%TO.C,R6*%
X158115000Y-89342500D03*
X158115000Y-92267500D03*
%TD*%
D17*
%TO.C,C8*%
X130175000Y-107950000D03*
X127050000Y-107950000D03*
%TD*%
D21*
%TO.C,R1*%
X227965000Y-89342500D03*
X227965000Y-92267500D03*
%TD*%
D26*
%TO.C,U9*%
X245389400Y-83570000D03*
X245389400Y-82919999D03*
X245389400Y-82270001D03*
X245389400Y-81619999D03*
X245389400Y-80970001D03*
X245389400Y-80320002D03*
X245389400Y-79670001D03*
X245389400Y-79020002D03*
X245389400Y-78370001D03*
X245389400Y-77720002D03*
X239750600Y-77720000D03*
X239750600Y-78369998D03*
X239750600Y-79019999D03*
X239750600Y-79669998D03*
X239750600Y-80319999D03*
X239750600Y-80969998D03*
X239750600Y-81619999D03*
X239750600Y-82269998D03*
X239750600Y-82919999D03*
X239750600Y-83569998D03*
%TD*%
D21*
%TO.C,R3*%
X200025000Y-89342500D03*
X200025000Y-92267500D03*
%TD*%
M02*
