%TF.GenerationSoftware,KiCad,Pcbnew,8.0.4*%
%TF.CreationDate,2024-09-16T12:53:31-07:00*%
%TF.ProjectId,PumpController8,50756d70-436f-46e7-9472-6f6c6c657238,rev?*%
%TF.SameCoordinates,Original*%
%TF.FileFunction,Paste,Top*%
%TF.FilePolarity,Positive*%
%FSLAX46Y46*%
G04 Gerber Fmt 4.6, Leading zero omitted, Abs format (unit mm)*
G04 Created by KiCad (PCBNEW 8.0.4) date 2024-09-16 12:53:31*
%MOMM*%
%LPD*%
G01*
G04 APERTURE LIST*
G04 Aperture macros list*
%AMRoundRect*
0 Rectangle with rounded corners*
0 $1 Rounding radius*
0 $2 $3 $4 $5 $6 $7 $8 $9 X,Y pos of 4 corners*
0 Add a 4 corners polygon primitive as box body*
4,1,4,$2,$3,$4,$5,$6,$7,$8,$9,$2,$3,0*
0 Add four circle primitives for the rounded corners*
1,1,$1+$1,$2,$3*
1,1,$1+$1,$4,$5*
1,1,$1+$1,$6,$7*
1,1,$1+$1,$8,$9*
0 Add four rect primitives between the rounded corners*
20,1,$1+$1,$2,$3,$4,$5,0*
20,1,$1+$1,$4,$5,$6,$7,0*
20,1,$1+$1,$6,$7,$8,$9,0*
20,1,$1+$1,$8,$9,$2,$3,0*%
G04 Aperture macros list end*
%ADD10RoundRect,0.250000X0.412500X0.650000X-0.412500X0.650000X-0.412500X-0.650000X0.412500X-0.650000X0*%
%ADD11RoundRect,0.250000X-0.312500X-0.625000X0.312500X-0.625000X0.312500X0.625000X-0.312500X0.625000X0*%
%ADD12RoundRect,0.375000X-0.375000X0.575000X-0.375000X-0.575000X0.375000X-0.575000X0.375000X0.575000X0*%
%ADD13RoundRect,0.250000X-0.625000X0.312500X-0.625000X-0.312500X0.625000X-0.312500X0.625000X0.312500X0*%
%ADD14R,1.676400X0.355600*%
G04 APERTURE END LIST*
D10*
%TO.C,C1*%
X227965000Y-107950000D03*
X224840000Y-107950000D03*
%TD*%
D11*
%TO.C,R9*%
X112075500Y-73660000D03*
X115000500Y-73660000D03*
%TD*%
D12*
%TO.C,U4*%
X186055000Y-95545000D03*
X183515000Y-95545000D03*
X183515000Y-103845000D03*
X186055000Y-103845000D03*
%TD*%
D13*
%TO.C,R8*%
X130175000Y-89342500D03*
X130175000Y-92267500D03*
%TD*%
D10*
%TO.C,C5*%
X172085000Y-107950000D03*
X168960000Y-107950000D03*
%TD*%
%TO.C,C7*%
X144145000Y-107950000D03*
X141020000Y-107950000D03*
%TD*%
%TO.C,C4*%
X186055000Y-107950000D03*
X182930000Y-107950000D03*
%TD*%
D13*
%TO.C,R4*%
X186055000Y-89342500D03*
X186055000Y-92267500D03*
%TD*%
D12*
%TO.C,U3*%
X200025000Y-95545000D03*
X197485000Y-95545000D03*
X197485000Y-103845000D03*
X200025000Y-103845000D03*
%TD*%
D10*
%TO.C,C6*%
X158115000Y-107950000D03*
X154990000Y-107950000D03*
%TD*%
D12*
%TO.C,U8*%
X130175000Y-95545000D03*
X127635000Y-95545000D03*
X127635000Y-103845000D03*
X130175000Y-103845000D03*
%TD*%
D13*
%TO.C,R5*%
X172085000Y-89342500D03*
X172085000Y-92267500D03*
%TD*%
D12*
%TO.C,U2*%
X213995000Y-95545000D03*
X211455000Y-95545000D03*
X211455000Y-103845000D03*
X213995000Y-103845000D03*
%TD*%
D10*
%TO.C,C3*%
X200025000Y-107950000D03*
X196900000Y-107950000D03*
%TD*%
D13*
%TO.C,R7*%
X144145000Y-89342500D03*
X144145000Y-92267500D03*
%TD*%
D12*
%TO.C,U5*%
X172085000Y-95545000D03*
X169545000Y-95545000D03*
X169545000Y-103845000D03*
X172085000Y-103845000D03*
%TD*%
%TO.C,U1*%
X227965000Y-95545000D03*
X225425000Y-95545000D03*
X225425000Y-103845000D03*
X227965000Y-103845000D03*
%TD*%
D13*
%TO.C,R2*%
X213995000Y-89342500D03*
X213995000Y-92267500D03*
%TD*%
D14*
%TO.C,U10*%
X245389400Y-99191000D03*
X245389400Y-98540999D03*
X245389400Y-97891001D03*
X245389400Y-97240999D03*
X245389400Y-96591001D03*
X245389400Y-95941002D03*
X245389400Y-95291001D03*
X245389400Y-94641002D03*
X245389400Y-93991001D03*
X245389400Y-93341002D03*
X239750600Y-93341000D03*
X239750600Y-93990998D03*
X239750600Y-94640999D03*
X239750600Y-95290998D03*
X239750600Y-95940999D03*
X239750600Y-96590998D03*
X239750600Y-97240999D03*
X239750600Y-97890998D03*
X239750600Y-98540999D03*
X239750600Y-99190998D03*
%TD*%
D12*
%TO.C,U6*%
X158115000Y-95545000D03*
X155575000Y-95545000D03*
X155575000Y-103845000D03*
X158115000Y-103845000D03*
%TD*%
%TO.C,U7*%
X144145000Y-95545000D03*
X141605000Y-95545000D03*
X141605000Y-103845000D03*
X144145000Y-103845000D03*
%TD*%
D10*
%TO.C,C2*%
X213995000Y-107950000D03*
X210870000Y-107950000D03*
%TD*%
D13*
%TO.C,R6*%
X158115000Y-89342500D03*
X158115000Y-92267500D03*
%TD*%
D10*
%TO.C,C8*%
X130175000Y-107950000D03*
X127050000Y-107950000D03*
%TD*%
D13*
%TO.C,R1*%
X227965000Y-89342500D03*
X227965000Y-92267500D03*
%TD*%
D14*
%TO.C,U9*%
X245389400Y-83570000D03*
X245389400Y-82919999D03*
X245389400Y-82270001D03*
X245389400Y-81619999D03*
X245389400Y-80970001D03*
X245389400Y-80320002D03*
X245389400Y-79670001D03*
X245389400Y-79020002D03*
X245389400Y-78370001D03*
X245389400Y-77720002D03*
X239750600Y-77720000D03*
X239750600Y-78369998D03*
X239750600Y-79019999D03*
X239750600Y-79669998D03*
X239750600Y-80319999D03*
X239750600Y-80969998D03*
X239750600Y-81619999D03*
X239750600Y-82269998D03*
X239750600Y-82919999D03*
X239750600Y-83569998D03*
%TD*%
D13*
%TO.C,R3*%
X200025000Y-89342500D03*
X200025000Y-92267500D03*
%TD*%
M02*
